<?xml version="1.0" encoding="utf-8"?>
<!-- Generator: Adobe Illustrator 27.8.0, SVG Export Plug-In . SVG Version: 6.00 Build 0)  -->
<svg version="1.1" id="Calque_1" xmlns="http://www.w3.org/2000/svg" xmlns:xlink="http://www.w3.org/1999/xlink" x="0px" y="0px"
	 viewBox="0 0 3000 700" style="enable-background:new 0 0 3000 700;" xml:space="preserve">
<style type="text/css">
	.st0{fill:none;stroke:#000000;stroke-width:1.836;stroke-miterlimit:10;}
	.st1{fill:none;stroke:#FFFFFF;stroke-width:14.69;stroke-linecap:round;stroke-linejoin:round;stroke-miterlimit:10;}
	
		.st2{fill:none;stroke:#000000;stroke-width:2.5;stroke-linecap:round;stroke-linejoin:round;stroke-miterlimit:10;stroke-dasharray:0,7.579;}
	.st3{fill:none;stroke:#000000;stroke-width:2.5;stroke-linecap:round;stroke-linejoin:round;stroke-miterlimit:10;}
	
		.st4{fill:none;stroke:#000000;stroke-width:2.5;stroke-linecap:round;stroke-linejoin:round;stroke-miterlimit:10;stroke-dasharray:0,6.615;}
	
		.st5{fill:none;stroke:#000000;stroke-width:2.5;stroke-linecap:round;stroke-linejoin:round;stroke-miterlimit:10;stroke-dasharray:0,6.384;}
	
		.st6{fill:none;stroke:#000000;stroke-width:2.5;stroke-linecap:round;stroke-linejoin:round;stroke-miterlimit:10;stroke-dasharray:0,7.476;}
	
		.st7{fill:none;stroke:#000000;stroke-width:2.5;stroke-linecap:round;stroke-linejoin:round;stroke-miterlimit:10;stroke-dasharray:0,7.305;}
	
		.st8{fill:none;stroke:#000000;stroke-width:2.5;stroke-linecap:round;stroke-linejoin:round;stroke-miterlimit:10;stroke-dasharray:0,6.754;}
	
		.st9{fill:none;stroke:#000000;stroke-width:2.5;stroke-linecap:round;stroke-linejoin:round;stroke-miterlimit:10;stroke-dasharray:0,6.934;}
	.st10{fill:none;stroke:#000000;stroke-width:14.69;stroke-linecap:round;stroke-linejoin:round;stroke-miterlimit:10;}
	
		.st11{fill:none;stroke:#000000;stroke-width:2.5;stroke-linecap:round;stroke-linejoin:round;stroke-miterlimit:10;stroke-dasharray:0,7.447;}
	
		.st12{fill:none;stroke:#000000;stroke-width:2.5;stroke-linecap:round;stroke-linejoin:round;stroke-miterlimit:10;stroke-dasharray:0,6.408;}
	
		.st13{fill:none;stroke:#000000;stroke-width:2.5;stroke-linecap:round;stroke-linejoin:round;stroke-miterlimit:10;stroke-dasharray:0,6.61;}
	
		.st14{fill:none;stroke:#000000;stroke-width:2.5;stroke-linecap:round;stroke-linejoin:round;stroke-miterlimit:10;stroke-dasharray:0,7.255;}
	
		.st15{fill:none;stroke:#000000;stroke-width:2.5;stroke-linecap:round;stroke-linejoin:round;stroke-miterlimit:10;stroke-dasharray:0,6.256;}
	
		.st16{fill:none;stroke:#000000;stroke-width:2.5;stroke-linecap:round;stroke-linejoin:round;stroke-miterlimit:10;stroke-dasharray:0,6.519;}
</style>
<g>
	<path class="st0" d="M217.2,434.4c8.1,0,11.8-4.4,11.8-10.3c0-5.1-2.9-9.5-10.3-9.5c-5.9,0-9.5,3.7-11,6.6 M206.9,448.3
		c0.7,4.4,5.1,7.3,11,7.3c7.3,0,11.8-4.4,11.8-10.3c0-5.1-3.7-11-12.5-11H215 M212,77.4h-23.5l12.5-14c5.1-5.9,9.5-11,9.5-16.9
		c0-6.6-4.4-9.5-10.3-9.5c-5.1,0-9.5,2.9-11,8.1 M51.2,228v-40.4L38,196.4 M282.6,88.4l14,15.4l-14.7,14 M118.8,107.5
		c51.4-5.9,123.4-6.6,177.7-3.7 M154.8,408c5.1,0,9.5-4.4,9.5-9.5c0-5.1-4.4-9.5-9.5-9.5c-5.1,0-9.5,4.4-9.5,9.5
		C145.2,403.5,149.6,408,154.8,408z M272.3,374.9l14,14.7l-14,14.7 M154.8,398.4c41.1-5.9,89.6-8.8,131.5-8.8 M95.3,153.8
		c-4.4,87.4-9.5,234.3-9.5,293.1c0,91.8,14.7,137.4,88.1,137.4c31.6,0,66.8-7.3,94.8-22 M252.4,554.1l16.2,8.1l-5.1,19.1"/>
	<path d="M118.8,117.1c5.1,0,9.5-4.4,9.5-9.5c0-5.1-4.4-9.5-9.5-9.5c-5.1,0-9.5,4.4-9.5,9.5C109.2,112.7,113.6,117.1,118.8,117.1
		 M154.8,408c5.1,0,9.5-4.4,9.5-9.5c0-5.1-4.4-9.5-9.5-9.5c-5.1,0-9.5,4.4-9.5,9.5C145.2,403.5,149.6,408,154.8,408 M95.3,163.4
		c5.1,0,9.5-4.4,9.5-9.5c0-5.1-4.4-9.5-9.5-9.5s-9.5,4.4-9.5,9.5C85.7,159,90.1,163.4,95.3,163.4"/>
	<path class="st1" d="M131.3,144.3c-2.9,79.3-6.6,174.1-6.6,342.3c0,94.7,36,125.6,89.6,125.6c39.7,0,69.8-14,92.5-33.1 M284,355.1
		c-53.6,0-107.2,2.2-163.8,9.5 M289.9,140.6c-49.9-1.5-108.7,0-163.8,3.7"/>
	<path class="st2" d="M166.5,312c38.4-42,82.5-92.3,117.3-134"/>
	<path class="st3" d="M286.2,175.1L286.2,175.1 M161.4,317.6L161.4,317.6"/>
	<line class="st4" x1="174.6" y1="318.1" x2="164.7" y2="317.7"/>
	<line class="st5" x1="160.9" y1="311.2" x2="160.1" y2="301.7"/>
	<path class="st3" d="M159.9,298.5L159.9,298.5 M161.4,317.6L161.4,317.6 M181.2,318.3L181.2,318.3"/>
	<path class="st0" d="M573.7,430c8.1,0,11.8-4.4,11.8-10.3c0-5.1-2.9-9.5-10.3-9.5c-5.9,0-9.5,3.7-11,6.6 M563.4,444
		c0.7,4.4,5.1,7.3,11,7.3c7.3,0,11.8-4.4,11.8-10.3c0-5.1-3.7-11-12.5-11h-2.2 M398.9,240.5h-23.5l12.5-14c5.1-5.9,9.5-11,9.5-16.9
		c0-6.6-4.4-9.5-10.3-9.5c-5.1,0-9.5,2.9-11,8.1 M548.7,76.7V36.3l-13.2,8.8 M623.6,89.9l14,15.4l-14.7,14 M459.8,109
		c51.4-5.9,123.4-6.6,177.7-3.7 M495.8,409.5c5.1,0,9.5-4.4,9.5-9.5c0-5.1-4.4-9.5-9.5-9.5c-5.1,0-9.5,4.4-9.5,9.5
		C486.3,405,490.7,409.5,495.8,409.5z M613.4,376.4l14,14.7l-14,14.7 M495.8,399.9c41.1-5.9,89.6-8.8,131.5-8.8 M436.3,155.3
		c-4.4,87.4-9.5,234.3-9.5,293.1c0,91.8,14.7,137.4,88.1,137.4c31.6,0,66.8-7.3,94.8-22 M593.5,555.6l16.2,8.1l-5.1,19.1"/>
	<path d="M459.8,118.6c5.1,0,9.5-4.4,9.5-9.5c0-5.1-4.4-9.5-9.5-9.5c-5.1,0-9.5,4.4-9.5,9.5C450.3,114.2,454.7,118.6,459.8,118.6
		 M495.8,409.5c5.1,0,9.5-4.4,9.5-9.5c0-5.1-4.4-9.5-9.5-9.5c-5.1,0-9.5,4.4-9.5,9.5C486.3,405,490.7,409.5,495.8,409.5
		 M436.3,164.9c5.1,0,9.5-4.4,9.5-9.5c0-5.1-4.4-9.5-9.5-9.5s-9.5,4.4-9.5,9.5C426.8,160.5,431.2,164.9,436.3,164.9"/>
	<path class="st1" d="M472.3,145.8c-2.9,79.3-6.6,174.1-6.6,342.3c0,94.7,36,125.6,89.6,125.6c39.7,0,69.8-14,92.5-33.1
		 M625.1,356.6c-53.6,0-107.2,2.2-163.8,9.5 M631,142.1c-49.9-1.5-108.7,0-163.8,3.7"/>
	<path class="st6" d="M620.3,549.9c-31.2-37.6-66.8-81.1-104.3-122.2"/>
	<path class="st3" d="M513.5,424.9L513.5,424.9 M625.1,555.6L625.1,555.6"/>
	<line class="st5" x1="512.5" y1="437.6" x2="513.2" y2="428.1"/>
	<line class="st4" x1="520.1" y1="424.6" x2="530" y2="424.3"/>
	<path class="st3" d="M533.3,424.1L533.3,424.1 M513.5,424.9L513.5,424.9 M512,444L512,444"/>
	<path class="st7" d="M613.4,175.8c-38.9-0.4-78.7,0.9-113.2,2.8"/>
	<path class="st3" d="M496.6,178.8L496.6,178.8 M620.7,175.9L620.7,175.9"/>
	<line class="st8" x1="506.4" y1="188.1" x2="499" y2="181.1"/>
	<line class="st9" x1="501.2" y1="173.7" x2="508.2" y2="166"/>
	<path class="st3" d="M510.5,163.4L510.5,163.4 M496.6,178.8L496.6,178.8 M511.3,192.8L511.3,192.8"/>
	<path class="st0" d="M908.6,439.9h-23.5l12.5-14c5.1-5.9,9.5-11,9.5-16.9c0-6.6-4.4-9.5-10.3-9.5c-5.1,0-9.5,2.9-11,8.1 M868.2,83
		V42.6L855,51.4 M947.6,102.8c-64.6-1.5-127.8,0.7-182.2,4.4c-8.1,125.6-13.2,276.2-13.2,334.9c0,91.8,14.7,137.4,88.1,137.4
		c31.6,0,66.8-7.3,94.8-22 M938.8,370.2l14,14.7l-14,14.7 M821.2,393.7c41.1-5.9,89.6-8.8,131.5-8.8 M918.9,549.4l16.2,8.1
		l-5.1,19.1"/>
	<path d="M947.6,112.4c5.1,0,9.5-4.4,9.5-9.5c0-5.1-4.4-9.5-9.5-9.5c-5.1,0-9.5,4.4-9.5,9.5C938,107.9,942.4,112.4,947.6,112.4
		 M821.2,403.2c5.1,0,9.5-4.4,9.5-9.5c0-5.1-4.4-9.5-9.5-9.5s-9.5,4.4-9.5,9.5C811.7,398.8,816.1,403.2,821.2,403.2"/>
	<path class="st1" d="M797.7,139.5c-2.9,79.3-6.6,174.1-6.6,342.3c0,94.7,36,125.6,89.6,125.6c39.7,0,69.8-14,92.5-33.1
		 M950.5,350.3c-53.6,0-107.2,2.2-163.8,9.5 M956.4,135.9c-49.9-1.5-103.6,0-158.7,3.7"/>
	<path class="st6" d="M951.6,543.6c-31.2-37.6-66.8-81.1-104.3-122.2"/>
	<path class="st3" d="M844.7,418.6L844.7,418.6 M956.4,549.4L956.4,549.4"/>
	<line class="st5" x1="843.8" y1="431.4" x2="844.5" y2="421.8"/>
	<line class="st4" x1="851.4" y1="418.4" x2="861.3" y2="418"/>
	<path class="st3" d="M864.6,417.9L864.6,417.9 M844.7,418.6L844.7,418.6 M843.3,437.7L843.3,437.7"/>
	<path class="st0" d="M1189.7,687.5v-40.4l-13.2,8.8 M1097.2,290.8h-23.5l12.5-14c5.1-5.9,9.5-11,9.5-16.9c0-6.6-4.4-9.5-10.3-9.5
		c-5.1,0-9.5,2.9-11,8.1 M1223.5,72V31.6l-13.2,8.8 M1224.3,592.7l14.7,14l-14,15.4 M1148.6,526.6c0,27.9-4.4,74.9-8.8,106.5
		c26.4-14,63.9-26.4,99.2-26.4 M1150.8,238.7l14.7,14l14-14.7 M1147.9,69.7c49.2,25,94,35.3,132.9,30.1
		c-26.4,3.7-73.4,5.1-121.9-2.9c3.7,42.6,7.3,109.4,6.6,155.7 M1241.9,287.9l14.7,14l-14,15.4 M1090.6,326.8
		c52.9-12.5,118.3-22.8,166-25 M1300.6,340c-18.4-16.9-113.8-2.9-202,16.2"/>
	<path d="M1147.9,60.2c-5.1,0-9.5,4.4-9.5,9.5c0,5.1,4.4,9.5,9.5,9.5c5.1,0,9.5-4.4,9.5-9.5C1157.4,64.6,1153,60.2,1147.9,60.2
		 M1090.6,336.4c5.1,0,9.5-4.4,9.5-9.5c0-5.1-4.4-9.5-9.5-9.5s-9.5,4.4-9.5,9.5C1081,332,1085.4,336.4,1090.6,336.4"/>
	<path class="st10" d="M1122.9,136.6c2.9,43.3,5.1,98.4,5.1,149.8c0,77.1-5.9,206.4-14.7,318.8 M1113.3,605.2
		c55.1-18.4,108.7-33.8,147.6-33.8c30.8,0,52.9,9.5,60.2,33.8 M1291.1,129.2c-52.9,5.9-104.3,8.1-168.2,7.3 M1300.6,340
		c-18.4-16.9-113.8-2.9-202,16.2 M1131,111.6c54.4,24.2,116.1,25.7,160.1,17.6"/>
	<path class="st11" d="M1285,606.7c-68.4-49.6-136.8-115-201.1-202.7"/>
	<path class="st3" d="M1081.8,401L1081.8,401 M1291.1,611.1L1291.1,611.1"/>
	<line class="st12" x1="1080.3" y1="413.7" x2="1081.4" y2="404.2"/>
	<line class="st13" x1="1088.4" y1="401" x2="1098.3" y2="401"/>
	<path class="st3" d="M1101.6,401L1101.6,401 M1081.8,401L1081.8,401 M1079.6,420.1L1079.6,420.1"/>
	<path class="st0" d="M1641.3,613.2v-40.4l-13.2,8.8 M1406.3,412.7h-23.5l12.5-14c5.1-5.9,9.5-11,9.5-16.9c0-6.6-4.4-9.5-10.3-9.5
		c-5.1,0-9.5,2.9-11,8.1 M1551.7,68.2V27.8l-13.2,8.8 M1617.8,468.5l16.2-14l14,14 M1490,499.3c10.3,70.5,38.9,113.8,76.4,113.8
		c38.2,0,67.6-71.2,67.6-158.6 M1570.8,326.7l15.4,13.2l-12.5,16.2 M1586.2,340c-51.4,6.6-124.1,11-165.3,9.5 M1474.6,233.5l14.7,14
		l14-14.7 M1479,64.5c41.9,25,79.3,34.5,118.3,29.4c-26.4,3.7-63.9,5.9-112.4-2.2c3.7,42.6,5.1,109.4,4.4,155.7"/>
	<path d="M1420.2,340c-5.1,0.7-9.5,5.1-8.8,10.3c0.7,5.1,5.1,9.5,10.3,8.8c5.1-0.7,9.5-5.1,8.8-10.3
		C1429.8,343.6,1425.4,339.2,1420.2,340 M1479,55c-5.1,0-9.5,4.4-9.5,9.5c0,5.1,4.4,9.5,9.5,9.5s9.5-4.4,9.5-9.5
		C1488.5,59.4,1484.1,55,1479,55"/>
	<path class="st10" d="M1440.8,314.2c52.9,0,110.2-4.4,157.9-12.5 M1451.8,131.4c3.7,69-1.5,213.7-1.5,279.8
		c0,128.5,21.3,194.6,72,194.6c52.1,0,85.2-91.1,80.8-199 M1595,124c-45.5,5.9-88.9,8.1-143.2,7.3 M1471.6,111.5
		c37.5,19.8,85.9,20.6,123.4,12.5"/>
	<path class="st14" d="M1575.7,398.5c-31.2-11-62.8-20.2-93.9-27.6"/>
	<path class="st3" d="M1478.2,370.1L1478.2,370.1 M1582.5,400.9L1582.5,400.9"/>
	<line class="st15" x1="1484.6" y1="380.8" x2="1479.8" y2="372.8"/>
	<line class="st16" x1="1483.6" y1="366.4" x2="1491.7" y2="360.9"/>
	<path class="st3" d="M1494.4,359.1L1494.4,359.1 M1478.2,370.1L1478.2,370.1 M1487.8,386.2L1487.8,386.2"/>
	<path class="st0" d="M1865.4,69.3V28.9l-13.2,8.8 M1869.8,250.7l17.6,10.3l-9.5,18.4 M1803.7,498.2
		c10.3,70.5,38.9,113.8,71.2,113.8c35.3,0,83-83.7,83-186.6C1958,333,1877.2,283,1742,283c58.8,0,100.6-5.1,145.4-22 M1786.8,235.3
		l14.7,14l14-14.7 M1773.6,66.4c36,17.6,87.4,33.1,144.7,27.9c-21.3,3.7-68.3,7.3-116.8-0.7c-1.5,42.6-0.7,109.4,0,155.7"/>
	<path d="M1773.6,56.8c-5.1,0-9.5,4.4-9.5,9.5c0,5.1,4.4,9.5,9.5,9.5s9.5-4.4,9.5-9.5C1783.2,61.2,1778.8,56.8,1773.6,56.8"/>
	<path class="st10" d="M1770,130.3c-3.7,87.4-5.1,149.8-5.1,232.1c0,94.7,2.9,242.4,71.2,242.4c44.1,0,88.9-87.4,88.9-175.5
		c0-76.4-59.5-112.4-170.4-116.1 M1919.8,122.9c-49.2,5.9-90.3,8.1-149.8,7.3 M1755.3,111.2c50.7,24.2,123.4,19.8,164.5,11.8
		 M1754.5,313.1c58,0,120.5,0,173.3-30.1"/>
	<path class="st0" d="M2281.4,584.8v-40.4l-13.2,8.8 M2239.6,231.5v-40.4l-13.2,8.8 M2251.3,410.7l16.2-14.7l14,13.2 M2072.8,272.6
		c15.4,33.1,75.7,36.7,148.4,30.8 M2220.5,303.5c-83,41.9-119,99.9-119,169.7c0,71.2,44.1,137.4,96.2,137.4
		c44.8,0,69.8-105,69.8-214.5 M2091.9,158l-19.8,3.7l-5.9-18.4 M2228.5,136.7c-13.2,36.7-22,66.1-24.2,117.5
		c0-39.7,8.8-87.4,8.8-122.7c0-31.6-11.8-54.4-38.9-54.4c-44.1,0-81.5,43.3-102.1,84.5"/>
	<path d="M2228.5,127.9c-5.1,0-9.5,4.4-9.5,9.5c0,5.1,4.4,9.5,9.5,9.5c5.1,0,9.5-4.4,9.5-9.5
		C2238.1,132.3,2233.7,127.9,2228.5,127.9"/>
	<path class="st10" d="M2173.5,328.4c0.7-80.8,4.4-130,4.4-165.3c0.7-30.8,0.7-49.9-8.8-49.9c-33.1,0-82.3,60.2-82.3,104.3
		c0,72.7,85.2,55.1,166.7,49.9 M2253.5,267.5c-138.1,28.6-182.9,135.9-182.9,201.2c0,73.4,33.8,134.4,85.9,134.4
		c49.2,0,84.5-110.2,77.9-297.5 M2190.3,138.2c-10.3,44.8-16.2,109.4-16.9,190.2"/>
	<path class="st0" d="M2561.6,227.1l14.7-16.2l15.4,11.8 M2433.8,402.6c-9.5,22-14,45.5-14,70.5c0,71.2,41.1,137.3,91.1,137.3
		c36,0,77.9-77.1,77.9-236.5c0-47-3.7-101.4-12.5-163.1"/>
	<path class="st10" d="M2484.5,328.4c0.7-80.8,4.4-130,4.4-165.3c0.7-30.8,0.7-49.9-8.8-49.9c-33.1,0-82.3,60.2-82.3,104.3
		c0,45.5,32.3,57.3,84.5,57.3c31.6,0,69.8-3.7,111.6-7.3 M2593.9,267.5C2432.3,296.1,2389,403.4,2389,468.7
		c0,73.4,30.8,134.4,83,134.4c47.7,0,85.9-88.1,85.9-231.4c0-63.2-6.6-136.6-22-218.1 M2501.3,138.2
		c-10.3,44.8-16.2,109.4-16.9,190.2"/>
	<path class="st0" d="M2705.1,317.4V277l-13.2,8.8 M2947.5,584.8v-40.4l-13.2,8.8 M2918.8,213.1v-40.4l-13.2,8.8 M2913.7,410.7
		l14.7-16.2l15.4,13.2 M2795.5,555.4c15.4,32.3,38.2,55.1,67.6,55.1c44.8,0,72.7-93.3,65.4-215.9 M2767.5,167.6l-19.8,3.7l-5.9-18.4
		 M2902,136.7c-13.2,36.7-22,59.5-25,94c0-30.1,9.5-63.9,9.5-99.2c0-29.4-11.8-46.3-38.2-46.3c-40.4,0-80.1,44.8-100.6,85.9
		 M2813.8,271.2c-41.1,26.4-74.9,56.6-108,96.2 M2705.1,490l16.9,11.8l11.8-16.2 M2751.4,282.9c-21.3,63.9-32.3,110.9-32.3,166
		c0,16.9,0.7,33.8,2.9,52.9 M2705.8,367.4c19.1-27.2,33.1-53.6,45.5-84.5"/>
	<path d="M2902,127.9c-5.1,0-9.5,4.4-9.5,9.5c0,5.1,4.4,9.5,9.5,9.5c5.1,0,9.5-4.4,9.5-9.5C2911.5,132.3,2907.1,127.9,2902,127.9"/>
	<path class="st10" d="M2777.1,292.4c-21.3,64.6-31.6,108-31.6,158.7c0,85.2,36.7,152.8,80.1,152.8c36.7,0,85.9-52.1,74.2-251.9
		 M2915.9,242.5c-77.9,33.1-144,87.4-186.6,135.9 M2846.9,301.3c0.7-63.2,8.1-121.9,9.5-155.7c0.7-20.6-0.7-32.3-7.3-32.3
		c-31.6,0-81.5,63.9-81.5,98.4c0,25.7,16.9,37.5,49.2,37.5c23.5,0,55.8-2.9,99.2-6.6 M2863.8,138.2c-10.3,44.8-16.9,77.9-16.9,163.1
		 M2729.4,378.4c20.6-25,35.3-47,47.7-85.9"/>
</g>
</svg>
