<?xml version="1.0" encoding="utf-8"?>
<!-- Generator: Adobe Illustrator 27.8.0, SVG Export Plug-In . SVG Version: 6.00 Build 0)  -->
<svg version="1.1" id="Calque_1" xmlns="http://www.w3.org/2000/svg" xmlns:xlink="http://www.w3.org/1999/xlink" x="0px" y="0px"
	 viewBox="0 0 667.5 700" style="enable-background:new 0 0 667.5 700;" xml:space="preserve">
<style type="text/css">
	.st0{opacity:0.2;}
	.st1{clip-path:url(#SVGID_00000019636289457083204700000014225403626724314290_);}
	.st2{clip-path:url(#SVGID_00000125561600571151325990000014340094056214568867_);}
	.st3{clip-path:url(#SVGID_00000116943344979611574930000012325776248071936433_);}
	.st4{clip-path:url(#SVGID_00000156573594806209563200000010070031650275193014_);}
	
		.st5{fill:none;stroke:#000000;stroke-width:2.898;stroke-linecap:round;stroke-linejoin:round;stroke-miterlimit:10;stroke-dasharray:0,8.704;}
	.st6{fill:none;stroke:#000000;stroke-width:2.898;stroke-linecap:round;stroke-linejoin:round;stroke-miterlimit:10;}
	.st7{fill:none;stroke:#FFFFFF;stroke-width:1.4;stroke-linecap:round;stroke-miterlimit:10;}
</style>
<path d="M397.7,277.2c2-0.4,2-0.4,2.4-3.2c0-0.4,0.8,0,1.2-0.4c0-0.8,0.8-0.4,1.2-0.8c0.4,0,0.8-0.4,1.2-0.8c0-0.8,0-2,1.2-2.4
	c0.8,0.4,2,1.6,3.2,0c0.4,0.4,0.8,0.8,0.8,1.2c-0.4,0.4,0.4,1.2,0,1.6c0,0,0.4,0.4,0.4,0.8h-1.6c-0.8,0-1.2,0.4-0.8,0.8
	c0,1.2-0.4,2.4-0.4,3.6c-0.4,0.4-0.4,0.4-0.8,0.8c-0.4-0.4-0.8-0.4-1.2-0.8c-0.8,0.8-1.2,1.2-0.4,1.6c0.8,0.8,0,1.6,0,2
	c-0.4,0.4-0.8,0.8-0.8,1.6c-0.4,0.4-0.4,0.8,0,1.2c0.4,0.8,0,1.2-1.2,1.2c-0.8,0-1.6,0.4-2,1.2l-0.4,0.4v0.8c0.8-0.4,1.2-0.4,2-0.8
	c0,0.4,0.4,0.8,0.8,1.2c0,0-0.4,0.4-0.4,0.8h-1.2c-1.2,1.2-2.4,2.4-3.2,4h-0.4h-0.8v-0.4c0-1.2-0.4-2-0.8-3.2s-0.4-2.4,0.4-3.6
	c0.4-0.4,0.8-1.2,0.8-1.6c-0.4-1.2,0-1.6,0.4-2.8C397.7,280,398.1,278.8,397.7,277.2 M464.4,444.7c1.2-1.2,2.4-2.4,4-3.2
	c0.8-0.4,1.2-0.4,1.6-0.4c1.6-2,3.2-2,5.6-1.6c0.4,0.8,0,1.6-0.4,2.4c-0.4,0-0.4,0.4-0.4,0.8c-0.8,0.8-0.4,1.6,0.4,2.4
	c-0.8,1.6-1.6,2.8-2,4.8c0,0.8,0,1.6-0.4,2.4c-0.4,0.4-0.8,1.2-0.4,1.6c0,0.8-0.8,1.2-0.8,1.6v1.2c-0.4,0.4-1.2,1.2-1.6,2
	c-0.8,0.4-1.2,0.4-1.6,0s-0.8-0.8-1.2-0.8c-0.4,0-0.8-0.4-1.2,0c-0.4-0.8-1.2-0.8-2-0.8c-1.2,0-2.4,0-3.2-0.8
	c-0.4,0-0.8-0.4-1.6-0.8H458c-0.8,0.4-1.6,0-2.8,0h-0.4c-0.4-0.8-1.6-0.8-2.4-0.8c-0.8,0.4-1.2-0.4-1.6-0.8h-1.6
	c-0.4-0.4-0.4-0.4-1.6-1.2c0.4-0.8,0.8-1.2,1.6-1.2c2-1.2,4.4-1.6,6-3.2c0.4-0.4,1.2-0.4,2-0.8c0.8,0,2-0.4,2.4-1.2
	c0.4-0.4,0.8-0.4,0.8-0.4C461.6,445.1,462.8,444.3,464.4,444.7 M137.1,159.7c0.4,0,0.8-0.4,1.2-0.4c-0.4-1.2,0-2.4-0.4-3.2
	c-0.4,0,0-0.4,0-0.8c0.4-1.2,0.4-2.4-0.4-3.2c-0.4-0.8-0.8-1.6-1.2-2.4h-0.8v-1.2v-0.4c1.2-0.8,0.8-2,0.4-2.8v-1.6
	c0.4-0.8,0.4-1.6,0-2.4c-0.4-0.8-0.8-1.2-0.8-2c0-0.4,0.4-0.8,0.4-0.8c1.2-0.4,1.2-0.4,0.8-1.6v-1.6c0-1.6,0-3.2,0.8-4.4
	c0.4-0.4,0.4-1.2,0-1.6c-0.8-0.8-0.4-1.6-0.4-2.4v-2.8c0-0.4,0-1.2-0.4-1.6c-0.8-0.8-0.4-1.6,0-2c0.8-1.2,1.2-2.4,1.6-4
	c0,0-0.4,0-0.8-0.4c-0.8-0.8-0.8-0.8,0-2c0-0.4,0.4-0.8,0.4-1.6c-0.4-0.8-0.4-2-0.4-2.8c0.8,0,1.6,0.4,2,0.4c1.2-0.8,2-1.6,3.2-2.4
	c0.4-0.4,1.6,0.4,2-0.4c0.8,0,2,0,2.8,0.8c1.2,1.2,2.8,1.6,4,2.4c0.4,0.4,0.8,0.8,1.2,0.8c0.8,0.8,1.6,1.2,2.4,0.8
	c1.2,0,2,0.4,2.8,1.2c1.2,0.8,2,2,3.2,2.8c0.8,0.4,1.2,1.2,1.6,2h3.6c0.4,0.4,0.8,0.8,1.2,1.6c0.4,0.8,0.8,0.8,2,0.8
	c0.4-0.4,0.8-0.4,1.2-0.4c0.4,1.2,1.2,1.6,2,2.4c0.8,0,1.6,0.8,2.4,1.2c0.8,0.8,1.6,0.8,2.4,0.4c0.4,0.4,0.8,0.8,0.8,1.6
	c0,0.8,0,1.6,0.8,1.6c1.2,0.8,2,2,2.4,3.2c0.4,0.8,1.2,1.6,2,2.4c0,0.8-0.8,2-0.4,3.2c0.4,0.8,0,2,0.4,3.2c-0.8-0.8-0.8-0.8-0.4-1.2
	c0-0.4-0.4-0.4-0.4-0.4c0-0.4-0.4-0.4-0.4-0.4c-0.4,0.4-0.8,0-1.2,0.4c-0.8,0.4-2,0.8-2.4,1.6c0,0.8,0,1.6-0.4,2.4
	c-0.4,1.2-0.8,2.4-2,3.2v1.6c-0.8,0.4-1.6,0-2.4,0.4c-1.6,0.8-3.2,1.6-4,2.8v1.6c0.4,0.4,0.8,0.4,1.2,1.2c-0.4,0-0.8,0.4-1.2,0.4
	c-0.4,0.4-0.8,0-0.8-0.4c-0.4-0.4-0.4-0.8-0.4-1.2l-0.4-0.4h-2.4c0.4,1.2-0.4,2-0.8,2.8h-2c-0.8,0.8-1.2,1.6-2,2.4
	c-0.8-0.4-2-0.8-2.8,0c0,0.8,0.4,1.2,0.8,1.6c-0.4,0.8-1.2,0.8-1.2,1.2c-0.4,0.8-1.2,0.4-1.6,0.8c-0.8,0-0.8,0-1.2,0.8
	c0,2-0.8,2.8-2.4,3.6h-1.2c-0.4-0.4-0.8-0.4-1.2-0.8c-1.2,0-1.6,1.2-2,2c-1.6-0.8-1.6-0.8-2.8,0.8c-0.8,0.8-1.2,0.8-2.4,0.4
	c-1.2,0.8-0.8,2.8-2.4,3.2c-0.8-1.2-1.6-2.8-1.2-4.8c-0.4,0-0.8-0.4-0.8-0.4c-0.8-0.4-0.8-1.2-0.4-2
	C138.3,161.7,138.3,160.9,137.1,159.7 M205.4,154.5c0.4-0.4,1.2-0.8,1.2-0.8c0.8-2,1.2-2.4,3.2-3.2c1.2-0.4,2-1.2,1.6-2.8
	c0-0.4,0-1.2,0.4-1.6c0.4-0.4,0.4-0.8,0.4-1.6c0-0.4,0-0.8,0.4-1.2s0.8-1.2,0-2V141c0.8-0.8,0.4-1.6,0.4-2.4c1.2,0,0.8,0.8,1.2,1.2
	c0,0.4-0.4,0.8-0.8,1.2c0,0.4,0,0.8,0.4,1.2c0.8,1.2,1.2,2.4,0.4,3.6v1.2c0.4,0.4,0.4,1.2,0.4,1.6c-0.8,1.2-0.4,2-0.4,3.2
	c0,0.8,0.4,1.6-0.4,2.4v0.8c0.8,0.8,0.4,2,0.4,2.8s-0.8,1.6-0.8,2.4c-1.2,0.4-0.4,0.8-0.4,1.6s0.4,2-0.4,3.2c-0.4,0-0.4,0.4-0.4,0.8
	v2.8c0,0.8,0,1.2-1.2,1.2c0,1.2,0,1.6,0.8,2.4c0.4,0.8,0.8,1.6,0.4,2.4c-0.4,0.4,0,1.6-0.8,2c-0.4,0.8,0,1.6-0.4,2.4
	c-0.4,0,0,0.4,0,0.8c0.4,1.2,0.4,2-0.4,3.2c-0.4,0.4-0.4,0.8-0.4,1.2c-0.4,1.6-0.8,2.8-0.4,4c0.4,0.8,0,2,0.4,2.8
	c-0.4,0.4-0.8,0.8-1.2,1.2v2.4c0,1.2-0.4,2.8-0.4,4.4c0,0.4-0.8,0.8-1.2,0.8c0,0.8,0,1.6,0.4,2.4c0.4,0.4,0.4,1.6,0,2.4
	c-0.8,0.8-0.4,1.6,0,2.4c0.8,0.8,0.8,0.8,0,2c-0.4,0.4-0.4,0.4-0.8,0.8v0.8c0.8,0.8,0,1.6-0.4,2.4c-0.8,1.2-2,2.4-2.8,3.6
	c-0.4-0.4-0.8-1.2-1.2-1.2c-1.2-0.4-2-0.8-3.2-0.4c-1.2,0-1.2,0-2-0.8c0-0.4,0-1.2,0.4-2c0.4-0.4,0-0.8,0-1.2c0-0.8-0.4-0.8-1.2-0.8
	c-0.4,0.4-0.8,0-1.6-0.4c-0.8,0.8-1.2,1.6-2,2c-1.2-0.8-2-2-3.6-2.4c0-1.2,0.4-2,0.4-3.2c-0.8,0-1.2-0.4-2,0c-0.8,0.8-1.6,0-2-0.4
	c-0.8,0-1.2-0.4-1.6-0.4c-0.8,0-1.2,0-1.2,1.2v0.8c-0.4,0.4-0.8,0.4-1.2,0.8v1.2c-0.4-0.8-1.2-1.2-1.6-2c0.8-0.4,1.6-1.2,1.2-2.4
	c-1.2-0.4-2.4-1.2-4-0.8c-0.4-0.4-0.8-0.8-1.2-1.6c-1.2,0.4-2.4-0.4-4,0.4c0,0.4-0.8,0-0.8-0.4c-0.4-0.4-0.4-0.8-0.8-1.2
	c-0.4,0.4-0.8,0.4-1.6,0.4c0,0-0.4,0-0.4,0.4c-0.8,0.8-2,0.8-2.8,2c0,0-0.4,0.4-0.8,0.4c-1.2,0.8-2,0.4-2.4-1.2V203
	c0-0.4,0-0.4-0.4-0.4h-2c0,0.8-0.4,1.2-0.8,0.8c-0.4,0-0.8-0.4-0.8-0.4c-0.8,0-1.6,0-2,0.8c-1.2,0-2.4,0.4-3.2-0.4
	c0-0.8-0.4-2,0-2.8c0-0.8-0.4-1.2-0.8-1.6c0.4-0.8,0.8-1.2,1.2-2c0.4,0,0.8,0.4,1.2,0.4c0.8,0,1.2,0,1.6,0.4
	c0.8,0.8,1.6,0.4,2.4-0.4c0.4-0.4,0.4-0.4,0.8-0.4c0.4-0.8,0.4-1.2-0.4-2c-1.6-0.8-1.6-0.8-1.6-2.8c0.4,0.4,0.8,0.4,1.2,0.4
	c0.8,0.4,1.6,0,1.6-0.8c-0.4-0.8,0.4-1.2,0.8-2c0.4-0.4,1.2-0.8,0.8-1.6c1.2,0,1.6,0,2.4-0.8c0.8-1.2,2-1.6,3.6-1.6
	c0.8-0.8,1.6-1.2,2-2c0-0.4,0.8-0.8,1.2-1.2s0.8-0.4,1.6-0.4c0,0,0.4-0.4,0.8-0.4c0.8-0.8,1.6-2,2.4-2.8h2c1.2-1.2,2.4-2.4,4-3.2
	c1.2-0.4,1.2-0.4,1.6-1.6c0-0.8,0.4-1.2,1.2-0.8c1.2,0.4,2,0,2-0.8c0.4-0.8,0.8-1.2,1.6-2c0.8-0.4,1.6-1.2,2-2.4l0.4-0.4
	c0.8,0,1.2-0.4,2,0c0.8,0,1.6-0.8,2.8-0.8c0.4-0.4,0.4-0.8,0.4-1.2c0.4-1.2,1.2-2,2-3.2c0-0.4,0.4-0.8,0.8-0.8
	c0.8-0.8,1.6-1.6,2.4-2.4c0.4,0,0.8-0.4,1.2-0.4c0.4-0.4,0.8-0.8,0.8-1.6c2,0,2,0,2-2L205.4,154.5L205.4,154.5z M159.5,526.6
	c0,0.4,0,0.8,0.4,1.2c0,0,0,0.4,0.4,0.4c-0.4,0.4-0.8,0.8-1.2,1.2v3.6c0,0.8-0.4,1.6-0.8,2c-0.8,0.8-1.2,1.6-1.2,2.4
	c0.4,2-0.8,3.6-1.6,5.2c-0.4,0.8-0.8,1.6-0.8,2c-0.4,0.8-0.4,1.6-0.8,2c0,0.4-0.4,0.8,0,1.2s0,1.2,0,2c0,0-0.4,0-0.8,0.4
	c-0.4,0.4-0.8,1.2-1.2,1.6c-0.8,0.4-0.4,0.8-0.4,1.6c-0.4,0.8-0.4,2-1.2,2.4c-0.4,0.4-0.8,0.8-1.2,1.2c0,0.8,0,1.2,0.4,2
	c0,0.8,0,1.6-0.8,2.4c0,0.4-0.4,0.4-0.8,0.8v3.2c-0.4,0-1.6,0-1.6,1.2c0,0,0,0.4-0.4,0.4c-0.8,0.8-1.2,1.6-1.6,2.8
	c0,1.2-0.8,2-1.6,3.2c0,0.4-1.6,3.6-1.6,4c0,0.8,0,1.2-0.4,1.6c-0.8,0.4-0.8,1.2-0.8,1.6c-0.4,0.8-0.8,1.2-1.2,1.6
	c-1.2,2-1.2,2-1.2,4.4c0,0.4-1.2,0.8-0.8,2c-0.8,0.4-1.2,0.8-2.4,0.8c-1.2,1.6-1.6,3.6-1.2,6c-2.4,0-3.6,1.6-4.8,3.2
	c-0.8-0.8-1.6-1.2-1.6-2.4c0-0.4-0.4-0.8-0.4-0.8c-0.8-1.2-1.6-2.4-0.4-3.2c0.4-0.4,0.4-0.8,0.4-0.8v-3.2c0-0.4-0.4-0.8-0.4-1.2
	c-0.4-0.8-0.8-1.6,0-2.4v-0.4c-0.4-0.8-0.4-2,0.4-2.8c0,0,0-0.4-0.4-0.8c-0.4-0.8-0.4-1.6-0.4-2.4v-1.2c0-1.2,0-2.4,0.4-3.6
	c0.4-1.2,0.4-2.4,0.4-4c0-1.2-0.4-2.8,0.4-4c0-0.8,0-1.6-0.4-2.4v-0.4c1.2-1.6,1.6-3.2,0.8-5.2c0.8-1.6,0-3.2,0.4-4.8
	c0-1.2,0-2-0.8-2.8v-1.2c0.8-0.4,0.8-1.2,0.8-2v-3.6c0-1.2,0-2-0.8-2.8c-0.4-0.4,0-0.8,0-1.2c0.4-0.4,0.4-0.8,0.8-1.6
	c0-0.8,0-1.6-0.8-2.4c-0.4-0.4-0.4-1.2,0.4-1.6c0.4,0,0.4-0.4,0.4-0.8c0-2,0-3.6,0.4-5.6v-0.4c0.4-0.8,0.8-1.2,0.4-1.6
	c-0.4-0.4,0-0.8-0.4-1.6c-0.4-1.6-0.4-2,0.4-4c0-0.4,0-0.8-0.4-1.2c0.4-0.8,0.8-1.6,0.8-2.4c0.4-0.8,0-1.6,0.8-2c0-0.8,0.4-1.2,0-2
	c-0.8-0.8-1.2-2-0.4-3.2c0.4,0,0.4,0,0-0.4c0-1.6,0.4-3.2,1.2-4.8v-0.8c-0.4-0.8-0.4-1.6,0-2.4c0.4-0.4,0.8-0.8,0.8-1.6
	c0.4-0.4,0.8-0.8,0-1.6c-0.4-0.8,0-2,0.8-2.4c0.8-1.2,1.2-2.8,1.2-4.4v-2.4c0.4-0.8,0.8-1.2,0.8-2c0-0.4,0.4-0.8,0.4-1.2
	c0-0.8,0-1.6,0.8-2c1.2-1.6,2-3.2,1.2-5.2c-0.4-0.4-0.4-1.2,0-1.6c0.4-1.2,0-2.4,0.4-4c0,0,0.4-0.4,0.8-0.8c1.2-0.8,1.2-1.6,1.2-2.8
	c0-1.2,0-2.8,1.2-3.6v-0.4c0-1.6,0.8-2.8,2-3.6v-2c0-0.8,0.4-1.2,0.4-2c0,0,0-0.4,0.4-0.4c1.2,0.4,1.2-0.8,1.6-1.6
	c0-1.2,0-2.8,0.4-4.4c1.6-1.6,1.6-1.6,1.6-5.2c1.2-0.8,2-1.6,2.8-2.4V439c0-0.4,0-1.2,0.8-2c0.4-0.4,0.4-1.2,0.4-2
	c0-0.4,0-0.8,0.4-1.2c0-0.8,0.8-1.2,0.8-2.4c0.4-0.4,1.2-0.8,2-1.2c-0.4-0.8,0-2,0.4-2.8c0.8-0.8,1.2-2,0.8-3.2V423l1.2-1.2V419
	c0.4-0.4,1.2-0.8,1.6-1.2c0.8-0.8,0.8-1.6,0.8-2.8c0-1.2,0.4-2,1.2-2.8c1.2-0.4,2-1.2,2.4-2.4c0-0.4,0.4-0.8,0-1.2
	c-0.4,0-0.4-0.8,0-0.8c0.4-0.8,0.4-1.2,0.8-2c0-0.4,0.8-0.8,1.2-1.2c1.2-0.8,2-2,2-4c0-0.8,0-1.6,0.4-2.8c0-0.4,0.4-0.8,0.8-1.2
	c0.4-0.8,0.4-2,0.4-2.8h1.6l1.2-1.2v-3.2h1.2v-2c0.4-0.8,1.6-1.2,1.2-2.4c0,0,0.4-0.4,0.8-0.8c1.2-1.2,2.4-2.8,3.2-4
	c0.4,0,0.4,0,0.4-0.4c1.2-1.2,1.2-1.6,0-2.8c1.2-1.2,2-2.4,2.8-3.6c0-0.4,0-0.8-0.4-1.6c0.8-0.8,1.6-1.6,2.4-2.4
	c-0.4-0.4-0.8-0.8-1.2-0.8c0-0.4,0.4-0.4,0.4-0.4l0.8-0.8c0.4-0.4,1.2-0.8,1.2-1.2c0-1.2,0.4-1.6,1.2-2c1.2-0.4,1.2-1.6,1.6-2.4
	c0-0.4-0.4-0.8,0-1.2c0-0.4,0.4-1.2,0.8-1.2c1.2-0.4,1.6-1.2,2.8-1.2c0.4,0,0.8-0.4,1.6-0.8c0,0.8,0,1.6-0.4,2.4
	c-0.4,0.4-0.8,0.8,0,1.2c0,1.2,0.4,2.4,0.4,3.6v3.2c0,0.8,0,1.6-0.4,2.4c-0.8,0.8-0.4,2-1.2,3.2c0,0,0.4,0.4,0.4,0.8v2.8
	c0,1.2,0.4,2-0.4,2.8v0.8c0.8,0.8,0.4,1.6,0.4,2.4s0,1.6-0.8,2c-0.4,1.6-1.2,3.2-0.4,5.2v0.4c-0.8,1.6,0,3.2-0.4,4.8v0.8
	c-0.4,0.4-1.2,2.4-1.2,2.8v2c0.4,1.6,0,2.8-0.8,4c-0.4,0.4-0.4,1.2,0,1.6c0.4,1.2,0,1.2,0,2.8c-0.4,0.8,0,1.6,0,2.4
	c-0.4,0.4-0.8,0.8-1.2,1.2v0.4v5.6v0.8c-1.6,1.2-0.8,2.4-0.8,4c0,0.4,0.4,1.2,0.4,1.6c-0.4,0.4-0.8,0.8-0.8,0.8v2.8
	c-0.4,0.4-0.4,0.4-0.8,0.8c0,2-0.4,3.6-0.4,5.6l-1.2,1.2v0.4v4.8c0,0.8,0,1.2,0.4,1.6v0.8c-0.4,1.2-0.4,2.4-0.8,3.2
	c-0.4,0.4-0.4,0.8-0.4,1.6c-0.4,0.4-0.8,0.8-1.6,1.2v3.6c0,0.8,0,1.6-0.4,2.4c-0.4,0.4-0.4,1.6-0.4,2.4c-0.4,0.8,0,1.6,0,2.8
	c-0.4,0.8,0,1.2-0.8,1.6v0.8c0,0.8-0.4,1.2-0.8,2c-0.8,0.8-1.2,1.6-0.8,2.8c0.4,0.8,0.4,2,0.4,2.8c-0.8,1.6-0.4,3.2-0.4,4.8
	c0,0.4,0,0.4-0.4,0.8c-0.8,0.8-0.8,1.6-0.8,2.4c0.4,1.6-0.8,3.2-2,4c0.4,1.6,0,2.8-0.8,4c-0.4,0.8-0.8,1.6-0.8,2.4s0,1.2-0.4,2
	s-0.4,2-0.4,2.8c-0.4,1.2-0.4,2-0.8,3.2c0,1.6-1.2,2.8-1.6,4.4c0,0-0.8,0.4,0,0.8v2.8c-0.4,1.2-1.2,2-2,2.8c0,0.4-0.4,0.4-0.8,0.8
	v4.4c0.8,0.4,0,1.2,0,1.6c-0.4,0.4-0.8,0.4-1.6,0.8v0.4c0.4,1.2,0,2.4-0.8,3.2c-0.4,0.8-0.4,1.2,0,2.4c0.4,0.4,0,1.2-0.8,2
	C161.1,525,160.3,525.8,159.5,526.6 M135.5,243.7c0.4-0.4,0.8-0.8,0.8-1.6v-6.8c0-0.4,0-0.8-0.4-0.8c-0.4-0.8-0.4-1.2,0-1.6
	c0.4,0,0-0.8,0-0.8c0.8-1.2,0.8-1.2,0.8-2.4v-5.2c1.6-1.6,3.2-2.4,5.2-1.2c1.6-0.8,2.8-0.4,4,0c0.8-0.4,1.6-0.8,2-1.2
	c0.8,0.8,1.6,0.8,2.4,0.8c1.2,0,2.4-0.4,3.2,0.4c0,0.4,0.4,0.4,0.4,0.4c0.4-0.4,0.8-0.4,1.2-0.4c0.8,0,0.8,0.4,1.6,0.8
	c0.8,0.4,2,0.4,2.8,0c0,0.4,0.4,0.4,0.4,0.4c0.8,1.6,2.8,2,4,2.8h0.8c0.8-0.8,1.2,0,1.6,0c1.2,1.2,2.8,1.2,3.6,2.8
	c2,0,2.4,0.4,2.4,2h2c0,0,0,0.4,0.4,0.8c0.4,0.4,0.4,0.8,1.2,0.8s1.2,0,1.6,1.2c0,0.4,0.8,1.2,1.2,1.2c0.8,0.4,0.8,0.8,1.2,1.2
	c0.4,0.8,0.4,1.6,0.4,2.4s0,1.6,0.8,2.4v0.4c-0.4,0.8-0.4,1.2,0.4,2h-2c-0.4,0.8-0.4,1.2,0,2c0,0,0.8,0.4,0.4,0.8c0,0,0,0.4,0.4,0.8
	c0,0,0,0.4,0.4,1.2c0.4-0.4,0.8-0.4,1.6-0.4c0,0.4,0,0.8-0.4,1.2c-0.4,0.8-0.4,1.2,0,2c1.2,1.2,1.2,1.6-0.4,2.4v2.4
	c0.8,0,1.2,0.4,2,0.4c0.4,0,1.2-0.4,1.6,0.8c-1.2,0.8-1.6,2.4-3.2,3.6c0,0.4-0.4,1.2,0.8,1.6c0.4,0,0.8,0.8,0.8,1.6v1.2
	c0,0.4,0.4,0.4,0.8,0.4v0.8c0.4,0.4,0.8,0.8-0.4,0.8c-0.4,0.4-0.8,0.8-0.4,1.2c0.8,0.8,0,1.2,0,1.6s-0.4,0.4-0.4,0.4
	c0,1.2,1.6,0.8,1.2,2c-2,0.4-2,0.4-2.4,2c0.8,0,1.2,0.4,2,0.4v1.6c-0.8,0-1.6,0.4-2.4,0.8c0,0,0,0.4,0.4,0.8v1.2
	c0.8-0.4,1.6-0.4,2.4-0.4v1.6c-0.8,0.8-1.2,1.2-1.6,2c0,0.4,0.4,0.8,0.8,1.2h-0.4c-0.8,1.2-0.8,1.6,0.4,2.4c0,0.4,0.4,0.4,0.8,0.4
	v1.2c-1.2-0.4-2.4,0-4,0v2.4c0.4,0.4,1.2,1.2,1.6,2c0,0.4-0.4,0.8-0.4,1.2v5.2c0,0.8,0,1.2-0.4,1.6s0,1.2-0.4,1.6
	c-0.8,0.4,0,1.2-0.8,1.6s0,1.2-0.4,2c-0.4,0.4-0.4,0.8-0.4,1.6c-0.4,0-0.4,0-1.2,0.4c0.4,0,0.4,0.4,0.4,0.8
	c-0.4,0.4-0.8,0.8-1.6,1.6c-0.4,0.4,0,0.8-0.4,1.6c-0.4,0-0.4,0.4-0.4,0.8v2.4h1.6c-0.4,1.2-1.6,1.2-2.4,2c0,0.4-0.4,1.2,0.4,2
	c0.4,0.8-0.4,1.6-0.8,2c-0.4,0-0.4,0-0.8,0.4c0.4,0.4,0.4,0.8,0.8,1.2c0.8,1.2,0.4,1.6-0.8,2.4v1.6h-1.2c0,0.8,0,1.2,0.4,2
	c-0.4,0-1.2-0.4-1.6,0c-0.4,0.4-0.4,0.8-1.2,0.8c-0.8,0.4,0.4,1.2,0,1.6v2.4c-0.4,0-0.8,0-1.2,0.4c-0.4,0.8-0.4,1.6,0,2.4
	c-0.4,0-0.8,0-0.8,0.8c0,1.6-0.8,2.8-1.2,4c0,0.8,0,1.6-0.8,2c-0.4,0.4-1.2,1.2-1.6,1.6c0.4,1.2,0.4,2,0.8,2.8
	c-0.4,0.4-1.2,0.8-1.2,1.6c-0.8,0.4-1.6,0.4-2,0.8c-0.4,0.8-1.2,0.4-1.6,0.4c-0.8,0-1.2,0.4-1.6,0.8c0.8,0.4,1.2,1.2,1.6,1.6
	c0.4,0,0.4,0.8,0,0.8c-0.8,1.2-0.8,2.4-0.4,3.6c0.4,0,0.4,0.8,0.4,0.8c-1.2,0.8-1.2,2-2.8,2v2.4c-0.4,0.4-0.8,0.8-1.6,1.2v2.4
	c0,1.2,0,1.2-0.8,2.4c0.4,0.4,1.2,0.8,0.8,2h-1.6c-0.8,0-1.2,0.4-0.8,1.2v0.4c0.4,2,0,2.4-1.6,3.2c-0.4,0-0.4,0.4-0.4,0.4
	c-0.4,0-0.4,0.4-0.4,0.4l-1.2,1.2c0,0.8-0.4,1.6-0.4,2c-0.4,0.8-0.8,1.6-1.2,2.4s-0.8,1.6-0.8,2.8c0,0.8,0,2-0.4,2.8
	c0,0.8-0.4,1.2-0.8,1.6c-0.4,0.4-0.8,0.4-1.2,0.8v1.6c-0.4,0,0,0.4-0.4,0.8c-0.8,1.2-0.8,2.4-1.6,3.6l-0.8,3.2c0,1.2-0.4,2-0.8,2.8
	c-0.4,0.8-0.8,2-2,2.4c-0.8,0.4-0.8,1.6-1.6,2.4c0.4,1.2,1.6,1.6,1.2,2.8c-0.8,0.8-1.6,1.2-2.4,1.6v1.6c-0.4,0.8-1.2,1.2-2,2v2
	c-0.8,0.4-1.2,0.8-1.6,1.2c-0.4,0.4-0.4,0.8,0,1.2c0,0.4,0.4,0.8,0.8,1.6c-1.6,1.6-2.8,2.8-4,2.8l-0.4-0.4c0.8-1.2,0.4-2.4,0.4-3.6
	c0-0.4-0.4-1.2-0.4-2c-0.4-0.4,0.4-1.2,0-1.6v-0.4c-0.4-0.8,0-1.6-0.4-2c0-0.8,0.8-1.6,0.8-2c0-0.8-0.4-1.6,0-2
	c0.4-0.8,0-1.2-0.4-1.6c-0.4-1.2-0.4-2,0.8-2.8c-0.8-0.8-1.2-1.6-1.2-2.4c0.4-0.8,0-1.2,0-1.6c0.4-1.2,0-2,0.4-3.2
	c-0.4-0.8,0-2-0.4-2.8v-3.2c0.4-0.8,0-1.6,0.4-2s0.4-0.8,0-0.8c-0.8-2.8,0-5.2,0-8c-0.4-0.8,0.4-1.6,0-2c-0.8-1.6,0-2.8-0.4-4.4
	c-0.4-0.4,0-1.2,0-2c0.4-0.4,0-1.2,0.8-1.6v-0.4c0.4-0.4-0.4-0.8,0-1.2c0.4-0.4,0.4-0.8,0.4-1.2c0-0.4,0.4-0.8,0-0.8
	c-0.4-0.8-0.4-1.6-0.4-2c0.4-0.8,0-1.6,0.4-2.4v-0.4c-0.8-2,0-4-0.4-6c0-1.2,0.8-2,0.4-2.8c-0.4-1.2-0.4-2-0.4-2.8v-2.4
	c0-0.8-0.4-2,0.4-2.8c0.4,0,0-0.4,0-0.8s0.4-1.2,0-1.6s0-1.2,0-1.6v-2v-2c0.4-0.8,0-1.6,0-2.4v-2.4c0-0.4,0-0.8,0.4-1.2
	c0.8-0.8,0.8-1.2,0.8-2s0.4-1.6,0.4-2c-0.4-0.8-0.4-1.6-0.4-2c0-0.8,0-1.6,0.8-2.4c-0.8-1.2,0-2.4-0.8-3.6v-3.2
	c0-0.4-0.4-0.8-0.8-1.2c0.4-0.4,0.8-0.8,0.8-1.6c0.4-0.4,1.2-1.2,1.2-2c0-0.4-0.4-1.2-0.4-2v-3.2c0-1.2,0-2,0.8-3.2
	c0-0.8,0-1.6,0.4-2.4V300c-0.4,0-0.8-0.4-0.8-1.2c0-0.8-0.4-2,0.4-3.2c0.8-1.2,0.4-2.8,0.4-4c0-0.4-0.4-0.4-0.8-0.8v-0.4v-2.8
	c0-0.8,0.8-1.6,0.8-2c0.4-1.2,0.4-2,0.4-2.8c-0.4-0.8-0.4-1.6-0.4-2.4c0-0.4,0-0.8-0.4-1.6v-0.4c0-0.4,0.4-1.2,0.4-1.6v-2
	c0.4-0.8,0.4-2,0-3.2v-0.4c0.8-1.2,0-2.8,0.8-4c0.4-0.4,0.4-0.8,0-1.2c0-0.4-0.4-0.8,0-1.2c0.4-0.4,0.4-1.2,0.4-2
	c0-0.4,0-0.8-0.4-1.2c-0.8-0.4-0.4-1.2,0-1.6c0-0.4,0.4-0.8,0.4-1.2v-3.6c0-0.4-0.4-1.2-0.4-1.2c0.4-1.6,0.4-2.8,0.4-4
	c0-0.4,0-0.8,0.4-0.8c0.8-1.2,0.8-2.4,0.4-3.2C135.1,245.3,135.5,244.5,135.5,243.7 M419.2,220.5c-2,1.6-2.8,3.2-2.8,5.6
	c-0.8,0.8-1.6,1.6-2,2.4v2.4h-2c-0.8,0.4-1.2,0.8-2,1.2c-0.4,0.4-0.8,1.2-1.2,1.6c-0.4,0.8-0.8,1.2-1.2,1.6c-0.8,0-1.2,0.4-2,0
	c-0.4-0.4-1.2-0.8-1.6-1.2c-0.8,0-0.8-0.4-0.8-1.2c0.4-0.4,0.8-0.8,1.6-1.6c0-0.8-0.8-1.6-1.6-2.4c0-0.4-0.4-1.2,0.4-1.6v-0.8
	c-0.4-0.8-0.4-2-0.4-3.2c-0.4-0.4-0.4-0.4,0-0.8c0-0.4,0.4-1.2,0.4-1.6c0.4-0.8,1.2-1.6,0.4-2.8c0-0.8-0.4-2,0.4-2.8v-0.8
	c-0.8-1.2-0.4-2.4-0.4-3.6c-0.4-0.4-0.8-0.4-1.2-0.8v-0.8c0.4-0.4,0.4-0.8,0.4-1.2c0.4-0.4,0-1.2,0-1.2c-0.8-1.2-0.4-2,0-2.8
	s0.4-1.6-0.4-2.4c0-0.4-0.4-0.8-0.8-1.2c0-0.8,0.8-1.2,0.4-1.6c-0.8-0.8-0.4-1.2,0-1.6c0.8-0.8,0.4-0.8,0-1.6
	c-0.8-0.4-1.2-0.4-2-0.8v-0.8l0.4-0.4c0.4,0.4,0.8,0.4,1.6,0.8v-1.6c-0.4-0.4-0.8-1.2-1.6-1.6v-0.8c0-0.8-0.4-1.6-1.2-2
	c-0.8-0.4-1.6-0.8-2-1.6s-1.2-0.8-1.6-1.2s-0.4-0.4-0.8-0.4c-0.4,1.2-1.2-0.4-1.6,0c-1.2-0.4-2-0.8-3.2-1.2
	c-0.8-0.4-1.6-0.8-2.4-0.4c-0.4,0.4-0.8,0.8-1.6,1.6c-0.4,0.4-0.8,0.4-1.2,0c-0.8-0.4-1.2-0.8-2-1.2h-0.8c-0.4,0-0.8-0.4-1.2-1.2
	c-0.8,0.4-1.6,0.4-2.4,0.8c0,0.4-0.4,1.2-0.4,2c-0.8,0-1.6,0-2,0.8s-1.2,0.4-1.6,0.4c-0.8,0.8-0.4,1.6-0.8,2.8
	c-0.4,0.4-1.2,1.2-1.2,2.4c0.4,0.4-0.4,0.8-0.8,1.6c-0.8,0.4-0.8,1.2-0.8,2v6.8c0,0.4-0.4,1.2,0.4,1.2c-0.4,1.2,0,1.6,0,2.8
	c-0.4,1.2,0,2.4,0,3.6c0.4,0.4,0.8,0.8,1.6,1.6c0,1.2,0,2.4,0.4,4c0,0,0.4,0,0.8,0.4c0.4,0,0.4,0.4,0.4,0.8c0.4,1.2,1.2,2.4,2.4,2.4
	c0.4,0,0.8,0.4,0.8,0.4c0,1.2,1.2,2,1.2,3.2c0,0,0.4,0.4,0.4,0.8c0,0,0.4,0.4,0.4,0.8c-0.8,1.2,0,2,0,3.2c0.4,0.8,0.4,1.2,0,2
	c0,0.4,0,0.4,0.4,1.6c0.4,0.4,0,0.8,0,1.2v1.2v1.6c1.2,1.6,1.2,2,0.4,4c0,0.4,0,0.4-0.4,0.8c-0.4,0.4,0,0.8,0.4,1.2
	c0.4,1.2,0.4,1.2-0.8,2c0,0.4-0.4,0.8-0.8,0.8c-0.4,1.2,0,2-0.4,3.2c-0.4,0.4,0,1.2,0.4,1.6c-1.2,0.4-1.2,0.4-2,1.6
	c-0.4,1.2-1.6,2-2.4,2.8l-3.2,1.2c-0.8,0-1.6,0.4-2,1.2c-1.2,1.6-2.8,2.4-4.8,2.8c-2,0.8-4,0.8-6,2c0,0.4-0.4,0.4-0.8,0.8
	c1.6,1.2,1.6,1.2,4,1.2v1.2H360c-0.4,0.8-0.8,1.6-1.2,2.4c-1.2-0.4-2.4,0-3.2,0.8v1.6h-0.8c-0.4,0-0.8-0.4-1.2-0.8
	c0-1.2,0-2-1.2-2.4c-0.8-0.4-1.6,0.4-2,1.2c-0.8-0.4-1.2-0.4-1.6-0.8v-1.2c-0.8,0-1.6-0.4-2.4-0.8c-0.4,0.8-1.2,1.6-2,2.4
	c-0.4,1.2-0.4,1.6,0.4,2.8c0,0,0.4,0,0.4,0.4h-0.8c-0.4,0.4-0.8,0.8-1.2,1.2v2c-0.8,0.4-1.2,0.4-2-0.4c-0.4-0.4-0.8-0.8-1.2-1.2
	c-1.2-0.4-1.6-1.2-2.4-2s-0.4-0.8-1.6-0.8c-1.2,1.2-0.8,2.4,0,3.6c-0.4,0.8-0.8,0.8-1.6,0.4c-0.8-0.4-1.2-0.8-1.2-1.6V268
	c-1.2,0.4-2.4,0-2.4,1.6c-0.4,0.8-1.6,1.2-2,0.4c-0.4-0.8-1.2-1.2-2-1.6c-0.8,0.4-1.6,0.8-1.6,2c0.4,0.8,0,1.2-0.8,1.2H322
	c-1.2,0-2.4-0.4-2.8-2c0,0-0.4,0-0.4-0.4h-2c-0.4,0.8-1.2,1.6-0.8,2.8c0.4,0.4-0.4,1.2-1.2,1.6h-2v3.6h-3.2c0.4-0.8,0.8-1.6,1.6-2.4
	c-0.8-0.4-1.2-0.8-2-1.2c0.4-0.4,0.8-0.4,1.2-0.8c0.4-0.8-1.2-2,0.4-2.8c0-1.2,0.4-2.4-0.4-3.6c0,0,0.4-0.4,0.4-0.8
	c0.4-0.4,0.8-0.8,1.2-1.2c-0.4-1.2-0.4-2.4,0-3.2c0.4-0.4,0.4-0.8,0.4-1.2c0-1.6,0.4-2.8,0.8-4c0-0.4,0-0.4-0.4-0.4
	c0-0.8,0-1.2,0.4-2c0.8-1.2,1.6-2.8,1.6-4.4c0-0.8,0-1.2,0.4-1.6c0.8-0.8,0.8-1.6,1.6-2.4v-0.8c0.4-0.8,0.8-2,1.2-2.4v-1.2v-2
	c0.4,0,1.2-0.4,1.2-0.8v-2c0,0,0-0.4,0.4-0.8c0.8-0.4,0.8-1.6,1.2-2.4c0-0.4,0-0.8,0.4-1.2c0.4,0,0.4-0.4,0.4-0.8
	c0-0.8,0.4-2,0.4-2.8c0-0.4,0-0.8,0.4-0.8c0.4-0.4,0-0.8,0.4-1.2c0.4-0.8,0.8-1.6,1.2-2c0.4-0.8,1.2-2,1.2-3.2
	c-0.4-1.2,0-2.4,0.8-3.2c0.4-0.4,0.4-0.8,0.4-0.8c0-1.6,1.6-2.8,1.2-4.4c0.8-0.8,0.8-1.6,0.8-2.4c0-0.4,0.4-0.8,0.8-1.2
	s0.4-0.8,0.4-1.2c0-0.8,0.4-1.6,0.8-2.4c0.4-0.4,0.4-1.2,0.8-1.6c0.4-0.8,0.8-1.2,0.8-2c0,0,0-0.4,0.4-0.8c0.8-1.2,1.2-2.8,0.8-4.4
	c0.4-0.4,1.2-0.8,0.8-1.6c0-0.4,0.8-0.4,0.8-1.2c-0.4-0.4-0.4-1.2-0.4-1.6c0.4-0.4,1.2-1.2,1.6-1.6c-0.4-0.8-0.8-1.2,0-2
	c0.4-0.4,0.4-1.2,0.8-1.6c0-0.4,0.4-0.8,0.8-1.2c0.8-1.2,0.8-2.8,2-4c0.4-0.4,0.4-1.2,0.4-2c0.4,0,0.8-0.4,1.2-0.8
	c-0.8-1.6,0.4-2,0.8-3.2c0-1.2,1.2-2.4,2-3.2c1.2-1.2,1.6-2.4,1.6-4c0-0.4,0.4-0.4,0.4-0.8c0.4-0.8,0.4-1.2,0.8-2
	c0.4-0.4,0.8-0.8,0.8-1.2c0.4-1.6,1.6-2.4,1.2-4v-0.8c0.4-0.4,0.8-0.8,0.8-1.2c0-0.8,0.8-1.2,1.2-1.6v-0.4c0.4-0.8,0.4-1.6,1.2-2.4
	c0.4-0.4,0-1.2,0-2c0.8-0.8,1.6-1.6,2.4-2.4v-0.4c-0.4-1.2,0.8-1.6,1.6-2.4V140c0.8-0.8,1.6-2,2-3.2c0-0.4,0.4-0.8,0.4-1.2
	c0.4-0.4,0.8-0.4,1.2-0.4c1.2-0.4,2-1.2,2-2.8V131c2.8-1.6,3.2-4,3.2-7.2c0.4,0,0.8,0,1.2-0.4c0.4-0.4,1.2-0.8,1.6-0.8
	c1.2,0.4,2,0.8,2.8,1.6c0.4,0.8,1.2,1.6,1.6,2c0.4,0.8,1.6,0.8,1.6,1.6c0.4,0.4,0.8,1.2,0.8,1.6c0.4,1.2,0.8,1.2,2,1.2
	c0.4,0.8,0.8,1.2,1.6,2c0.4,0.8,1.6,1.6,2.4,2.4c1.6,0.8,2.8,2.8,3.6,4.4c0.4,0.4,0.8,1.2,1.6,1.2c0,0,0.4,0,0.4,0.4
	c0.8,0.4,1.6,1.2,2.4,1.6v1.2c0.8,0.8,2,2,2.8,2.8s1.2,1.2,2,1.6c1.2,0,0.8,1.6,2,1.6c0.8,0,1.2,0.8,1.6,1.6c0,0.4,0.4,0.4,0.4,0.8
	c0.4,2,2,2.8,3.2,4s2,2.8,2.8,4s1.2,2.4,2.4,2.8c0,0,0,0.4,0.4,0.4c0.8,0.4-0.4,1.2,0,1.6c0.4,0.4,0.8,0.8,0.8,1.2
	c0.4,0.4,0.8,0.4,1.6,0.4c0.4,0.4,0.8,1.2,0.8,2c0.4,0.8,0.8,1.6,1.6,2c0.4,0.4,0,1.2,0.8,1.6c0.4,0.4,0.4,1.2,0.4,1.6
	s0.4,0.8,0.4,0.8c-0.4,0.8,0.4,1.6,0.8,1.6c0.4,0.4,0.4,0.4,0.8,0.8c0.8,0.8,1.6,2,2.4,2.8c0.4,0.8,0.8,0.8,0.4,2v2
	c0.4,0,0.8,0,1.2,0.4c-0.4,0.4-0.8,0.8-1.2,1.2c0.4,0.8,1.2,1.6,0.8,2.4c0.8,0.4,0.4,1.2,1.6,1.6c0.4,0.4,0.4,0.8,0,1.6
	s-0.4,1.6,0,2.8c0.8,1.6,1.2,2.8,1.2,4.8c0,0.4,0.4,0.8,0.8,1.6c-0.8,0.4-0.8,1.2-0.8,2s0,1.6-0.4,2.4c0,0,0,0.8,0.4,1.2
	s0.8,1.2,0,2v0.4c0.4,0.4,0.4,0.8,0,0.8v3.2v0.4c-0.8,0.8-0.4,1.6-0.4,2.4s0.4,2-0.8,2.8v1.2L419.2,220.5L419.2,220.5z M556.3,347.2
	c-1.2,0.4-2.4-0.4-3.2,0.4c0,0.4-0.4,0.4-0.4,0c-1.2-0.8-2.4,0-3.6,0.8c-0.4-0.8-1.2-1.2-2-0.8h-2.4c-1.2,1.6-3.2,2.4-4.8,3.6
	c-1.2,0-1.6,1.2-1.6,2c-0.4,0.8-1.2,1.6-1.6,2c-0.8,0-0.8,0.4-0.8,0.8s-0.4,0.8-0.4,0.8c-0.8,0.8-1.2,1.6,0,2.8c0,0,0,0.8-0.4,1.2
	c-0.4,0.8,0,1.2,0.4,2c0.4,0.4,0.4,0.8,0.8,1.2c0,0.4,0.4,0.4,0.4,0.4c1.2,0,2,1.2,3.2,1.2c0.8,0.4,1.2,0.8,2,1.2
	c0,0.4,0.4,0.4,0.8,0.8c-0.4,0.8-0.4,2-1.2,2.8c-0.4,0.8-0.4,2-1.6,2.8v1.2c-1.2,0.4-2,1.6-2,2.8c-0.4,0.4-1.2,0.8-1.2,2
	c-0.4,1.2-1.6,2.4-2.4,3.6c-0.8,1.2-2,2-3.2,2.8c-0.8,1.2-2,2-3.2,2.8c-0.4,0.4-0.8,1.2-1.6,1.2c-0.4,0-0.4,0.8-0.8,1.2
	c0,0.4-0.4,0.8-0.4,0.8c-2,0.4-2.4,2-3.6,2.8c-0.4,1.2-1.2,1.2-1.6,1.6c-0.8,0.4-1.2,0.8-1.2,1.2c-0.4,1.2-1.2,2-2.4,2
	c-0.4,0-2.4,1.6-2.8,2c0,0-0.4,0.4-0.8,0.8c-0.4,0.4-0.8,0.8-1.6,0.8c-0.4,0-1.2,0.8-2,1.2c-0.8,0.4-1.6,0.8-2,1.6
	c-0.8,0.4-1.2,1.2-1.6,2h-1.2c-0.8,0.4-1.2,0.8-1.6,1.2c-1.2,1.2-2.8,2-4,2.8c0,0.4-0.4,0.8-0.4,0.8c-1.6-0.4-2.4,0.8-3.6,1.6
	c-0.8,0-1.6,0.4-2-0.8c0,0,0.4-0.4,0.8-0.8c0.4-0.8,1.2-1.6,1.2-3.2v-1.6c-0.4-1.2,0-2.4,0.8-3.6c0-0.4,0.4-1.2,0.8-1.6
	c0-0.8,0-1.2,0.4-1.6s0.8-0.8,0.4-1.2c0-0.4,0-0.4,0.4-0.4c0.8-0.8,0.4-2,0.4-3.2c0.4-1.2,0.4-2.4,0.4-3.2c0.4-0.8,1.2-1.2,0.8-2
	c0-0.4,0.4-1.2,0.4-1.6s0.4-0.4,0.4-0.8c0.4-0.4,0.8-0.8,0.8-1.6s1.2-0.8,0.8-2c0.8-0.4,0.4-1.6,0.8-2.4s0.4-1.6,0.8-2.4
	c0-0.4,0-0.8,0.4-1.2c0.4-0.8,0.8-1.6,0.8-2.8c0-0.4,0-0.8,0.4-1.2l0.4-0.4c0-0.8,0-2,0.4-2.8v-0.4c0.4-1.2,0.8-2.4,1.6-3.6v-0.8v-2
	c0.8-0.8,1.6-1.2,1.2-2.4c0.8-0.8,0.4-1.6,1.2-2.4c0.4-0.4,0.8-1.2,0.8-1.6c0.4-0.4,0.4-0.8,0-1.2c-0.8-1.2-0.4-2.4,0-3.6
	c0.8-1.2,1.6-2,1.6-3.2c0-0.8,0.4-1.2,0.8-2c0.4-1.6,1.2-3.2,1.2-5.2c0.4,0,0.4-0.4,0.4-0.4c0.4-0.4,0.4-0.8,0.4-1.2
	c0-0.8,0.4-1.6,0.4-2.4v-2.8c0-0.4,0.4-0.8,0.4-1.2c0.8-0.8,0.4-1.6,0.4-2.4c-0.8-0.8,0.4-1.2,0.4-1.6c0.8-0.4,0.8-1.2,0.8-1.6
	s0-1.2,0.4-1.6c0.8-0.4,0.8-1.2,0.8-2v-3.2c0-1.2,0.4-2.8,0.4-4.4c0-0.4,0.4-0.8,0.8-1.2c0.8-1.2,1.2-2.4,2.4-3.6
	c0.4,0.8,0.8,1.2,1.2,1.6c0.8,0.4,1.2,0.8,2,1.2c0.4,0,0.8,0.8,1.6,1.2l0.4,0.4c0.4,0.4,0.8,0.8,1.2,1.2c0.4,0.4,0.8,0.8,1.6,1.2
	c0.8,0.4,1.2,0.8,2,1.6c0.4,0.4,0.8,0.8,1.2,0.8s0.4,0,0.8,0.4c0.8,0.8,1.6,1.6,2.8,2.4c1.2,1.2,2.8,1.6,3.6,2.8
	c0.4,0,0.8,0.4,0.8,0.4c0.8,1.6,2.4,2,3.2,3.2c0,0.4,0,0.4,0.4,0.4c1.6,1.2,3.2,2,4.4,3.2c0.8,0.4,1.2,0.8,2,1.2
	c0.8,0.8,1.2,1.2,2,2c0.8,0.4,1.2,1.2,2.4,1.2c0,0,0.4,0.4,0.8,0.8c1.2,0.8,2,2,3.2,2.4c0.8,0.4,1.6,1.2,1.6,1.6
	c0.4,0.8,0.8,0.4,1.2,0.8c0,0.8,1.2,0.4,1.2,0.8c0.4,0.8,0.8,1.2,1.2,1.2c0.4,0.4,0.8,0.8,1.6,0.8c1.2,0.8,4,2.4,4.8,3.2
	c0,0,0.4,0.4,0.4,0.8c1.2,1.2,1.2,1.6,3.2,1.6c0.8,0.8,2,2,3.2,2.4c0.8,0,1.2,0.8,1.6,1.2c0,0.8,0.8,0.8,1.2,1.2
	c1.2,0.8,2.4,2,3.2,3.2c1.2,0.8,2.4,2,3.6,2.4c0.4,0.4,0.8,0.8,1.2,0.8c0.8,0.8,1.2,1.6,2,2.4c0.8,0.4,1.2,1.2,2,1.2
	c0.4,0,0.8,0.8,1.2,1.2c0.4,0.8,1.2,1.2,1.6,2c0.8,0.8,1.6,1.6,2.4,2c0.4,0.4,0.8,1.2,1.6,1.2l0.4,0.4c0,2,2,2.4,2.8,3.6
	c0,0.8,0.8,0.4,1.2,1.2c0,0.4,0.4,0.8,0.8,1.2c0.4,0.4,0.8,0.8,0.8,1.2c0.4,0.4,0.4,0.8,0.4,0.8c1.6,0.4,2,1.6,2.8,2.4
	c0.4,0.8,0.8,1.2,1.2,2c0.4,0.4,1.2,1.2,1.6,1.6c0.4,0.8,0.4,1.6,0.8,2c0.4,0.4,0.8,0.8,1.2,1.2c0.4,0.4,0,1.2,0.8,1.6
	c0.4,0-0.4,0.4,0,0.8c0,0,0.4,0.4,0.4,0.8c0.4,0.4,0.8,0.8,0.8,1.2c0.4,0.4,0.4,0.8,0.4,1.2v2v0.8c1.6,1.6,0.4,3.6,0.8,5.2
	c0,0.4-0.4,1.2-0.8,1.6c-0.8,1.6-1.2,3.2-2.8,4v1.6c-0.4,0.4-0.8,0.4-0.8,0.8c-0.8,0.4-1.6,0.8-1.6,1.6c-0.4,0.4-0.4,0.4-0.8,0.8
	c-0.8,0.8-1.6,1.6-2,2.8c0,0.4-0.8,0.8-0.8,1.2c-0.8,0.4-1.2,0.8-1.6,1.6c-0.4,0.4-0.8,0.8-0.8,0.8c-0.8,0-1.6,0.4-2,0.8
	c-0.4,0.8-1.2,1.2-1.6,1.6c-0.4,0-0.8,0.4-1.2,0.4c-0.4,0.4-0.8,0.4-1.2,0.8c-1.2,1.2-2.4,2.4-3.6,3.2c-0.8,0.8-2,1.2-3.2,2
	c-0.4,0.8-1.2,0.4-2,0.8s-1.2,1.2-2,0.8c-0.4,0-0.4,0.4-0.8,0.4l-0.4,0.4c-1.2,2-3.6,2.4-5.2,3.2c-0.8,0.4-2,0.4-2.8,0.8
	c-0.8,0.8-1.6,1.2-2.4,1.6c-0.4,0.4-1.6,0.8-2.4,0.4c-0.8,0-1.2,0-2,0.8c-0.8,0.4-2.4,0.8-3.2,2c0,0-0.4,0.4-0.8,0.4
	c-1.6,0-2.8,0.4-4,0.4c-0.8,0-1.2,0-2,0.4c0,0.4-0.8,0.4-1.2,0.8h-0.8c-0.8-0.4-1.6,0-2,0c-0.8,0.4-1.6,1.2-2,1.6h-2.4
	c-1.2,0-2.4,0.4-3.2,0.8s-2,0.4-2.8,1.2c0,0-0.4-0.4-0.8-0.4h-2.8c-1.2,1.6-2.4,2-4.4,2c-1.2,0-2,0-2.8,0.4c0,0,0,0.4-0.4,0.4
	c-0.4-0.4-0.8-0.8-1.6,0c-0.4,0.4-0.8,0.4-1.2,0.8c-0.8,0.4-1.2,0-1.6,0h-3.6c-0.8,0.8-2,0.4-2.8,1.2c-0.8,0.4-1.6,0.4-2.4,0
	c-0.8-0.4-1.2-0.4-2,0.4c-1.2,0.4-2.4,0.4-3.2-0.4c-0.4,0.4-0.8,1.2-1.2,1.2h-2.4c-0.4,0.4-1.2,0-2,0c-0.4-0.4-1.2-0.8-2-0.4
	c-0.4,0-0.4,0-0.8-0.4c-0.4-0.8-1.2-0.4-2,0c-0.4,0-0.8,0-1.2-0.4c-0.4-0.4-0.8-0.4-0.8-0.4c-1.2-1.2-2.4-1.2-4-1.2
	c-0.8,0-1.6-0.4-2-0.8c-0.8-0.4-1.6-1.2-2.4-1.2c-0.8-0.8-1.2-1.6-1.2-2.8v-1.2c-0.4-0.4-0.8-0.8-1.2-1.2c-0.8-0.4-0.8-1.2-0.8-1.6
	c0-1.6-0.4-2.8-1.2-4c1.2-1.2,1.2-2.4,0.4-3.6c-0.8-1.2-0.4-2.4,0.4-4c0-0.4-0.4-0.8-0.8-1.2c0-0.4,1.2-2.4,2-2.4s1.6-0.8,1.6-1.6
	c0.4-0.4,1.2-0.8,1.6-0.8s0.8-0.4,1.2-0.4c0.8-0.8,1.6-1.2,2.4-1.6c0.4-0.4,0.8-1.2,2-1.2c0,0,0.4,0,0.4-0.4
	c0.4-0.4,1.2-0.8,1.6-1.2c0.4,0.4,0.8,0.4,1.2,0c1.6-1.2,3.6-2,4.8-4c1.2,0,2.4,0,2.4-1.2c0.4-0.4,2.4-1.6,2.8-2
	c0.4,0,0.8-0.4,1.2-0.4c0.8-0.8,1.2-1.6,2-1.6c0.4-0.4,1.2-0.8,2-1.2c0.8-0.8,1.2-1.6,2-2.4h1.6c0.4-0.8,0.8-1.6,1.6-1.6h0.8
	c1.6-1.6,3.6-2.8,5.6-4c0.4-0.4,0.8-0.8,1.2-0.8c0.8-1.6,0.8-1.6,2.8-2.8c0.4,0,0.4-0.4,0.8-0.4c1.2-1.2,2-2.4,3.2-3.6
	c0.4-0.4,0.8-0.4,0.8-1.2c0-0.4,0.4-0.4,0.8-0.4c0.4-0.4,0.8-0.4,1.2-0.8c0.4,0,0.8-0.8,1.2-1.2c1.2-1.2,2-2,2.8-3.2
	c0.8-0.8,1.6-1.2,2.4-2c0.4-0.4,0.8-0.8,1.2-1.2c0.4-0.4,1.2-0.8,1.6-1.2c0-0.4,0.4-1.2,0.4-1.6c1.2-1.6,2.4-3.2,4-4.4
	c0-1.6,0.8-2.8,0.4-4.4c0.8-0.4,0.8-1.2,1.6-1.6s1.6-2.4,2-3.2v-0.8c0.4-0.4,0.4-1.2,0.4-2c-0.4-0.4,0-1.6,0.4-2
	c0.4-0.8,0-1.2,0.8-1.6v-1.2c-0.8-0.8-0.4-1.6-0.8-2.4c0-1.2,0-2-0.4-2.8v-0.8c-0.4,0-0.4-0.4-0.4-0.4c-0.8-0.8-0.4-1.6-1.2-2
	c-0.4-0.4-0.8-1.2-1.2-1.6s-0.8-0.8-1.6-1.2C557.1,349.2,556.7,348,556.3,347.2 M318.5,633.3c0.4,1.2,0,2.8-1.2,3.6
	c0,0.4-0.4,0.4-0.4,0.4c-0.4,0.4-0.8,0.8-1.2,1.2c-0.8,0-1.6-0.4-2-1.2c-0.8-1.2-2-2.4-2.8-3.6c-0.4-0.4-0.8-0.4-0.8-0.4
	c-1.6-0.8-3.2-1.2-4.4-2.4c-1.2-1.6-2-2.8-2.8-4.8c-0.4-0.8-0.4-0.8-1.2-0.8c-0.4-0.4-0.8-0.4-1.2-0.4v-2c0-0.4,0-0.8-0.4-0.8
	c-0.8-0.4-0.4-1.2-0.4-2v-3.2c0-0.8,0-1.2,0.4-1.6c0.4-0.4,0.4-0.8,0-1.2c-0.8-1.2-0.8-1.2,0-2c0.4,0,0.4-0.4,0.4-0.4
	c0-0.4,0-0.8-0.4-1.2h-1.2c-0.4-0.4-0.8-0.8-1.2-1.2c-0.4-0.4-0.4-1.2-0.4-1.2c1.2-1.2,0.8-2.4,1.2-3.6v-1.6c-1.2-1.2-1.6-2.4-1.6-4
	c0-0.4,0-1.2-0.8-1.6c0-0.4-0.4-1.2-0.4-1.6v-2.8l-1.2-1.2c0-0.8,0-1.6-0.8-2.8c-0.4-0.8-0.4-2-1.2-2.8c-0.4-0.4,0-0.8,0-1.2v-8.4
	c-0.4,0-0.4,0-0.4-0.4c-1.6-1.2-2.4-2.8-2-4.8c0-0.8,0-1.2-0.4-2c-0.4-0.4-0.4-0.8-0.4-1.2c0-2,0-3.6-1.2-5.2
	c-0.4-0.8,0.4-1.2,0.8-1.6v-3.2c0-0.8,0-1.2-0.4-1.6c-0.4-0.8-0.8-1.2-0.4-2.4c0.4-0.8,0.4-2-0.4-3.2v-0.4c0.8-0.8,0-1.6,0-2.4v-2.8
	c-0.4-0.4-0.8-0.8-0.8-1.6c0-5.2,0-10.4-0.4-15.2V523c0-0.8,0-1.2-0.8-1.6v-5.2c0-1.2,0.4-2.4,0-3.6c-0.4-0.8-0.4-1.6,0-2.8
	c0.4-0.4,0-1.2,0-2c0-0.4-0.4-0.8-0.4-0.8c0.8-1.6,0-3.2,0-4.8c0.4-1.6,0-3.6,0-5.2c0-0.4,0-0.8-0.4-1.2c-0.8-0.4-0.8-1.6-0.4-2
	c0.4-1.2,0-2,0-2.8c0.4-1.2,0.4-2.4,0-3.6c0-0.4,0.4-1.2,0-1.6c-0.4,0-0.4-0.8,0-1.2c0.4-0.8,0.4-1.6,0-2.4V481
	c-0.4-2,0-3.6-0.4-5.6c0-0.4,0.4-0.8,0-1.2c0-0.4,0-0.8,0.4-1.2v-0.8c0-1.6,0.4-2.8,0-4c-0.4,0,0-0.4,0-0.8c0-2-0.4-4,0-6v-0.8
	c0-0.4,0.4-0.8,0-1.2c-0.4-2,0-4.4,0-6.8c-0.4-0.4,0-0.8-0.4-0.8c-0.4-0.4-0.4-0.8,0-1.2c0.8-0.8,0-1.6-0.4-2c0-0.8-0.4-1.2,0-1.6
	c0.8-0.4,0.8-0.8,0.4-1.6c0-1.6,0.4-2.8,1.2-4.4c0-0.4,0.4-0.8,0-1.6c0-0.8,0.4-2,0.4-2.8c0-0.4,0.4-0.4,0.4-0.8
	c0.8-0.8,0.8-1.2,0-2c-0.4-0.4-0.4-0.8,0-1.2c0.8-1.2,0.8-2.4,0.8-3.6c0-0.4,0-1.6,0.4-2c0.4-0.8,0.4-1.6,0.4-2.8
	c0-1.6,0-3.6,1.2-4.8v-0.8c0-3.2,0.8-6.4,0.4-9.6c0-0.4,0-1.2,0.4-1.6c0.4,0,0.4-0.4,0.4-0.8V403c0-1.2,0-2,0.4-2.8
	c0.4-0.4,0.4-0.8,0.4-1.2c-0.4-2.4-0.8-2.4,0.4-4c0-0.4,0.4-0.4,0.4-0.8c-0.4-0.8,0.4-1.2,0.8-1.6c0-1.2-0.4-2,0-2.8
	c0-0.8-0.4-1.6,0-2.4c0.4-0.4,0-1.6,0.4-2c0-0.8,0.4-1.2,0.4-1.6c0.4-2.8,0.4-5.6,0.4-8.4c0-0.8,0-1.2,0.8-2c0.4-0.4,0.4-1.2,0-1.6
	c-0.8-1.2-0.4-2,0-3.2v-0.4c0-1.2,0.4-2.4,0.4-3.6c0-0.8,0-1.6,0.8-2.4c0.8-0.4,0.8-1.6,0.4-2.4c-0.4-0.4-0.4-0.8-0.4-1.6v-8
	c0-0.8,0.4-2,0.4-2.8V347c1.2-0.8,0.8-2,0.8-3.2c0-0.8,0.4-2,0.4-2.8v-2.8c0-0.4,0-0.8,0.4-0.8c0.8-1.2,0.4-1.6-0.4-2
	c0-1.2-0.4-2,0.8-2.8v-0.4c-0.4-1.2,0.4-2,0.8-2.8c0.4-1.2,0.4-2.4,0-3.6c0-0.4-0.4-0.4-0.4-0.8v-1c1.2-0.8,1.6-2,2-3.2
	c0-0.4,0.4-1.2,0.8-1.6c1.2-0.8,1.6-2,1.2-3.6v-1.2c1.2-1.2,2.4-2,2.8-3.6c0.4-0.8,1.6-0.8,2.4-1.2c0.8,0,1.6-1.2,2.8-0.8
	c0-0.4,0.8-0.8,0.8-1.2c0-0.8,0.4-1.2,0.8-1.6c1.2,0,2-0.4,3.2-0.4v-2c1.2-1.6,2.8-1.6,4.4-1.6c0.4-0.8,2-2,5.2-4
	c0.4,0.4,1.2,0.8,2,0.4s1.2-0.8,0.8-1.6c1.2-0.8,2-1.2,2.8-1.6c1.2-0.8,2.8-0.8,4.4-1.2c0.4,0,0.8,0,1.2-0.4
	c1.2-0.8,2.4-1.6,3.6-2.4c0.4-0.4,1.2-0.4,1.6,0c0.8,0,1.6,0,1.6-0.8c0.4-0.4,0.8-0.8,1.2-1.6c1.2,1.2,2.4,1.2,3.6,0
	c0.8,0,1.6,0.8,2.4-0.4h0.8h0.8c0.4-0.4,0.8-1.2,1.6-0.8h1.6c1.2-1.2,2.4-1.6,4-1.6h4c0.4-1.2,1.6-1.2,2.4-1.6
	c0.4-0.4,1.2-0.4,1.6-0.4c2,0.4,3.2-0.8,4.8-1.2l0.4-0.4c2,0.4,4,1.2,5.2,2.8v2c0,0.4,0,0.8,0.4,0.8c0.8,0.8,0.4,1.2,0,2
	c0.4,0.8,1.2,1.2,2.4,0.8v1.2c-1.2,0-2.4,1.2-4,0.8c0,1.2,0,2,0.4,2.8c0,0.4-0.4,1.6-0.8,2s-1.2,0.8-0.8,2c0.4-0.4,0.8-0.4,1.6-0.4
	c0.4,0.4,1.6,0.8,1.6,2c0,0.8-0.8,1.2-0.8,1.6c-0.4,0.8-1.2,0.4-1.6,0.4c-0.4,0.8-0.4,1.2-0.8,2.4h2.4c0.4,0.8-0.8,1.2-0.4,1.6
	c0,0.8,0.4,1.2,0,1.6c-0.8,1.2-0.8,2,0,3.2c0.4,0.8,0.4,2,1.2,2.4c0,0.8-0.4,1.2-1.2,0.8c-0.8,0-1.6,0.4-2,0.8c0,0.4,0,0.4-0.4,0.4
	c-1.2,0.8-1.6,1.6-1.2,3.2c0,0.4,0.4,0.8,0.4,1.2c-0.4,0.4-0.8,0.8-0.4,1.2v1.6c0.4,0.8,1.2,1.6,2,2.4c-0.8,0.4-1.2,0.8-1.6,1.2
	c0,0.4-0.4,0.8-0.4,1.2c-0.4,0.4-0.4,0.8-0.8,1.2c0,0-0.4,0.4-0.8,0.8c-1.2,1.2-1.2,1.6,0,2.8c-0.4,0.4-0.4,0.8-0.8,1.2v1.6
	c0.4,0.8,1.2,1.6,0.4,2.4c-0.4,0.4,0,1.2,0,1.6c0.4,1.2,0.4,2.4,0,3.6s-0.4,2,0,2.8c0,0.4,0.4,0.8,0.4,1.2c-0.8,0-1.6,0-2.4-0.4v3.6
	c0,0.8,0.4,0.8,0.8,1.6l-0.4,0.4c-1.2,0-1.6,0.4-1.6,1.2c0,1.2-0.4,2,0,3.2s0,2.4,0,3.6c0,0.4,0,0.8-0.4,0.8c-0.4,0.8-0.4,1.2,0,2
	c0.4,0.4,0.8,0.8,0.4,1.2c-0.4,0.8-0.4,1.6-0.8,2s0,0.8,0,1.2c0.4,1.6,0.4,2.8-0.4,4.4c-0.8,1.2-0.8,1.6,0,2.4
	c0.8,0.4,1.2,0.4,1.2,1.2s-0.8,1.2-1.2,2c-1.6-0.4-1.6,1.2-2,2s-1.2,1.2-0.8,2.4c0,0.4,0,0.8,0.4,1.2c0,0,0.4,0.4,0.4,0.8
	c-0.4,0.8-1.2,0.8-0.8,2c0,0.4-0.8,0.8-1.2,1.6v2c0,0.8,0.4,1.2,0.4,2s-0.4,1.6-0.4,2c0,0.8,0,1.6-0.4,2.4v1.2c0,0.8,0,1.6-0.8,2
	c1.2,1.2,0.8,2.4,0.8,3.6c-0.4,1.2-1.2,2.4-2.4,3.2c0,0.8,0.4,2,0.4,2.8c0,1.6,0,3.2-0.4,4.8v0.4c-1.2,1.2-0.4,2.8-0.8,4.4
	c-0.8,0.4-1.2,1.2-1.2,2.4c0,0.8,0,2-0.8,3.2c-0.4,0,0,0.4,0,0.8c0.8,0.4,0.4,1.6,0.8,2.4c-0.8,0.8-1.6,1.6-2,2.4v2
	c0,0-0.4,0.4,0,0.8c1.2,1.6,0.4,3.6,0.8,5.2c-0.8,0.4-1.2,0.8-2,1.2v2.4v1.2c-0.4,0-0.4,0.4-0.4,0.8s0.4,1.6,0.8,2
	c0.4,0.8,0.4,1.6,0.4,2s-0.4,0.8-0.8,0.8c-1.2,0.4-1.6,1.2-1.2,2.4v1.2c0,0.8,0,1.6,0.8,2.4c-0.4,1.2-1.6,1.2-2.4,2.4
	c0,1.2,0,2.8,0.4,4.4c0,0.4,0.4,0.4,0.4,0.8c0.8,0.8,0.4,1.6,0,2c-1.2,0.4-1.6,1.2-1.6,2.4v1.6c-0.4,0.4-0.8,1.2-1.2,1.2
	c-0.4,1.6,0.4,2.4-0.4,3.6c-0.4,0-0.4,0.4,0,0.8c0.4,1.2,0.4,2-0.8,2.8c0.4,0.4,0.8,0.8,0.8,1.2c0.4,0.4,0,0.8,0,1.2
	c-0.4,0.8,0,1.6,0.4,2s0.4,0.8,0,1.2c-0.4,0.4-0.4,1.2,0,1.2c0.4,1.2,0.4,2,0,2.8c-0.4,1.2-0.4,2.8-2,3.6c0,0.4,0.4,0.8,0.4,0.8
	c0.8,0.4,0.8,1.2,0.4,2v0.8c0,0.8-0.4,1.2-0.8,2c-0.4,0.4-0.8,1.2-0.4,2c0.4,0,0.8,0.4,1.2,0.8c-0.4,0-0.4,0.4-0.8,0.4
	c-0.8,0-1.2,0.4-0.8,1.2l0.4,0.4c0,0.8,0,1.6-0.8,2.4v1.2c-0.4,0.4-0.8,0.8-1.2,1.2v2.8c0.4,0,0.8,0.4,1.2,0.8c0,0.8,0,1.6-0.4,2
	c0,0.4,0,0.8,0.4,1.2c0.4,0.4,0.8,0.8,1.2,1.2v2l-2.4,3.6c-0.4,0.4-0.8,0.8-0.8,1.2c-0.4,0.4-0.4,0.8-0.4,0.8c0.8,0.8,0,1.6,0,2.4
	c0,0.4,0,0.8,0.4,1.6c0.8,0.4,0.4,1.6,0.4,2.4c0,0-0.4,0.4-0.4,0.8c0.8,0.8,0.4,2,0.4,3.2c0,0.8,0,1.6-0.4,2c-0.4,0-0.4,0.4-0.4,0.8
	v1.6c0.4,0.4,0.8,0.8,0.8,0.8c0.4,0.8,0.8,1.6,0.4,2c-0.4,0.8-0.4,1.6-0.4,2c0,2,0,2-1.6,2h-0.8c-0.8,0.8-2,1.6-1.2,3.2
	c0,0,0,0.4-0.4,0.8l-0.4,0.4c0,1.6-0.8,2.8-1.2,4c-0.8,1.2-0.8,2.4-0.8,4c-0.4,0.4-0.8,0.8-1.2,1.2c0.4,2.8-0.8,5.6-0.4,8.8
	c0,0.4,0,0.8-0.4,0.8c-0.4,0.8-0.4,1.2-0.4,2v5.2c-0.4,0.4-0.8,0.4-0.4,1.2c0,0.4-0.4,0.8-0.8,1.6c-0.4,0.4-0.8,0.8-0.8,1.2
	c0.4,1.2,0,2.8,0.4,3.6s0.8,0.8,1.2,1.2c0.4,0.4,0.4,0.8,0.4,1.2c-0.4,0.4-1.2,0.4-1.6,0.8c-0.4,0-0.8,0.4-1.6,0.8c0.4,2,0,4,0.8,6
	c-0.8,0.8-1.2,1.2-1.6,1.6v2c-0.4,0.8,0,2,0.4,2.8c0,0.4,0.4,0.4,0,0.8c-0.4,0.8-0.4,1.6-0.4,2.4s-0.4,0.8-1.2,1.2
	c-2.4,0-2.4,0-1.6,2c0.4,1.2,0.8,2,0,3.2v0.4c0.8,0.8,0,1.6,0,2.4c0,0.8,0,1.2-0.4,2v1.2c0.4,0.4,0.4,0.8,0,1.2c0,1.2,0,2,0.4,2.8
	c-2.8,2-3.6,4.4-2.8,6.4c0,0.4-0.4,0.4-0.4,0.8c-0.8-0.4-1.2-1.2-2.4-0.8c-0.4,1.2-1.2,2.4-1.6,3.6c-0.4,0.4-0.4,1.2-0.4,1.6
	c0,1.2-0.4,2-1.2,2.8C320.1,631.3,319.3,632.1,318.5,633.3 M457.6,249.2c0.4-0.8,1.2-1.2,1.6-2s1.2-1.6,2-1.6
	c0.8-0.4,1.6-1.2,0.8-2.4h1.6h0.8c1.6-0.8,3.6-0.8,5.2-2h0.4c0.4-0.4,0.8-0.8,1.2-0.8c0.8-0.4,2-0.8,2.8-0.4h2
	c0.4-0.4,0.8-0.8,1.2-1.2c2,0.8,2.4,0.8,4.4,0.4c1.2-0.8,2.8-0.8,4,0c0.8,0.4,1.6,0.8,2.4,0.8c0.8,0.4,0.8,1.2,2,1.2
	c0,0,0.4,0,0.4,0.4c0.8,0.8,1.6,1.6,2.8,1.6c0.8,0.8,1.6,1.2,2,2.4c0.4,0.8,1.2,1.6,2,2.8v2.4c0,0,0,0.4-0.4,0.4
	c-0.8,0.8-0.4,2.4-1.2,3.6c-0.4,0.8-0.4,1.6-0.4,2.4v10.4c0,0.4-0.4,1.2,0.4,1.6c0.4,0,0.4,0.4,0.4,0.4c0,1.2,0,2.4,0.4,3.2
	c0,0-0.4,0.4,0,0.4c0.8,0.8,0.4,2,1.2,2.4c0.4,0.4,0.8,1.2,0.4,1.6c0,1.2,0.4,2.4,0.4,4c0,0.4,0.4,0.8,0.8,1.2
	c0.8,0.4,1.2,0.8,1.2,1.6c0.4,0.8,0.4,1.6,1.2,2c0.4,0.8,0.4,1.6,0.8,2c0.4,0.8,0.4,1.2,0.8,1.6c0.8,1.6,1.6,2.8,2.8,4
	c0.4,1.2,0,2,0.4,2.8c-0.4,0.8-0.4,1.6-0.4,2.4c0,1.2,0,2,0.4,2.8c0.4,0.4,0.4,0.8,0,0.8c-0.4,1.2-0.4,2-0.4,3.2v0.8
	c-0.8,0.4-0.4,1.6-0.8,2.4c-0.4,0.4-0.4,1.2,0,1.6c0.8,0,0,0.4,0.4,0.8s0,0.8-0.4,1.2c-0.4,0.8-0.8,2-1.2,2.8
	c-0.4,0.4-0.4,1.2,0,1.6c0.8,0.8,0,1.6,0,2c-0.4,1.2-1.2,2.4-1.2,3.6c0,0.4-0.4,0.8-0.4,0.8c-1.2,0.4-0.4,1.6-1.2,2.4
	c0.4,0.8,0.8,1.6,0,2.8c-0.8,0.8-0.8,1.6-1.2,2.4c-0.4,0.8-0.4,1.2-0.4,2v3.2c0,1.2-0.4,2.4-0.8,3.6s-0.8,2-0.8,2.8s0,1.2-0.4,1.6
	c-0.4,0.8-0.8,2-0.4,3.6c0,0.8-0.4,2-0.8,2.8c-0.4,0.4-0.8,1.2-0.4,1.6v4c0,0.8,0,1.6-0.8,2.4v0.8c0,1.2-0.8,2.4-0.4,3.6
	c0,0.8,0.8,1.6,1.2,2.4c-0.4,0.4-0.8,0.8-0.8,1.2c-0.4,0.4-0.4,1.2-0.4,1.6c0,0.8-0.4,1.2-0.8,2s-0.4,1.6-0.4,2c0,1.6,0,3.2-0.8,4.8
	c-0.4,0.8-0.4,2-0.4,2.8c0,1.2,0,2.4-0.8,3.6s-1.2,2.4-1.2,4v0.8c-1.2,2.4-1.6,4.8-1.6,7.2c0,0.4-0.4,0.8-0.8,1.2
	c0,0.4-0.4,1.2,0,1.6c0.8,0.8,0,1.6-0.4,2c-0.8,0.8-0.8,2-0.8,3.2v0.8c-0.8,0.8-1.2,1.6-1.2,2.8v0.8c-1.6,1.2-1.2,2.8-1.2,4.4v0.4
	c-0.8,1.6-1.6,2.8-2.4,4.4v0.8c0.4,0.8,0.4,1.2,0.4,1.6c-0.4,0.8-0.4,1.6-1.2,2.4c0,1.2-1.2,1.2-2,2s-1.6,1.2-2.8,1.6
	c-0.4,0-0.4,0.4-0.8,0.8c-1.2,0.8-2.8,1.2-3.6,2.4c-0.8,0.4-1.6,0.4-2.4,0.8h-1.2c-0.4,0.4-0.8,0.8-1.2,1.2
	c-0.4,0.4-0.8,0.4-0.8,0.4c-0.8,0-1.2,0.4-1.6,0.8c-0.4,0-0.8,0.4-1.2,0.4c-0.8,0-1.2,0.4-1.6,0.8c0,0.8-0.8,0.8-0.8,1.2
	c-1.2,0-1.6,1.2-2.4,1.6c-1.2,0-2.4,0-3.6,0.8c-0.4,0.8-1.6,0.8-2,0.8c-1.2,0.8-2.4,1.6-3.2,2.4c-0.8,0.8-1.6,0.8-2,0.8
	c-0.8,0-1.2,0-1.6,0.8h-0.8c-0.4,0-0.8,0-1.2,0.4c-1.2,0.8-1.2,0.8-3.6,0.8c-0.8,1.2-2,2-3.2,2c-0.8,0.4-1.2,0.4-2,0.4
	c-0.4,0-0.8,0.8-1.2,0.4c-0.8,0-1.2,0.4-1.6,0.4c-0.8,0.4-1.2,1.2-2,0.4c-0.8,0.4-1.6,0.8-2.4,0.8c0,0.4-0.8,0.4-0.8,0.4
	c-0.8,1.2-2,0.8-2.8,0.8s-1.2,0.4-1.6,1.2h-2h-2.8c-0.8,0-1.6,0.4-2.4,0.8c-0.4,0.4-0.8,0.4-1.2,0c-0.4-0.4-0.8-0.4-1.2-0.4
	c-0.4-0.4-0.8-0.4-1.2-0.4c-0.8,0-1.2,1.2-2,0.4c-0.4,0.4-1.2,0.4-1.6,0.8c-0.8,0.4-1.2,0.4-2.4,0.4c-1.2,0-2.4-0.4-3.6,0.4
	c0,0-0.4,0-0.8-0.4c-1.6-0.8-2.8-0.8-4.4,0c-0.4,0.4-0.4,0.4-0.8,0h-0.4c-1.2,0.8-3.2,0.4-4.4,1.6c-0.4,0.4-1.2,0.4-2-0.4
	c-1.2,0.4-2,1.2-3.6,1.6c-0.8,0.4-2,0.8-2.8,2s-2,2-2.8,2.8v4.4c0,0.8-0.4,1.6,0.4,2v0.4c-0.4,1.2-0.4,1.2,0.4,2.4
	c0.4,0.4,0.8,1.2,1.2,2c0.4,0.4,0.4,1.2,0.8,2s1.2,1.2,1.6,1.6c2.8,1.2,3.2,1.2,6.4,1.2h3.2c1.2,0,2.4-0.4,3.2-1.6h0.4
	c2.4,0,2.4,0,4.8-1.2c0.8-0.4,1.6-0.8,2.4-0.8c0.4-0.4,1.2,0,1.6-0.8h0.8c1.2,0,2,0,2.4-0.8c0.8-1.2,2-1.2,2.8-1.6s1.6-0.4,2-0.8
	s0.8-0.4,1.6,0c0.8,0.4,0.8,0.4,1.6,0c1.2-0.8,2.4-1.2,3.6-2.4c0,0,0.8-0.4,1.2-0.4h5.2c0.8,0,1.6,0.4,2,0.8c1.2-0.8,2-1.2,3.6-0.4
	h0.4c1.2-0.8,2.4,0,3.6-0.4c0,0,0.4,0,0.4,0.4c1.2,0.8,2.4,0.4,3.2,0.4h7.6c1.2,0,2,0.4,3.2,0.8c1.2,0.8,2.4,0.8,4,0.8
	c0.4,0,1.2,0,1.6,0.4c0,0.4,0.4,0.4,0.8,0.4c2,0,4,0.4,5.6,0.4c0.8,0.8,1.6,1.6,2.4,2.4v2.8c-0.4,0.4-1.2,0.8-1.2,2
	c0,0.4-0.4,0.8-0.4,1.2c-0.4,0.4-0.8,1.2-0.8,2c0.4,0.8-0.4,2,0,2.8v0.4c-1.2,0.8-1.2,2-1.2,3.2c-1.2,0.8-0.8,1.6-0.8,2.8
	c-0.8,0.4-1.2,1.2-1.2,2s-0.8,1.6-1.6,2.4v4c-0.4,0.8-1.2,1.2-2,2v2c-0.4,0.4-0.4,0.8-0.8,1.2c0,0.4-0.4,0.4-0.4,0.4
	c0.4,1.6,0,2.8-0.8,4c-0.4,0.8-0.8,1.2-0.4,2c0,0,0,0.4-0.4,0.4c-0.8,0.8-0.4,1.6-0.8,2.4c-0.4,1.2,0,2-0.8,2.8
	c0.4,0.8-0.4,1.6-1.2,2c0,2.4-2,3.6-1.6,6c-0.4,0.8-1.2,1.2-1.6,2c-0.4,0.4,0,0.4-0.4,0.8v0.8c-0.4,0.8-0.8,2-1.2,2.8
	c0,0.8-0.4,2-0.8,2.8c-0.8,1.2-1.6,2.4-1.2,4c0,0-0.4,0.4-0.4,0.8c-0.4,0.8-0.8,2-1.6,3.2c-0.4,0.4-0.4,1.6-0.4,2.4
	c0,2-0.8,3.6-2,5.2c-1.2,0.8-2,1.6-2.4,3.2c-0.4,1.6-1.2,2.4-2.4,3.6v2c-0.4,0.4-0.8,0.4-1.2,0.8c-0.4,0.4-1.2,0.4-0.4,1.2
	c0,0.4-0.4,0.8-0.4,1.2c-1.2,0.8-1.2,2.4-1.6,3.6v1.2c-0.4,0.4-0.8,0.8-1.2,2c0,0.8-0.8,1.6-1.6,2.4c-0.4,0.4-1.2,1.2-1.6,1.6
	c0,1.6-0.4,3.2-2,4c-0.8,0.8-1.2,1.6-1.6,2.8c0,0.4,0,0.8-0.4,0.8c-0.4,0.4-0.4,0.8-0.4,1.2c0.4,0.8,0,1.6-0.8,2
	c-0.8,0.8-1.2,1.6-1.6,2.8c0,0.4,0,1.2-0.8,1.6c-0.4,2.4-2.4,3.6-2.8,6c0,0.8-0.8,2-1.6,2.8c-1.2,0.8-2,2-2.4,3.6
	c-0.8,1.6-2,2.8-3.2,3.2c-0.8,0.4-0.8,0.8-1.2,1.2c-0.8,1.6-3.2,2.8-4.8,2.8c-0.8,0-2-0.8-2.8,0c-0.4-0.4-0.8-0.4-1.2-0.8
	c-0.8-0.4-1.2-1.2-2.4-1.6c-0.4,0-1.2-0.8-2-0.8c-0.8-0.4-2-1.2-2-2s-0.4-1.2-0.8-1.6c-1.2-0.4-1.2-1.2-1.6-2c0-0.4,0.4-0.8,0-0.8
	c-0.8-0.8-1.2-2-1.2-3.2c-0.8-0.8-0.4-1.6-0.4-2.8c-0.4-0.4-0.8-0.8-1.2-1.2V586c0-0.8,0-1.6-0.4-2c-1.6-1.6-2-3.6-2.4-5.2
	c-0.4-1.6-0.8-3.2-1.6-4.4c0-0.4-0.4-0.4-0.4-0.8c0.4-1.2,0-2.4-0.4-3.6v-0.4c-0.8-1.2-0.8-2.4-0.8-3.6c0-0.8,0-1.6-0.4-2.8
	c-0.8-0.8-1.2-1.6-1.6-2.8v-3.6c0-1.6,0-2-0.4-3.2c-0.4-0.4,0-0.4,0-0.8c0-1.2,0-2.4-0.4-3.6c-0.4,0-0.4-0.4-0.4-0.8
	c0-0.8-0.4-0.8-0.8-1.6c0.4-0.8,0.4-1.2,0-2.4v-1.6c0.4-0.8,0.4-1.6,0-2c-0.8-0.8-0.4-2-0.4-2.8c1.2-0.8,0.8-1.6,0.4-2.4
	c-0.4-0.8-0.4-1.6-0.4-2c0.4-1.6-0.4-3.2-0.4-4.4v-0.4c-0.4-0.8-0.8-1.6-0.8-2.8c0-0.8-0.4-2,0.4-2.8c-0.4-0.8-0.4-1.6-0.8-2.4
	c-0.4-0.4-0.4-0.8,0-1.6c0.8-1.2,0.4-2.4,0.4-3.6c0-0.4,0-0.8-0.4-1.2c-0.4-0.8-0.4-1.2-0.4-2c0.4-2.4,0.4-3.6,0-6
	c0-0.8,0.4-2,0.4-2.4c-0.4-0.8-0.8-1.6-0.8-2.4c0-0.4,0-1.2,0.4-1.6c0.8-1.2,0.8-2.8,0-4c0-0.4-0.4-0.8-0.4-1.2
	c1.6-0.8,1.6-2,0.8-3.2c-0.8-1.6-0.8-1.6-0.4-2.8c0.4-0.4,0.4-0.8,0.4-1.2v-3.2c0-1.2,0.4-2.4-0.8-3.2c0.8-0.8,1.2-1.6,0.4-2.8v-1.6
	c0.8-0.8,0.4-1.2,0-2s-0.4-1.2,0-1.6s0.4-0.8,0.4-0.8V468v-1c0.8-1.2,0.4-2-0.4-3.2c0.4-0.4,1.2-0.8,0.8-1.6c0-0.4,0-0.4,0.4-0.8
	c0.8-0.8,0.8-1.6,0-2.4c0,0-0.4-0.4-0.4-0.8c0.4-0.4,0.4-0.8,0.8-1.2c-0.8-0.8-0.8-2-0.8-3.2c0.4-0.4,0.4-0.4,0.8-0.8
	c0,0-0.4-0.4-0.4-0.8c-0.4-0.4-0.4-0.8,0-1.2c0.8-1.6,0.4-3.2,0.4-4.4c0-0.4-0.4-0.4,0-0.4c0.8-0.8,0.4-2,0.4-2.8s0-1.2,0.8-1.6
	c0-1.2-0.4-2,0-2.8c0.4-0.4,0-0.8-0.4-1.2c0-0.8,0-1.6,0.4-2s0.4-0.4,0.4-0.8v-2.4c0-0.4,0-0.8,0.4-0.8c0.4-0.8,0.4-1.2,0-2
	s-0.8-1.2,0-1.6c0.4-0.4,0.4-0.8,0.4-1.2c0-0.8,0-2-0.4-2.8V423c0.8-0.4,0.8-1.2,0.8-2v-0.4c1.2-0.8,0.8-2,0.8-2.8
	c-0.4-1.6,0-2.8,0.4-4.4c0-0.8,0.4-1.6,0.8-2c0.8-1.2,0.8-2,0.8-3.2c0-2.8,0.8-6,0.4-9.2c0,0,0.4-0.4,0.4-0.8c0.8-1.2,0.8-2.8,0.8-4
	c0-0.8,0-1.6,0.8-2c0.4-0.4,0.4-1.2,0.4-2v-2.4c0.4-0.4,0.8-0.8,1.2-1.2c0.4-0.4,0.8-0.8,0.8-1.6c0-1.6,0-3.2,0.4-5.2
	c0-0.4-0.4-1.2,0.4-1.6c0-1.6,1.2-2.4,2.4-3.6c-0.8-0.8-1.6-1.6-0.8-2.4c0.4-0.4,0-1.2,0-2c0.4-0.8,0-1.6,0.8-2v-0.4
	c0.4-1.6,0.4-2.8,0.8-4.4c0.4-0.4,0.8-1.2,1.2-2c0.8-0.8,0.8-1.2,0-2c-0.4-0.4-0.4-0.8,0-1.2c0-0.4,0.4-0.4,0.4-0.8
	c-0.4-0.8,0.8-1.2,1.2-2c-0.4-1.6,0.4-2.8,0.8-4c0.8-1.6,1.6-3.6,1.6-5.2c-0.4-0.8,0-1.6,0.4-2.4c0.8-0.4,0.8-1.2,0.8-2V341
	c0.8-1.2,0.8-1.2,1.2-2.8c1.6-1.2,2.4-3.2,2.4-5.2c0-0.4,0-0.8,0.4-0.8c0.4-0.4,0.4-1.2,0.4-1.6c0.8-0.8,1.6-1.2,1.6-2.4
	c0-0.4,0-1.2,0.8-1.2c0-1.2,1.2-2,1.2-2.8c-0.4-0.8,0-2,0-2.8c0.8-0.8,1.6-1.6,2-2.8c0-0.8,0.8-1.2,1.2-1.6v-1.6
	c1.2-0.8,0.8-2,1.6-2.8c0.8-0.4,0.8-0.8,0.8-1.2c0-1.2,0.4-1.6,1.2-2.4c0.8-0.4,0.8-1.6,0.8-2c0.4-0.8,0-1.6,0.8-2.4
	c0.4-1.6,2-2.8,2.4-4.4c0.4-0.4,0.4-1.6,1.6-1.6c0-0.8,0.4-1.6,0.8-2.4c0-0.4,0-0.8,0.4-1.2c0.4-0.4,0.8-1.2,1.2-2
	c0-0.8,1.2-1.2,1.2-2.4v-0.4c1.2-0.4,1.2-1.2,0.8-2c0.8-0.8,1.2-1.2,1.6-2c0.8-1.2,1.6-2,2.4-3.2c0.4-0.4,0.4-1.2,1.2-1.6
	c0.4-0.4,1.2-1.2,1.2-2c0.8-0.8,1.6-1.2,1.6-2.4c0-0.4,0-1.2,1.2-1.6c0.4,0,0.8-0.4,0.8-0.4c0.4-1.6,1.6-2.4,2-4
	c0.4-0.4,0.8-1.2,1.6-1.6c0.8-0.4,1.6-1.6,2.4-2.4c0,0,0-0.4,0.4-0.4c0.8-0.8,1.6-1.2,2-2s0.8-1.6,1.6-2c0.4-0.8,1.2-1.6,1.6-2.4
	c0.8-0.8,2-1.2,2.4-2.4c0,0,0.4,0,0.4-0.4c1.2,0,2-0.4,2.4-1.6v-0.4c0.8-2.4,2.4-4,4-5.2C455.2,249.6,456.4,248.8,457.6,249.2
	 M285.4,287.2c-0.4,0.4-0.8,1.2-0.8,1.6c0.4,2.4-0.4,4.4-0.4,6.4c0.4,0.4-0.4,1.6-1.2,2c-0.4,0-0.4,0.4-0.4,1.2v1.2
	c0,0.8-0.4,1.6-0.8,2c0,0.4,0.4,1.2,0.8,1.6v0.8c0,0,0,0.4-0.4,0.4c-0.4,0.4,0,1.2,0,2c-0.4,0.4-0.8,0.8-1.2,1.6
	c0,0.8-0.8,1.2-0.8,1.6c0,0.8-0.4,1.2-0.4,2v1.6c-0.8,0.8-1.2,1.6-2,2.4v2.4c0,0.8,0,1.6-0.4,2.4c0,0.8-0.8,0.8-1.2,1.2
	c-0.4,0.8-1.2,1.2-1.6,2c0,0.8-0.8,0.8-1.2,1.2c-0.8,0.4-0.8,1.2-0.8,2s0.4,1.6,0.8,2.4c-0.4,1.2-1.6,0.4-2.4,0.8v2.8
	c-1.2,0.4-1.6,1.2-0.8,2.8c0,0.4,0.4,0.8-0.4,1.2v0.8c0,1.6-1.2,2-2,3.2c-0.4,0.8,0,2,0.8,2.8c-0.8,0.8-1.2,1.6-1.6,2.4
	c0,0.4,0.4,0.8,0,1.6c-0.4,1.2,0,2.4,0.4,3.6c0.4,1.6,1.2,2.8,2.4,4s1.2,1.2,0,2.8c0.8,0.8,1.6,1.6,3.2,1.6c0,0.8-0.4,1.2-0.4,1.2
	c-0.4,0.8-1.2,1.6-1.6,2.4s-0.4,1.2,0,1.6c0.8,1.2,0.8,2.4,0.8,4v0.4c0.4,0,0.8,0.4,1.2,0.8h1.6c-0.4,1.2,0.8,2,1.2,3.6
	c-0.4,0-0.4,0.4-0.8,0.4c-1.2,0-1.6-1.6-3.2-1.6c0,0.4,0,1.2,0.4,1.2c0.4,0.8,0.4,1.2,0.8,2c0.4,0.4,0.4,0.8,0,1.2v2l1.6,0.4v0.8
	c-0.8,0-1.6,0.4-2.4,0.4c0,0.8-0.4,2-0.4,3.2c0.4,0,0.4,0.4,0.8,0.8c0.8,0.4,1.2,0.8,0.4,1.6c-0.4,0.4,0,1.2,0,2
	c-0.4,0.4-0.4,0.4-0.8,0.4c-0.8,0-0.8,0.4-1.2,0.8c-0.4,0.4-0.4,0.8-0.4,0.8c-0.8,1.2-0.8,1.2,0.4,2c0.4,0.4,0.8,0.8,0.8,1.2
	c0.4,0.8,0.8,1.6,2,1.6c0.4,1.6-0.8,2-2,2.8c0,0.4-0.4,1.2,0.4,1.6c0.4,0.4,0.8,0.8,1.2,1.2c-0.8,0.8-2.4,0-2.8,2
	c0,0.8,0.8,2,0.4,3.2s-0.4,2.4-0.4,3.6c0.4,0.8,1.2,1.2,2,1.6c-0.8,0.4-1.2,0.4-1.6,0.4c-1.2,0-1.2,0.8-0.8,1.6l0.4,0.4
	c-0.4,1.2,0.8,1.6,1.2,2.4c-0.8,1.6-2,0.4-3.2,1.2c0.4,0,0.4,0.4,0.4,0.8c0.4,0.4,0.8,0.8,1.2,1.2c0.4,0.4,0.8,1.2,0.8,2
	s0.4,1.2,0.4,2c0,0.4-0.4,1.2-0.4,1.6l-0.4,0.4c0.8,1.2,0,2.4,0,3.6c0,0.4,0,0.4-0.8,1.2c-0.8-0.4-1.2-1.2-1.2-1.6
	c-0.4-1.2-1.2-1.2-2-1.2c-0.4,0.8,0,1.6-0.4,2s-0.4,0.8,0,1.2c0.4,0.8,0.4,1.6,0.8,2.8c0.4,0.4,0,0.8-0.4,1.6
	c-0.4,0.8-0.4,1.6-0.8,2.4v0.8c0.8,1.2,1.6,2.4,1.6,4c0,0.4,0.4,1.2,0.4,1.6c0.4,1.2,0,3.6-0.8,4.8c0,0.8,0.4,1.2,0,2
	c-0.8,0.8-0.8,2.4-0.4,3.2c0,0.8,0.4,0.8,0,1.6c-0.4,0.8,0,1.2,0.8,2c-1.2,0.8-1.2,2-0.4,3.2c0,0.4-0.4,0.8-0.4,1.2
	c-0.4,0.4,0,0.8,0,1.6c0.4,0.4,0.8,0.8,1.2,1.2c-0.4,0.8-0.4,2-0.4,3.2c-0.4,0.8,0,2,0,2.8c-0.4,0.4-0.4,1.2-0.8,1.2
	c-0.8,0.4-0.8,0.8-0.8,1.6v3.2c0,0,0,0.4,0.4,0.8c-0.4,0.4-1.2,0.8-0.8,2c0,0-0.4,0.4-0.4,0.8c-1.2,1.2-1.6,3.2-1.6,4.8
	c0,1.6-0.8,2.8-0.4,4c-0.8,0.8-0.8,1.6-0.8,2.4c-0.4,1.6-1.2,3.2-1.2,5.2c0.4,0.8-0.4,2-0.8,2.8c-0.8,0.4-1.2,1.2-1.2,2
	c-0.4,0.8-0.4,1.6,0,2.4c0.4,0,0.4,0.8,0,0.8c-0.4,0.4,0,1.2-0.4,2l-1.2,1.2v1.6c0.4,2-0.8,3.6-2,4.8v2.4c-0.8,1.6-2,2.8-1.2,4.8
	c0.4,0.8,0,1.6-0.4,2.4c-0.8,0.8-1.2,1.6-0.8,2.4c0,1.2-0.8,2-1.6,3.2c-0.4,0.8-0.4,1.6-0.4,2.4v2.4c-0.4,1.2-0.4,2-1.2,2.8
	c0,0-0.4,0.4-0.4,0.8c-0.4,0.8-1.2,1.6-0.8,2.4c0,0.8,0,1.6-0.8,2c0,0.4-0.4,0.8-0.4,0.8c0,0.8,0,1.6-0.8,2.4
	c-0.4,0.4-0.8,1.6-0.8,2.4s-1.2,1.6-0.8,2.4c-0.4,0.8-0.4,2-0.8,2.8c-0.4,0.4,0,1.2-0.4,2c0,0.4,0.4,0.8,0,1.2
	c-1.2,1.2-0.8,2.4-0.8,4c-0.8,0.8-1.6,1.2-2,2c-0.4,0.4-0.4,0.8-0.4,1.2s0.4,0.4,0.4,0.8c0.4,0.8,0.4,1.2-0.4,2c0,0,0,0.4-0.4,0.4
	c-1.6,0.8-2,2.4-2.4,4.4v0.4c-0.4,0.4-0.4,0.4-0.8,0.8c0.4,1.6-0.4,3.2-0.4,4.8c0,0.4-0.4,1.2-0.4,1.6c-1.6,1.6-2.4,3.6-2.4,5.6
	c0,0.8-0.4,1.6-0.8,2c-1.2,0.8-1.6,2-1.6,3.2c0,0.4,0,0.8-0.4,0.8c-0.8,0.8-0.4,1.6,0,2.4v1.2c-0.4,0.4-1.2,0.8-1.6,1.6
	c-0.4,0.8-1.2,1.6-1.2,3.2v0.4c0.4,1.6,0,2.8-0.8,3.6s-0.4,2-0.8,2.8c-0.4,0-0.4,0.4,0,0.8c0.4,0.4,0,1.2,0.4,1.6
	c-0.4,0.4-0.4,0.4-0.8,0.4c-1.2,1.2-1.6,2.4-2,4c0,0.4-0.4,1.2-0.8,1.6c-1.2,1.2-2,2.8-2,4.8c-2,2-4.4,4-6,6.8h-1.2
	c-0.8,0.4-1.2,1.2-2,1.2c-0.4,0-0.8,0.8-1.2,1.2h-0.8c-0.8-0.8-1.2-1.2-2-2v-1.6c-2-0.8-2-1.2-0.8-2.4c-0.4-0.4-0.8-0.8-1.2-1.2
	s-0.8-0.8-0.8-1.6s-1.2-1.2-1.2-2.4c0-0.4-0.4-0.8-0.4-1.2c0-0.8,0-1.2-0.4-2s-0.8-1.6-0.8-2.4c-0.4-1.2-1.2-1.6-2-1.2
	c-0.4,0-0.4-0.4-0.4-0.4c0-1.2,1.6-1.6,2-2.8c0-1.2,0.8-2,0.4-3.2c-0.4-0.4-0.8-0.8-0.4-1.6c0-0.8,0-1.6-0.8-2.4
	c-0.8-0.8-0.8-2,0-2.8c-0.4-1.6-0.8-3.2-1.6-4.8c0-0.4,0.4-0.4,0.4-0.4v-1.6c-0.8-0.8-0.4-2-0.4-3.2c0-0.8-0.4-0.8-0.4-1.2
	c-0.8-1.2-0.8-2.4-0.8-3.6c1.2-0.8-0.4-1.6,0-2.8h-0.4c-0.4-1.2-0.4-1.2-0.4-3.2c0-0.4,0-0.8,0.4-1.2c0,0-0.4-0.4-0.8-0.8V572v-0.8
	c-0.4-0.4-0.8-0.8-0.8-1.2c0.4-1.6-0.4-2.8,0.4-4.4v-0.4h-0.8v-7.6v-1.2c-1.2-0.8-0.4-1.2-0.4-2l0.4-0.4c0-0.8,0-0.8-0.4-1.2
	s-0.4-0.8,0-1.6c0.8-0.4,0.4-1.2,0-2s-0.4-1.2,0-2c0-0.4,0.4-0.8,0-1.2c-1.2-4-0.4-7.6-0.8-11.6c0-1.2,0.8-2.4,0.4-4l0.4-0.4
	c0.8-0.4,0.4-1.6,0.4-2.4c-0.8-0.8-0.8-1.6-0.4-2.4c0.8-1.2,0.8-2.4,0-4c-0.4-1.2-0.4-2.8,0-4v-0.8c-0.4-0.4-0.4-1.2-0.4-1.6V508
	c0-1.6,0.4-2.8,0-4.4c-0.4-0.8-0.4-1.6,0-2.4c0.4,0,0.4-0.4,0-0.8c-0.4-1.2,0-2-0.4-3.2c0-0.4,0.4-1.2-0.4-1.6c-0.4,0-0.4-0.4,0-0.8
	c0.4-1.2,0.8-2,1.6-2.8c0.4-0.8,0-2,0-3.2c0-0.4-0.4-0.4-0.4-0.8c0.4-0.8,0.8-1.6,0.4-2.4V483c0-0.8,0.4-1.2,0.4-2
	c0-0.4,0-1.2-0.4-2c0-1.2,0.4-2,0.8-2.8c0.4-0.8,0.8-1.2,0-2c-0.4-0.4-0.4-1.2-0.4-1.6v-2c0.8-2,2.4-3.2,1.2-5.2
	c-0.4-1.2,0-2.4,0.4-3.2c-0.8-0.8-0.4-2,0-2.8s0.4-1.6,0.4-2.8c0-0.4,0-0.8-0.4-1.2c-0.4-0.4,0.4-0.8,0.4-1.2V451v-0.8
	c0.8-0.4,0.8-1.2,0.8-2c-0.4-2,0.4-4,0.4-5.6c0-0.8,0-1.2-0.4-1.6v-1.2c0.4-1.2,0.8-2.4,0.8-4c0-1.2,0-1.2,0.4-2.4
	c0.4-0.4,0.4-0.4,0.4-0.8v-3.2c0-0.4-0.4-1.2,0.4-2c0,0-0.4-0.4-0.4-0.8v-2.4c0.4-0.4,0.8-0.8,0.8-1.2l0.4-0.4v-3.2
	c0-0.8-0.4-2,0.4-2.8c0.4-0.4,0.8-0.8,0.4-1.2V413c0-0.8,0-1.2,0.8-1.6c0.4-0.4,0.4-0.8,0-1.2c-0.8-1.6-0.8-2.8,0-4
	c0.4-0.4,1.2-1.2,0-1.6v-4c0.4-0.4,0.8-0.8,1.2-1.2v-9.2c0.4-0.4,0.8-0.8,1.2-1.2c0.8-0.8,1.2-2,1.2-3.2v-4c0-0.8,0.4-1.6,0.4-2v-2
	c0.4-0.4,0.4-0.8,0.8-1.2c0-0.4,0.4-0.8,0-1.2c-0.4-0.4,0-1.2,0-2c0.4,0,0.8-0.4,1.2-0.8V369c0.4-1.2,0.8-2,1.2-3.2
	c0.4-0.8,0.4-2,0-2.8s0-1.2-0.4-2c0.4-0.4,0.8-0.8,1.2-1.2c0-0.8,0.4-2,0-2.8c0-2.8,0.8-5.6,0.4-8.4c0.4-0.4,0.8-0.8,1.2-0.8
	c0-0.8,1.2-1.6,0-2.4V342c0.8-0.8,1.2-1.6,1.6-2.4c0.4-0.4,0.8-0.8,0.4-1.6c-0.4-0.8-0.4-1.6,0.4-2.4c0.4-0.4,0-1.2,0-1.6
	c0.4-0.8,1.2-1.2,1.2-2.4c0-0.4,0.4-0.4,0.8-0.8c-0.8-1.6-1.6-2.8-1.2-4.4c0-0.8,0.4-1.6,0.4-2.4c0.4-0.8,0.8-2,2-2.8v-0.8
	c0.4-0.8,1.6-1.2,2-0.8c0.8,0.8,1.2,0.8,2,0.8c1.6,0,1.6,0,3.2,0.8c0.8-0.8,1.6-1.2,2.4-2h0.4c2.4-0.8,2.4-0.8,3.6-2.4
	c0-0.4,0.4-0.4,0.4-0.4c0.8-0.8,0.8-1.2,0.4-2c-0.8-1.2-0.8-2.4,0.4-3.2c-0.4-1.2-1.2-2-1.2-3.6c0,0-0.4,0-0.4-0.4
	c-0.4,0-0.4-0.4-0.8-0.8c-0.8,0-1.6-0.4-2-1.2c-0.4-0.4-0.4-1.2-0.8-2c0-0.4,0-0.8-0.4-1.2c-0.8-1.2-1.6-2.4-1.2-4.4v-1.2
	c-0.8-0.4-1.2-0.8-0.8-1.6c-0.4-2.4-0.4-4.8-0.4-6.8c-0.4-1.2-1.2-2,0-2.8l-0.4-0.4c-0.4-1.2-0.8-2,0.4-2.8
	c-0.4-0.8-0.8-1.2-0.8-1.6c0.4-0.8,1.2-1.6,1.6-2.4c-0.4-1.2-1.2-2.4-0.8-4v-0.4c0.8-1.2,1.2-2.4,1.2-3.2c0-1.6-0.4-2.8,0-4
	c0-0.8-0.4-1.6-0.8-2.4c-0.4-0.8-0.4-1.6,0.4-2.4c0.4-0.4,0-0.8,0.4-1.6c0-0.8-0.4-2,0.8-2.8c-1.2-1.2-0.8-2.4-0.8-3.6
	c0.4-0.4,0.8-0.8,0.8-1.2c0-1.6,0.8-2.8,0.4-4c0-0.8,0.4-1.2,0-2c-0.4-0.4,0-1.2,0.8-2c0.4-2.4,0.4-4.4,0.4-6.4c0-0.8,0.4-1.2,0.4-2
	c0.4,0,0.4-0.4,0.4-0.8c0-0.8,0.4-1.2,0.8-1.6c-0.8-1.6-0.8-3.6-0.4-5.2c0.4-0.8,0.8-1.2,1.2-2c0.8-1.6,0-2.8-0.8-4
	c0-0.4-0.4-0.8-0.8-0.8v-1.2c1.2-0.4,1.2-1.6,2-2.4c0-0.4-0.4-0.8-0.4-1.2c-0.8-0.8-0.4-2,0-2.8c0.8-0.4,0.8-1.2,0.8-2v-2
	c0,0,0-0.4,0.4-0.8c0.4-0.8,0.4-1.6,0-2c-0.8-1.6-0.8-2.8,0-4s0.8-2.4,0.4-3.6l-0.4-0.4c0.8-0.8,0.8-2,0.8-2.8V194
	c-0.4-0.4-0.4-0.4-0.8-0.8c0-0.4,0.4-0.8,0.8-0.8c0.8-0.8,0.8-0.8,0.4-2v-0.8c0.8-0.4,0.8-1.2,0.8-2v-4.8c0-0.4,0-0.8-0.4-1.6
	c0.4-1.2,0-2.4,0.4-3.6c0.4-0.8,0.8-1.2,0.8-2c-0.4-1.6-0.4-1.6,0.4-2.8c0.8-0.8,0.8-0.8,0-1.6c0-0.4-0.4-0.8-0.4-0.8
	c0.4-1.2,0-2.8,0.8-4c0.4-0.8,0-1.2,0-1.6c-0.4-0.4-0.4-1.2,0-1.6c0.8-0.4,0.4-1.2,0.4-2v-2c0.4-0.4,0.8-0.8,1.2-1.2
	c0-1.2,0-2,0.8-3.2v-1.2v-3.2c-0.8-0.4-0.8-1.2-0.4-2.4c0.4-1.2,1.2-2.8,0.8-4.4c0-0.4,0-0.4,0.4-0.8c0.4-0.4,0.4-1.2,0.4-1.6
	c0-0.4,0-0.8,0.4-1.2c0.8-0.8,1.2-2,1.2-3.2c0.4-0.8,1.2-1.2,2-2c0-1.6,0-3.2-0.4-5.2c0-0.4,0.4-0.8,0.4-1.6c0.8-0.8,0.8-2,1.2-3.2
	c0.4-0.8,1.2-2,0.8-3.2c0.8-0.8,1.2-1.6,1.6-2.4c0.4-0.4,0.4-0.4,0.8-0.8V116c0.4-0.4,0.8-0.8,1.6-1.2c-0.4-1.2-0.4-2-0.4-3.2
	c0-0.4,0.4-0.8,0.8-0.8l2-2c0-0.4,0.4-0.4,0.4-0.8s0-0.8-0.4-1.2c0-0.8,0.4-0.8,1.2-1.2c0.8,0,0.8-0.4,0.8-1.2v-2.8
	c0.4-0.4,1.2-1.2,1.6-1.6s0.8-0.8,0.8-1.2c0.4-1.2,1.2-2,2.4-2.8c0,0,0.4,0,0.4-0.4c0.4-0.4,0.4-1.2,0.8-1.6c0.8,0,1.2-0.4,1.6-1.2
	c-0.4-0.8-0.8-1.6-0.8-2.8c0.8-0.4,1.2-1.2,2-0.8c1.2-1.2,1.2-2.8,2.8-3.6c0.4-0.8-0.8-1.6-0.8-2.8c0.4,0,0.8-0.4,1.2,0
	c0.4,0.8,0.8,0.8,1.6,0.8c0.8-0.4,2,0,2.8-0.4c1.6-0.4,2.4-0.8,3.2-2h4.4c0.4-0.4,0.8-1.2,1.2-1.6c0.8,0,1.2,0,1.2,0.8
	c0.4,0.4,0.8,0.4,0.8,0.4c0.4,0.4,0.8,0.4,1.6,0.4c0,0.4-0.4,0.8-0.4,0.8c-0.4,0.8-0.4,1.2-0.4,2c0,0.4,0.8,0.8,0.8,1.2
	c0.4,0,0.4,0,0.4,0.4c-0.4,0-0.8,0-1.2,0.4c0,0.8-0.4,1.6,0.4,2.4v0.8c-0.8,0.8-0.4,1.6-0.4,2c1.2,1.6,2.8,2.4,3.6,4.4
	c0,0-0.4,0.4-0.8,0.4c0.8,2,0.8,4,0,6c-0.4,0.4-0.4,1.2-0.4,1.6c-0.4,0.4-0.8,0.8-0.4,1.2c0.4,0.4,0.8,0.8,1.2,1.2v4
	c-0.4,0.8-1.2,1.2-1.6,2.4c-0.4,0.4-0.8,0.8-0.4,1.6c0,0.4,0.4,0.8,0.8,1.2c0.8-0.4,0.8-0.4,2,0.8c-0.4,0.4-0.8,0.4-1.2,0.4
	c-0.8,0.8,0,1.2,0.4,1.6c0.4,0.8,0,1.6,0.4,2.4s-0.4,2,0.4,2.8c0.4,0,0,0.4-0.4,0.8c-0.4,1.2-1.2,2-2.4,2.8c0.8,0.8,1.6,1.2,2,1.6v2
	c-0.4,0.4-0.4,0.4-0.8,0.8c-0.4,1.6,0.4,2.8,1.2,3.6c0,1.2-0.4,2.4,0,3.2c0.4,0.4,0.4,0.8,0,0.8c-0.8,1.2,0,2.4,0.4,3.2
	c0,0.8,0,1.2-0.4,2c-0.4,0.4-0.4,1.2-0.8,2s-0.4,2,0.8,2.4c-0.4,0.4-0.4,0.8-0.4,0.8c-0.8,0.8-0.8,1.2-0.4,2
	c0.8,1.2,0.8,1.2-0.4,1.6c-0.4,0.4-0.8,0.4-1.2,0.8c0.4,0.8,0.8,1.2,1.2,2v0.8c0,1.2,0,2,0.8,3.2h1.6v1.2h-1.2v2
	c0,0.4,0.4,0.8,1.2,1.2c-1.2,0.8-1.6,2-0.8,3.2c-0.8,0.8-1.2,1.6-0.4,2.8c0.4,0.4,0.4,0.8,0.4,0.8c0,0.8,0.4,1.2-0.4,2
	c-0.4,0-0.4,0.4-0.8,0.8c-0.4,1.2-0.4,1.2,0.8,2l0.4,0.4h-1.6h-1.2c-0.4,0.8,0,1.6,0.4,2c0.4,1.2,0.4,2,0.4,3.2c0.4,0.4,0,0.4,0,0.8
	c-0.4,1.2-0.4,1.2-0.4,2.4c0.4,0.4,0.8,0.8,1.2,1.2c-0.4,1.2-1.2,2.8-0.4,4c-0.8,0.8,0.4,1.6,0,2.4c-0.4,0.4-0.4,1.2,0,2v3.6
	c0.4,1.2,0,2.4,0,3.6c0,0,0,0.4,0.4,0.4c0.8,0.4,0.4,1.6,0.4,2.4c0,0.4,0.4,0.8,0.8,0.8c0.8,0,1.2,0.4,2,0.8c-0.4,0.8-0.4,1.2-0.4,2
	c-0.8-0.4-1.2-0.8-1.6-1.2c-0.4,0.4-0.8,0.4-0.8,0.8c0.4,1.2,0,2.4,0.4,3.6c0.4,0.8,0,2,0,2.8c0,0.4,0,0.8,0.4,1.2
	c0.8,0.4,0.4,1.2,0.4,1.6c0,0.4-0.4,0.8-0.8,1.2c0.8,0.8,0,2,0.8,2.8c-0.4,1.6,0.8,3.6,0,5.2c-0.4,1.2,0,2.4,0,3.6
	c0.4,1.2-0.4,2,0.4,3.2c0.4,0.4,0,0.8,0,1.2v5.2c0,0.8,0,1.6,0.4,2.4c0.4,0.4,0.4,0.8,0.4,1.2c0.4,0.8-0.4,2,0,2.8
	c0.4,1.2,0,2.4,0,3.6v3.2v3.6v3.2c0,0.4,0,1.2-0.8,1.6v11.2c0,1.2,0.4,2.4-0.4,3.6c0.4,1.2,0,2,0,2.8v4.4c0,0.4,0,0.8-0.4,1.2
	c-0.4,0.8-0.4,1.2-0.8,2L285.4,287.2L285.4,287.2z M239.4,620.5c0.4-0.4,0.8-1.2,1.2-1.6c1.2-0.8,1.6-2.4,2-3.6c0-1.2-0.4-2.4,0-3.6
	c0-0.4-0.8-0.8-0.4-1.6c0.4-0.4,0.4-0.8,0.8-1.2c0.4-0.8,0.4-1.2,0.8-1.6c0.4-1.2,1.2-2.4,2-3.2c0.4-0.4,0.8-0.4,0.8-0.4
	c0.8-0.4,1.6-0.4,1.6-1.6c0.8-0.8,0.4-1.6,0.4-2.4c0-1.2-0.4-2.8,0.8-3.6v-0.4c-0.4-1.6,0.4-2.8,0.4-4.4c0.8-0.8,0.8-0.8,1.2-2
	c0-0.4,0-0.8,0.4-1.2c0,0,0-0.4,0.4-0.8c0-0.8-0.4-1.2,0-2c0.4-0.4,0.4-1.2,0.8-2c0.4-0.4,0.4-1.2,0.4-1.6c0-0.8,0.4-1.2,0.8-2
	c-0.4-0.4-0.4-0.8-0.4-1.2c0-0.8,0.4-1.2,0.4-1.6c0-0.8,0.4-1.6,1.2-2c0.4-0.8,0.4-1.2,0.4-2c0-0.4,0-0.8,0.4-1.2
	c0.4-0.4,0.4-0.8,0.4-1.6v-2c0.4-0.4,0.8-0.8,1.6-1.6v-1.2c0.8-0.4,0.8-1.2,0.8-2v-4.8c0.4-0.4,0.8-0.8,1.2-1.2v-0.8v-4.4
	c0.4-0.4,0.8-0.8,0.8-1.2c0-1.2,0.4-1.6,0.8-2.4c0.4-0.8,1.2-1.6,0.8-2.8c0-0.4,0-0.4,0.4-0.4c0.8-0.8,0.4-1.6,0.4-2.4
	c0-1.6,0.4-3.2,0.4-4.8l0.4-0.4c0.8-0.8,0.8-2,0.8-3.2c0.8-0.8,2.4-1.6,2-3.2c0.8-0.8,1.6-1.6,2.4-2.4h2.4c0-0.4,0.4-1.2,0.4-1.6
	c0-0.8-0.4-1.2-0.8-2c0-0.4-0.4-0.8-0.4-1.2c0.8-0.4,1.2-1.2,1.6-1.6c0.4,0.4,0.8,0.4,0.8,1.2c0,1.2,0,1.2,0.8,1.6
	c0,0.4,0.4,0.4,0.4,0.8c-0.8,0.8-1.6,1.2-2,2v3.6c0.4,0.4,0.8,0.8,1.2,0.8c-0.4,0.8-0.8,1.6-1.2,2.4c-0.4,0.4-0.4,0.8-0.4,1.2
	s0.4,0.8,0.8,1.2c-0.4,0.4-1.2,0.8-1.6,1.2v1.2c0.4,0.4,0.8,0.4,1.2,0.8c0.4,1.2-0.8,2.4-0.4,3.6c0.8,0,1.2,0.4,1.6,0.4v3.2
	c0,0,0.4,0,0,0.4c-0.8,1.2-0.8,3.6,0.4,4.8c0,0.4,0.4,0.8,0.4,1.2c0,2,0,4,0.8,5.6c0,0.4,0,0.8-0.4,0.8c-0.4,0.8-0.4,1.6,0.4,2.4
	c0,0,0.4,0.8-0.4,0.8c-0.4,0-0.4,0.4-0.4,0.8v1.2c0.4,0.4,0.8,0.8,1.6,1.6c-0.8,1.2-0.4,2.4-0.4,4l1.2,1.2c-0.4,0.4-0.8,0.8-1.2,0.8
	c-0.4,1.6-0.4,3.2,0.8,4.4c0.4,0,0.8,0.4,0.4,0.8c0,1.2,0.8,1.6,1.2,2.4c0,0.4,0,0.8-0.4,1.2v1.2c-0.8,0.8-0.4,1.6,0,2
	c0.4,0.8,0,1.6,0.4,2c-0.4,1.2,0,2.4-0.4,3.6c0,0.4-0.8,0.4-0.8,0.8v2.4c0.8-0.4,1.6,0,2,0.8c0,1.2,0.4,2.8,0.4,4
	c0,1.6,0.4,3.2,1.2,4.4c0,0.4,0,0.8-0.4,1.2c-1.2,0.8-1.2,2-1.2,3.2s0.4,2-0.4,2.8c0,0.4,0.4,0.8,0.4,0.8c0.4,1.2,1.2,1.6,2,2
	c0.8,0,1.6,0.4,2,0.8c-0.4,0.8-0.4,1.2-0.4,1.6v3.6c0,0.8,0,1.6-0.8,2.4c0,0.4-0.4,1.2,0.4,1.6c0.4,0.4,0.4,1.2,0.8,2
	c0,0.4,0,0.8,0.4,1.2c1.2,1.6,1.2,1.6,0.8,3.6v0.4c0.8,0,1.2,0.4,1.6,0.8c0,1.2,0,2.4,0.8,3.6v0.8v2c0,1.6,0.8,3.2,1.6,4.8
	c0.4,0.8,1.2,1.6,1.2,2.4c0,1.2,0.8,2.8,2,3.6c0.8,0.8,0.8,1.6,0.8,2.8c-0.4,0.4-0.8,1.2-1.2,1.6c0.8,0.8,1.2,1.6,1.6,2
	c1.6,1.6,2.8,3.2,3.2,5.2c0.4,0,0.8-0.4,1.6-0.4c-0.4,1.2,0.4,1.6,1.2,2c0,0.8,0,2,0.4,2.8c0.8,1.2,1.6,2,2.8,2.8
	c0.8,0.4,1.2,0.4,1.6,1.2s1.2,1.2,1.6,2c-0.4,0.8,0.4,1.2,0.8,2c0.8,0,1.6-0.4,2.4,0.4c0,0.4,0.4,0.4,0.8,0.4c1.2,0.4,2,0.8,2.4,2
	c0.8,1.6,2,2.8,3.6,3.6c0.4,0,0.8,0.4,0.8,0.4c0,1.2,0.8,1.2,1.2,2c1.2,0,2.8,0,3.6-0.8c0.4-0.4,1.2,0,2,0c0.4,0,0.8,0.4,1.2,0.4
	c0.4,0.4,1.6,0,2-0.4c0.8-1.2,2-2.4,3.2-3.6c0.4,0,0.8,0.4,1.6,0.4V676c-0.4-0.4-0.4-0.4-0.8-0.4V674c0.4,0.4,0.8,0.4,0.8,0.8
	c1.2,0.8,1.2,0.8,2-0.4c0.4-0.8,1.2-1.6,2-2.4c-0.4-1.6-0.4-3.6-0.8-5.2c0.8-0.4,1.2-1.2,1.6-1.6V662c2.4-1.2,1.6-3.6,2.4-5.2v-0.4
	c-0.4-0.4-0.4-0.4,0-0.8c0.4-1.2,0.4-2,0.8-3.2c0.4-0.8-0.4-1.2-0.4-2s0.4-2,0.4-2.8c0-0.4-0.4-0.8-0.4-1.6c2-0.4,3.2-2.4,4-4
	c0-0.4-0.4-0.4-0.4-0.8V640c0.4,0,0.8-0.4,0.8-0.8c0-0.4-0.4-0.8,0-1.2c0.4-0.8,0-1.6,0-2.8c0.4-1.2,0-2.8,0-4c0-0.8,0-1.2,0.4-1.2
	c0.8-0.8,0.4-1.2,0.4-2c0-0.4-0.4-0.8-0.4-0.8c1.2-0.4,0.8-1.6,1.2-2c0.4-0.8,0.4-2,0.4-2.8c0-1.2,0.4-2-0.4-3.2v-0.4
	c0.8-0.4,0-1.6,0.8-2c0-0.8,0.4-1.6-0.4-2.4c0.4-0.4,0.8-0.8,1.2-1.2v-2c-0.4-0.4-1.2-1.2-0.4-1.6c0.8-0.8,1.2-2,2.4-2
	c0.4,0,0.8-0.8,0.8-1.2c-0.4-0.8,0.4-0.8,0.8-1.2c0-0.8-0.4-2,0-2.4c0.4-0.8,0-1.6,0.4-2v-2.4v-2.8c0-0.4-0.4-0.8,0-0.8
	c0.8-1.6,0.4-3.6,0.8-5.2v-2c0.8-1.6,0.8-2,0-3.2c1.2-0.8,1.2-1.6,1.2-2.4v-2.4c0-1.2,0-2.4,0.8-3.6c0.4-0.8,0.4-1.6,0.4-2.8v-2.8
	c0-0.4,0-1.2,0.4-1.6c0.8,0,0.4-0.4,0.4-0.8c-0.8-0.8-0.8-1.6-0.8-2.8c1.6-0.4,1.2-2,2-3.2c0.8-0.8,0-2.4,0.4-4
	c0.4,0,0.8-0.4,1.2-0.8c-0.4-0.8-0.4-2-0.8-2.4c-0.4-0.8-0.8-1.6-0.4-2c0.4-0.8,0.4-1.6,0.8-2.8c0.4,0,0.4-0.8,0.4-0.8
	c0.8-0.8,0.8-1.6,0.4-2.4c0,0-0.4,0-0.4-0.4c-0.4,0-0.8-0.4-0.8-0.4c0.8-1.2,0.8-1.2,0.8-3.2c0-0.8-0.4-2-1.2-2.8
	c0.4-0.4,0.8-0.8,1.2-0.8v-2.8c0.4-0.4,1.2-0.8,1.6-1.2c0.8-0.4,1.2-0.8,1.2-1.6c0,0-0.4-0.4-0.8-1.2h0.8h0.4c0,0.8,0,2,0.8,2.4
	c-1.2,0.8-0.4,2-0.8,2.4c0.4,0.8,1.6,1.2,1.2,2l0.4,0.4c0.8,0,1.2,0.8,1.6,1.2c-0.4,0.4-0.4,0.4-0.8,0.4c-0.4,0.8-1.2,0.8-1.2,2
	c0.4,0.8,1.2,0.8,2,0.8l0.4,0.4v3.6c0.4,0.4,0.8,0.4,1.2,0.8c0,1.6-0.4,2.4-1.2,3.6c-0.4,0.4,0,1.2,0.4,1.6c0.4,0.4,0.8,0.8,1.6,0.8
	c0.8,0,1.2,0.4,0.8,0.8c0,1.2,0.4,1.6,1.2,2.4c0.4,0.4,0.4,1.2-0.4,1.2c-0.8,0.4-1.2,1.2-1.6,1.6v0.8v0.8c2,1.2,2.4,2.8,2.4,5.2
	c-0.4,0.4-0.8,0.8-1.2,0.8c-0.4,0.4-1.2,0-2,0c0.4,1.2,0.4,2,0.8,2.8c0.8,0,1.2,0,2-0.4c0.4,0.8,1.2,1.2,1.6,2v0.4H367
	c0,0.4-0.4,0.8-0.4,1.6c0.4,0.8,0,1.6,0,2.4c-0.4,1.6,0.4,2,1.6,1.6c0.4,0,0.8-0.4,1.2-0.8c0.4,0.8,0.4,1.2,0.4,1.6l-0.4,0.4
	c-0.4,1.6-0.4,1.6,0.4,2.4c0,0.4,0.4,0.4,0.4,0.4c-0.8,0.8-1.2,1.2-2,1.6c0.4,2.4-0.4,4.8,1.2,6.8c-0.4,0.4-0.8,1.2-0.8,1.6
	c0,0.8,0,1.6,0.4,2.4c0,0.8,0.4,1.2,0.8,1.6c0.4,0.8,1.2,0.8,1.6,1.2c-0.4,1.2-1.2,2-1.2,2.8c-0.4,2.8,1.6,5.6,4.8,5.6h1.2
	c0.4,0,0.8,0.4,0.8,0.8c0,0.4,0,0.8-0.4,1.2c-0.4,0.8-0.8,1.6-1.2,2.4c0,1.6-0.4,3.6,0,5.2c0,1.2,0.4,2.4,1.6,3.2s2.4,1.6,3.2,2.8
	c0.4,0.8,0.4,0.8,0,1.6s-0.8,1.6-0.4,2.4c0.4,2,1.2,3.6,3.2,4c0.4,0.4,0.8,0.4,1.2,0.8c0.4,1.2,0,2.4,0.8,4c0.4,1.2,2,1.2,2.8,2.4
	c-1.2,0.8-1.2,2-1.2,3.6c0,1.2,0.4,1.6,1.2,2.4c0.4,0.4,0.8,0.8,0.8,0.8c0.8,0.8,1.2,0.8,2,0.8c1.2,0,2.4,0,3.2-0.4
	c0.8-0.4,1.6-0.4,2,0.4c0.4,0,0.4,0.4,0.8,0.4c0.8,0.8,2,1.2,2.8,1.2c1.6-0.4,3.2-0.8,4.4-0.8c2.4,0,3.6-1.2,4.8-3.2V642
	c0-0.8,0.4-1.2,1.2-1.6c1.6-0.4,2.4-1.6,2.8-2.8s1.2-1.6,2-2c0.4-0.4,1.6-1.2,1.6-2c0.4-1.2,1.6-2.4,2.8-3.2c0.8-0.8,1.6-1.6,2-2.4
	c0.4-2,0.4-2.4,0-3.6c0,0-0.4-0.4-0.4-0.8c1.2,0,2.8,0,4-0.8s1.6-2,2-3.2c0.4-1.6-0.4-2.8-1.2-4c0.4,0,0.8-0.4,0.8-0.4
	c2-0.4,3.2-1.6,4-3.6c0.4-0.4,0-1.2,0.8-1.6c0.4-0.4,0.4-1.6,0.8-2c0-0.8,0.4-1.2,0-2c0-0.8,0.4-1.6,0.8-2.4v-2
	c0.4-0.4,0.4-0.4,0.8-0.4c2-1.2,2.4-3.2,2.8-5.2v-0.4c-0.4-0.4-0.4-0.8,0-1.2s0-0.8,0.4-1.6c0.4-1.2,0.8-2.4,1.6-3.2
	c1.2-1.6,1.6-3.2,1.6-5.2c-0.4-1.2,0-2,0.8-2.8c0.4-0.4,0.8-1.2,0.8-1.6c0.8-1.2,0.8-1.6,0-2.4c0-0.4-0.4-1.2-0.4-1.6
	c0.4-0.4,0.8-0.8,1.2-1.2c0.4-0.4,0.8-0.8,0.4-1.6c-0.4-1.2-0.4-2.8-0.4-4c0-0.4,0.4-0.8,0.4-1.2c0.8-1.2,1.6-2,1.6-3.2
	s0.4-2.4,1.2-3.2c0.4,0,0.8-0.4,0.8-0.8c0.4-1.2,1.2-2.4,0.4-3.6v-2.8c-0.4-0.4,0.4-0.8,0-1.6V552c1.2-1.2,2.4-2.8,3.2-4v-2.8
	c0.4-0.8,0.4-2,1.6-2.4s1.2-0.8,1.6-2c0-0.8,0.8-2,1.2-2.4c0.4-0.8,0.4-1.6,0.4-2c0.4-0.4,0.4-0.8,0.8-1.2c0-1.2,0.4-2.4,1.2-3.6
	c0.4-1.2,1.6-2,1.6-3.2V528c0.4-0.8,1.2-1.6,0.8-2.8c0,0,0-0.4,0.4-0.4c0.4-0.4,0.4-1.2,0.4-1.6c0-1.2,0-2.4,0.4-3.6
	c-0.4-0.8,0.8-1.2,0.8-2c0.4-0.8,0.4-1.6,0.4-2c-0.4-1.2,0.8-1.2,0.8-2s0.4-1.2,0.4-1.6v-2c0.8-0.8,1.2-1.6,1.2-2.8V506
	c1.2-0.8,1.2-2,0.8-3.2c0.8-0.4,1.2-0.8,0.8-1.6v-2.8c0.4-0.8,0.4-2,1.2-2.8c-0.4-1.2,0.4-2.4,0.8-3.6c0.8-0.8,0.8-1.6,0.8-2.4
	c1.6-2,2-2.4,1.2-4c0.4-0.4,0.8-0.8,0.8-1.6v-0.8c0.4-0.4,0.4-1.2,0.8-1.6s0.4-1.2,0.4-1.6c0.4-0.4,0.4-1.2,0.8-1.6s0.8-0.8,0.8-1.6
	c-0.8-0.8,0.4-1.2,0.4-1.6c0.4-0.4,0.4-0.8,0.4-1.2c0.8-1.2,0.8-2.8,2-3.6h2c0.4,0.4,0.8,0.8,0.8,1.2c1.2,0,2,0,2.8,0.8
	c1.2,0,2,0,2.8,0.8c0.4,0.4,0.8,0.4,0.8,0.4c2,0,3.6,1.2,5.6,2c1.2,0.4,2.4,0.8,3.2,0.8c1.2,0.8,1.6,2,3.2,2c0,0,0.4,0,0.4,0.4
	c0.4,0.4,1.2,0.8,1.6,0.8c1.2,0.8,2,1.2,3.2,2c0.4,0.8,1.2,1.2,2.4,1.6c0.8,0,1.6,0.8,2,1.2c1.2,0.8,2,2,3.2,2.8
	c0.4,0,0.8,0.4,1.6,0.8c1.2,1.2,2.4,2.4,4,3.6c0,0,0,0.4,0.4,0.4c1.6,0.4,2.4,2,3.6,3.6c0,0,0.4,0.4,0.8,0.4c1.2,0.8,2,1.6,2.4,2.8
	c0.4,0.8,0.8,1.2,1.2,1.6c0.8,0.8,1.2,1.6,1.6,2c0.8,1.2,1.6,2,2,3.6c0,0.4,0.4,0.4,0.8,0.8c0.4,0.4,0.8,0.8,1.2,1.2
	c0.4,0.4,0.4,0.8,0.4,0.8c0.4,0.8,0.4,1.6,1.2,2c0.8,0.8,1.6,2,1.6,3.2s1.2,1.6,1.2,3.2c1.2,0.4,1.2,1.6,1.6,2.4
	c0.4,0.8,0.8,2,0.8,2.8s-0.4,2,0.4,2.4c0.8,1.2,0.8,2,0.8,3.2c-1.2,1.2-2.4,0.8-3.6,1.2c-0.4,0.4-1.6,0.4-2,0.4
	c-1.6-0.4-3.2-0.4-4.4,0.4c-0.4,0.4-0.8,0.8-1.6,1.2c0,0.4-0.8,0.4-0.8,0.4c-0.8-0.8-1.6-0.4-2.4-0.4c-0.4,0.8-1.2,0.8-1.2,1.6
	s-0.4,1.6-0.8,2v1.2c0,0.4,0.4,1.2,0.4,1.6c0.4,1.2,0.8,2,0.8,2.8c0.4,1.2,0.4,2.8,0.8,4c0,0.4,0.4,0.8,0.8,0.8c1.2,0,1.6,0.8,2,1.2
	c0.8,0.4,1.2,0.8,1.6,1.2c0.8,1.2,2,2.4,3.6,2.4h0.8c1.6,0.8,2.8-0.4,4.4-0.8c0.4-0.4,0.8-0.4,1.6-0.4c1.6,0,2.8-0.8,4-1.6
	c0.4-0.4,0.8-0.8,1.2-1.2c0.8-0.4,1.6-1.6,2.4-2.4c0.4-0.4,0.4-0.8,0.8-0.8c1.2-0.4,1.6-1.2,1.2-2.4c0-0.8,0.4-1.6,0.8-2.4v-0.8V535
	v-0.8c-1.2-0.8-0.4-1.6-0.8-2.8c1.2-0.8,0-1.6-0.4-2c0-0.4-0.4-0.8-0.4-1.2c-0.4-0.8-1.2-2-1.6-2.8c0-0.4-0.4-0.8-0.4-1.2
	s-0.4-0.8-0.4-1.6s-0.8-1.2-0.8-2c-0.4-0.4-1.2-0.8-1.2-1.6c0-1.2-0.4-2-0.8-2.4c-0.8-0.8-1.2-1.2-1.6-2c-0.4-0.4-0.4-0.8-0.4-1.2
	V513c-0.4-0.4-1.2-0.8-1.2-1.6c-1.2-1.2-2-2.4-2.4-4c-0.8-0.8-2-1.6-2-2.8c0-1.2-0.8-1.6-0.8-2.8c-0.8-1.2-1.6-2.8-2.8-3.6
	c-1.6-1.6-2.4-3.2-4-4.8c-0.4-0.4-0.8-1.2-1.6-1.6c-0.8-0.8-0.8-1.6-1.6-2c-1.2-0.4-2-1.6-2.4-2.8c-0.8-1.2-1.6-2-2.8-2.8
	c-1.2-0.4-2-1.6-2.8-2.4c-0.4-0.4-0.8-0.8-1.2-1.2c-1.2-1.2-3.2-1.6-4.4-3.2c-1.2-0.4-1.6-1.2-2-1.6s-0.8-0.8-1.2-0.8
	c-0.8,0-1.6-0.8-2-1.2c-0.4-0.4-0.8-0.4-1.2-0.8c-0.8-0.4-1.6-0.8-2.4-1.6c-0.8-0.8-1.6-0.8-2.4-1.6h-0.4c-0.8,0-1.6-0.4-2-1.2
	c-0.4-0.4-0.8-0.8-1.2-1.2c-0.8-0.4-1.6-0.8-2.4-1.2c-0.8,0-1.2,0-1.6-0.4c-0.4-0.8-1.6-1.2-2.4-1.2h-1.2c-0.4-0.8-1.6-0.4-2-1.2
	c-1.2-0.8-2-0.8-2.8-0.8c-0.8-0.4-0.8-0.8-1.6-1.2c-0.4,0-1.2-0.8-1.2-1.2c-0.4-0.8-0.8-2,0-2.8V457c0-1.6,0.4-3.2,1.6-4.4
	c0.4-0.8,0.8-1.6,0.4-2.8l0.4-0.4c0.4,0,0.8,0.4,0.8,0.4c0,2,1.6,2.4,2.4,3.6v1.6c1.2,2,2.8,2.8,3.2,4.8c0.4,1.2,1.2,2,2.4,2h0.8
	c0.8,0.8,1.6,1.2,2.8,0.8c0.4,0,0.8,0.4,0.8,0.4c0.4,0.4,0.8,0.4,0.8,0.4c0.8,0,2,0,2.8,0.4c2,0,4,0.4,6-0.4c0.4,0,1.2,0.4,2,0.4
	h1.2c0.4-0.4,0.8-0.4,1.2-0.4h4h0.8c0.8-0.8,1.6-0.8,2.4-0.8h3.2c1.2,0,2.8,0.4,4,0c1.6,0,3.2,0,4.4-0.4c0.4,0,0.8,0,0.8-0.4
	c1.2-0.4,2.4-1.2,4-1.6h4h0.8c0.4-1.2,1.6-0.8,2.4-1.2c1.2-0.4,3.2-0.4,4.8-0.4c0.4,0.8,1.2,0,1.6,0c0.4,0,0.8-0.4,0.8-0.4
	c0.8,0,1.2-0.4,1.6-0.8c0.8,0,1.2,0.4,2,0.4l0.4-0.4c1.2-0.4,2.4-0.8,3.6-1.2c0.4,0,0.8-0.4,0.8-0.4c0.4,0.8,1.2,0.4,1.6,0.4
	c0.4,0.4,0.8,0.8,1.2,0.8s0.4,0,0.4-0.4c0.4-0.4,0.8-0.4,1.2-0.8c0.8,0,1.2,0,1.6-0.4c0.8,0,1.2-0.8,1.6-0.8c0.8-0.8,2-0.8,2.4-0.4
	c1.2,0.4,2,0,2.8-0.4c1.2-0.4,2.4-1.6,3.6-1.2c0.4,0,0.4-0.4,0.8-0.4c0.4-0.4,1.2-1.2,2-1.6c1.6,0,2.8-0.8,4.4-0.4l0.4-0.4
	c0.8-0.8,2-0.8,3.2-0.8c0.4-0.4,0.8-0.8,0.8-1.2h2.4c0.8-0.4,0.8-1.2,1.6-1.2c1.6,0,2.8-0.8,4-1.6s2.4-1.6,3.6-1.6
	c1.2,0,2.4-0.4,3.2-0.8c0.4-0.4,1.2,0,1.6-0.8c0.8-0.4,1.2-0.8,2.4-0.8c0.8,0,1.6-0.4,2-0.8c1.2-0.8,2-1.6,3.2-2.4h0.8
	c0.8-0.4,2.8-1.2,3.2-1.6l0.4-0.4c1.6,0,1.6-1.2,2-2c0.4,0,0.4-0.4,0.8-0.8h1.6c0.8-1.6,2.8-2,4-3.2c2-2,4-3.6,5.6-6
	c0,0,0.4-0.4,0.4-0.8c1.2-0.4,2-1.2,2-2c0.4-0.8,1.2-1.6,1.6-2.4v-2c1.2-0.8,2-1.6,1.6-2.8c0.4-0.4,0.8-0.8,1.2-1.2
	c0-1.2-0.4-2.4,0.8-3.2c0,0,0-0.4-0.4-0.4c-0.4-0.8-0.4-1.2,0-2c0-0.4,0.4-0.8,0.4-0.8c0-2-0.4-3.6,0.4-5.2v-0.4
	c-0.8-0.8-0.4-1.6-0.4-2.4v-2.4c-1.2-0.4-0.8-1.6-1.2-2c-0.4-1.2-1.2-1.6-2-2.4c0-1.6,0-2.8-0.4-4.4v-0.4c-0.4-0.4-0.8-0.8-0.8-1.6
	c0,0,0-0.8-0.4-0.8c-0.8,0-1.2-0.8-1.6-1.2c-0.4-0.4-0.8-0.8-1.2-0.8v-2c-1.2-0.8-1.2-0.8-1.6-2.4c0-0.4,0-0.4-0.4-0.4
	c-0.4-0.8-0.4-1.6-1.6-2c-0.8,0-0.8-1.2-1.2-1.6s-0.8-0.4-1.2-0.8c-0.4,0-0.8-0.4-1.2-0.8s-0.8-1.2-1.2-2c-0.8-1.2-1.2-2.4-2.4-3.2
	c-1.2-0.8-2-2.8-3.6-3.6c-0.8-0.4-1.6-1.6-2.4-2c-0.8,0-1.2-0.8-1.6-0.8c0-1.6-1.2-2-1.6-2.8c-0.4-0.8-1.2-0.8-2-0.8
	c-1.2-0.8-1.6-2-2.8-2.8c-0.8-0.4-1.2-1.6-2-1.2c-0.4-1.2-1.2-1.6-2-2.4c-1.2-0.8-2-1.6-3.6-1.6c-0.4-0.8-0.8-1.6-1.2-2
	c-0.4-0.8-1.2-1.2-1.6-1.6c-1.2,0-1.6-1.2-2.4-2c-0.4-0.4-2-1.6-2.4-2c-1.6,0-2.4-0.8-3.2-2c-1.2-1.6-2.8-3.6-5.2-3.6
	c-0.4,0-0.8-0.4-0.8-0.4c-0.4-0.8-1.2-1.2-2-1.6c-0.4,0-1.2-0.4-1.6-1.2c0-0.8-0.8-1.2-1.6-1.2c-0.8-0.8-1.6-0.8-2.4-1.2
	c-0.8-0.4-1.2-0.8-1.2-2c0,0-0.4-0.4-0.4-0.8c-0.4-0.4-1.2-1.2-1.6-1.6h-3.2c-0.4-0.8-0.8-1.6-1.6-2c-1.2-0.4-1.6-1.6-2.8-2.4
	s-2.4-2-4-2.8c-0.8-0.4-1.6-0.8-2.4-1.6c-0.8-0.8-1.2-1.2-2-1.6c-0.8-0.8-1.6-1.2-2.4-2c-0.4-0.8-1.2-1.2-1.6-2
	c-0.4,0-0.8-0.4-0.8-0.4c-1.2,0-1.6-0.8-2-1.6c-0.4-0.8-1.2-1.2-2-1.6c-0.4-0.4-1.2-0.8-1.2-1.2c-0.4-0.8-1.2-1.2-1.6-1.6
	c-1.2-1.2-2.4-2.4-3.6-3.6c-1.2-1.2-2.4-2.4-3.2-4c-0.4-0.8-1.6-1.6-2-3.2c-1.2-1.2-2-2.4-3.2-3.6c0-0.8,0-2-0.4-2.8
	c-0.4-1.6,0.4-2.4,1.6-3.2c0-0.8-0.4-2,0.4-2.8c0.4,0,0.4-0.4,0.4-0.8v-1.6c0-1.2,0-2,1.2-3.2c0.8-0.8,1.2-1.6,1.2-2.8
	c-0.4-0.4,0-1.2-0.4-1.6c0-0.8,0.4-1.6,1.2-2.4c0.4-0.4,1.2-1.2,1.6-1.6v-2c0.4-0.4,0.8-0.8,0.8-1.6c0-0.4,0.4-0.8,0.8-1.6
	c0,0,0.4-0.4,0.4-0.8c0-0.8,0-1.6,0.8-2.4c0,0,0-0.8,0.4-1.2c0-0.8,0.4-1.2,0.4-2c0.4-0.4,1.2-0.8,1.6-1.6c0.4-0.8,1.2-2,1.6-3.2
	c0.4-0.4,0.8-1.2,0.8-1.6c0-1.2,0.8-1.2,1.2-1.6c0-1.2,0-2,0.4-2.4c0-0.4,0.8-0.4,1.2-0.8v-2.4c0.4-0.4,0.8-1.2,1.2-2
	c0-0.4,0.4-0.8,0.4-0.8c0.4-1.2,0.8-1.6,1.6-2.4v-1.2c0.4-0.4,1.2-1.2,2-2c0-1.2,0-2.4,1.2-3.2v-0.8c0-0.8,0.4-1.2,0.8-2
	c0-0.8,1.2-1.2,1.2-1.6c0-1.2,1.2-2,1.2-3.2c0-0.4,0.8-0.8,1.2-0.8c0.8,0,0.8-0.8,1.2-1.2v-1.6c0-0.4,0.8-1.2,0.8-1.6
	c0-0.4,0-0.8-0.4-1.6h0.4c0-1.2,0.8-2,1.2-2.8s0.4-1.2,1.2-1.2c0.4,0,0.4-0.4,0.8-0.4c0-0.8-0.4-1.2-0.4-2h2
	c0.8-0.8,1.2-1.2,0.8-1.6c-0.8-1.2-0.8-2,0.4-3.2c-0.4-0.8,0.4-0.8,0.8-1.6c0,0,0.4-0.4,0.8-1.2V201c0.8-0.8,1.2-1.2,1.6-1.6v-1.2
	c0-1.2,0-2,0.4-2.4s0.8-0.8,1.2-1.2s0.8-0.8,0.8-1.6c0-0.4,0.4-1.2,1.2-1.6c0.4,0,1.2-0.4,1.2-1.2c-0.4-0.8,0-1.6,0.8-2.4
	c0.4-0.4,0.4-0.8,0.4-1.2c0-0.8,0.4-1.2,0.8-1.6c0.4-0.4,0.8-0.8,0.8-1.2c0.4-0.8,0.8-1.6,1.2-2.4c0-0.8,0.8-2,0.8-2.8
	s-0.4-1.6-0.4-2.4c-0.4-0.4-0.4-0.8,0-1.2l0.4-0.8h3.6c-0.4-2,0.8-2.4,2-2.8c0-0.4,0.4-1.2,0.4-1.2c-0.4-0.8,0-1.2-0.4-1.6
	c-0.4-0.8,0-1.2-0.4-2c1.2-0.4,2.4-0.4,2.8-1.6c0.4,0,0.8,0.4,1.2,0c1.2,0,1.6-1.6,0.8-2.4c-0.8-1.2-0.8-1.2,0-2
	c0.4-0.4,0.8-0.4,1.2-0.8v-2c0.8-0.8,1.6-2,2.8-2.8h0.4c1.2-1.2,1.2-1.2,0-2.4c0-0.4-0.4-0.8-0.8-1.2c0,0,0-0.4-0.4-0.8h2.4v-2.8
	c1.6-0.8,1.6-0.8,2.4-3.6c-0.8-0.8-2-2-2.8-2.8h3.6c0.8,0,1.6-0.4,2-1.6c0.4-0.8,0.8-2,0.4-3.2h2.8c0.4-0.4,0.8-0.8,0.8-1.2
	c0-0.8,0.4-1.2,0.8-1.6c-0.4-0.8-1.2-1.6-0.8-2.8c0.8-0.8,2-1.6,3.6-2c0-1.6-0.4-2.8-0.8-4c-0.8-1.2-0.4-1.6,0-2.4s1.2-1.2,2.4-1.6
	c0.4,0,0.4,0,0.4-0.4c0.4-0.4,0.8-0.4,0.8-0.8c0.8,0,0.8-0.8,1.2-1.2c0.4-0.4-0.4-0.8-0.4-1.2c-0.4-0.8-0.4-1.2-0.4-2
	c0.4-0.4,0.8-0.8,1.2-1.2c0-0.4-0.4-0.8-0.4-1.2c0-0.8,0-1.6-0.4-2.4c-0.4-0.4-0.8-1.2-0.4-2v-2.4c0-0.4,0-1.2-0.8-1.2
	s-1.2-0.8-0.8-2c0.4-0.4,0-0.8,0-1.2c-0.8-0.8-0.8-1.6,0-2.4c0.4-0.4,0.8-0.8,1.2-1.6c1.2-1.2,0-2.4,0-3.6c0-0.4-0.4-0.4-0.4-0.4
	c-0.4,0-0.4-0.4-0.8-0.8c-0.4-0.8-0.8-2-0.4-2.8c-0.4-0.4-0.8-0.8-0.8-0.8c-0.4-0.4-1.2-0.4-1.6-0.4c-0.8,0.8-1.6,1.2-2.4,2
	c-0.8,1.2-1.2,1.2-2.4,0.8c-1.2-0.8-1.2-0.8-2,0.4c0,0-0.4,0.4-0.4,0.8c-0.4-0.4-0.8-0.8-1.2-1.2c-0.4-0.4-1.2-1.2-1.6-0.8
	c-0.8,0.4-0.8,0.8-0.8,1.2c0,1.2,0.4,2,1.2,2.8v0.4c-0.4,0.4-0.8,0.4-0.8,0.4c-0.4-0.4-0.8-1.2-1.6-2c-0.8,0.8-1.6,1.2-2.8,0.8
	c-0.4,1.2-0.4,1.6-1.2,2c-0.4,0.4-1.2-0.4-1.6-0.4c-0.4-1.2,0.4-2.4,0.4-3.2c0-1.6-0.8-2.8-2-3.6c-0.4,0-1.2-0.4-1.6-0.8
	c-0.4,0.4-1.2,1.2-1.2,1.6c-0.4,0.4-0.4,1.2,0,1.6c0.8,0.4,0.8,0.8,0.4,1.2c-1.2,0.4-2-0.8-3.6,0c-0.4-0.4-0.8-0.8-1.2-1.2h-1.2
	c-0.8,0-1.2,0-1.2,1.2c0,0.4,0,1.2-0.4,1.6c-0.4,0-0.4,0.4-0.4,0.8c-0.8-0.4-1.2-0.4-1.6-0.8c-0.4,0.8-0.8,1.2-1.2,2
	s-0.8,1.2-1.6,1.2c-1.2,0-2,0.8-2.8,1.2c-0.8-0.8-1.2-1.2-2-1.6l-0.8,0.8c-0.4,0.8,0.4,2-0.8,2.4H561c0-0.4,0-0.4-0.4-0.4
	c-0.8-0.4-2-0.8-3.2,0c-0.4,0.4-1.2,0.4-2,0.8c-1.2,0-2,0.8-2.8,1.6h-1.2c-2,2.4-2.4,2.4-3.6,1.6c-0.4,0.8-1.2,1.2-1.6,2h-3.6
	c0,0.4-0.4,0.4-0.4,0.4c-0.8,1.6-2.4,2-4,2.4c-0.8,0-1.2,0-2,0.4h-0.8c-0.8-0.4-1.6-0.8-2.4-0.4c-0.8,0.4-2,0.4-2.8,0
	s-1.2-0.4-2-0.4c-1.2,0-2.4,0-3.6-0.8c-0.4,0-1.2-0.4-1.2,0c-0.8,0.8-1.2,0-1.6,0c-0.8-1.2-2-0.4-2.8-0.4c-0.4,0-0.4,0.4-0.8,0.4
	c-0.8,0.4-1.2,0.4-2.4,0c-0.4-0.4-1.2-0.8-2-0.8c-0.4,0-0.4,0-0.8,0.4c-0.4,0-1.2,0.4-1.6,0.4c-0.4-0.8-1.2-0.4-2-0.4s-2,0-2.8-0.8
	H506c-1.2,0-2.4-0.4-3.2,0c-0.8,0.4-1.2,0-1.6,0s-1.2-0.4-1.6-0.8c-0.4,0-0.8,0-1.2,0.4c-0.8,0.4-1.2,1.2-2,0.4H496
	c-1.2,1.2-2.4,0.8-3.6,0.8c-0.8,0-1.6,0-2.4,0.8c-0.8-1.2-2-0.8-2.4-0.8c-0.8-0.8-1.2-1.6-1.6-2c-0.8-0.4-1.2-0.8-2-1.2
	c-0.8-0.4-1.6-0.4-2.4-0.4c-0.8-0.4-1.6-1.2-2-1.6c-0.8-0.4-1.2-1.2-1.6-2V99v-2.8c-0.8-0.8-1.2-1.6-2-2.4c-0.8,0.4-1.2,0.8-2,1.2
	c-0.8-1.6-0.8-3.2-0.4-4.4c0.4-0.8,0-1.6,0-2c-0.8-1.6-1.6-2.4-2.4-3.2c0-0.4-0.4-0.4,0-0.4c0.4-0.8,0.4-1.6-0.4-2.4
	c-0.4,0-0.4,0-0.4-0.4c-0.8-1.2-1.2-1.2-2.4-0.4c0,0.4-0.4,0.4-0.4,0.4c-0.4-0.4-0.8-0.8-1.2-1.2c0.8-0.8,1.6-1.2,2-2
	c0-0.4,0.4-0.4,0.4-0.4c1.2-0.4,1.2-1.2,1.2-2c-0.8-0.4-1.6-0.8-2.4-1.2V73c-0.4,0-0.8-0.4-0.8-0.8c-0.8-0.4-1.2-1.2-0.8-2
	c0.4-0.4,0-0.8,0-1.2c-0.4-1.2-0.4-2.4,0.4-3.2c-0.4-0.4-0.4-0.8-0.8-1.2c-0.4,0.4-0.4,0.8-0.4,1.2c-0.8-0.4-1.2-0.4-1.6-0.4
	c-0.4-1.2,0.4-2.4-0.8-3.2c0.4-0.4,0.8-1.2,1.6-1.6c-0.4-0.8-0.4-1.2-0.8-2c0-0.4,0-1.2-0.4-1.6c-0.8-1.2-1.2-2.4-1.6-4
	c-0.4-1.2-1.6-2-3.2-2c-0.8,0-1.6-0.4-2.4-1.2h-0.8c-1.2,0-2,0-2.4-1.2c-0.4-0.8-1.2-1.2-2-1.6c-0.4,1.6-0.4,1.6-2.4,1.6v-1.2
	c0.4-0.4,0.4-0.8,0.8-1.2c-2.4,0.4-4.4-0.8-6.8-0.8c-0.4,0.4-0.8,0.8-0.8,1.2h-2c-0.8,2-2.4,2.8-4,3.2c-0.4,0-0.8,0.4-0.8,0.8
	c-0.8,0.4,0,0.8,0,1.2c0.8,1.2,0.8,1.2,0.4,2c-0.8-0.4-1.2-0.8-1.2-2c-0.8,1.2-1.2,1.6-2,2c-0.4,1.6,1.2,1.2,1.6,2
	c-0.8,1.2-1.2,2-2,3.2c-0.8-0.4-1.2-0.8-2-1.2c-0.8,1.2-0.8,1.6,0.4,2.4c0.8,0.4,0.8,0.8,0.4,1.6c-0.4,0.4-0.4,0.4-0.4,0.8v2
	c-0.8,0.4-1.2,0.8-1.6,1.6c0,0.4,0,0.8,0.4,1.2c0.4,0.4,0.4,0.8,0.4,1.6c0,2.4,0.4,4.4,2,6.4h-0.8c-0.4,1.2,0,2.4,1.2,3.2
	c-0.4,0.4-0.4,0.8-0.4,1.2c-0.4,2,0.4,3.6,1.6,4.8c1.2,0.8,2,1.6,2.8,2.4v2c0.8,0.8,2.4,1.2,2.4,2.8c0.8,0,0.8-0.8,1.2-1.2
	c1.6,1.2,2.8,3.2,4.8,4.4c0.4,0,0.8,0.8,0.8,1.2c-0.4,1.6,0,1.6,0.8,2.4s2,1.2,2.4,2.4c0.8,0.8,1.6,2.4,2.8,2.8
	c0.4,0.4,0.8,0.4,1.2,0.8c0.4,0.8,1.2,0.8,2,1.2c1.2,0.4,1.6,1.2,2.4,2h2.4c0.4,0.4,0.8,0.8,1.2,1.2c0.4-0.4,1.2-0.8,2,0
	s1.6,1.6,2.4,2h4c1.2,1.2,2,2,3.2,2.8c0.8,0.4,1.6,0.8,2.4,0c0.4,0.4,0.4,1.2,0.8,1.6c0.4,0,1.2,0.8,1.2,0.4c0.8,0,1.2,0.4,1.6,0.4
	c0.4,0.4,1.2,0.4,2,0.4s1.6,0,2,0.4c0.8,0.4,1.6,0.8,2.4,0.8s1.2,0,2,0.4c2,0.8,4,1.6,5.6,3.2h0.4c1.2,0.4,1.6,1.2,2.4,2
	c2,0,3.2,0.4,4.4,1.6c0.8,0.8,1.2,0.8,2.4,0.4c0-0.4,0.4-0.4,0.4-0.4c0.8,0,2-0.4,2.8,0.4c0.8,0.4,2,0.8,2.8,0.8h0.8
	c1.6,0.8,3.6,0.8,5.6,1.2c1.6,0.4,3.2,0.8,5.2,0.4c0.8,0,2,0.4,2.4,1.2c0.8,0.4,1.6,0.4,2,0.4h2c0.8,1.2,2.4,1.6,2.8,3.2
	c1.2,0,2.4,0,3.6,0.4c1.6,0.4,3.6,0,5.6,0.4h2.8c0.4,0,0.8,0,1.2,0.4c0,0,0.4-0.8,0.8-0.8c1.2,0,2-0.4,3.2,0.4
	c0.8,0.4,1.6,0.4,2.4,0.4c0.8,0,2,0,2.4-0.8h0.8h2.8h2.8c0.8,0,1.6-0.4,2.4,0h0.8c1.6-1.2,3.2,0,4.8,0.8v1.6
	c-0.4,0.4-0.8,0.8-1.2,1.2h-0.4c0.4,0.4,0.4,0.8,0.4,0.8c-0.4,0.8-1.2,2.8-1.2,3.2v3.6c0.8,0,1.2,0.8,1.6,1.6
	c-0.4,0-0.8,0.4-1.2,0.4c-0.8,0-1.2,0.4-1.6,0.8c-0.4,0.8-0.8,1.2-1.2,1.6c-0.4,0.4-0.8,0.8-0.8,1.6c-0.4,0.8-0.4,1.6-1.6,2
	c0,0-0.4,0.4-0.4,0.8c0,0.4-0.8,0.8-0.8,1.2s0,0.8-0.4,1.2c-0.8,0.4-1.6,0.8-2,1.2c-0.4,1.2-0.4,2,0.4,2.8c0.8,0.4,1.2,1.2,0.8,2.4
	c-0.4,0-0.8,0.4-1.2,0.8v0.8c-0.8,0-1.2,0-1.6,0.8c-1.2,1.2-1.6,2.4-1.2,4c-0.4,0.8-1.2,1.2-1.6,1.6v2.8c-0.4,0.4-0.8,0.8-0.8,1.2
	c-0.4,0.4-0.4,0.8,0,0.8c0.8,0.8,0.4,1.6,0.4,2.4c-1.2,1.6-2.8,2.4-4.4,3.2c0,1.6-0.4,2.8,0.4,4.4c0,0-0.4,0.4-0.4,0.8
	c-0.4,0.8-1.2,1.6-1.2,2.8c-1.2,0.4-0.8,1.2-1.2,2c0,0.4-0.4,1.2-0.4,2s-0.4,1.6-0.8,1.6c-1.2,0-1.2,0.8-2,1.2c0,1.2,0,1.2-0.4,2
	s-0.4,2,0.4,2.8c-0.4,0.4-1.2,0.8-1.6,1.2c0.4,1.2,0.4,2-0.4,2.8v0.8c0,0.8-0.8,1.2-1.2,1.2c-0.4,1.6,0,3.6-0.4,5.2
	c-0.4,0.8,0,1.6,0,2.4c0,1.2,0.4,2,0.4,2.8c-0.8,0.8-1.2,1.2-2,2c0,1.2,0,2.4-0.4,3.2s-0.8,0.8-1.6,1.2c0,0.8,0,1.6-0.4,2.4
	c-0.4,0.8-0.4,1.2-0.8,1.6c0,1.2-0.4,2,0,2.8c0.8,1.2,0.8,1.2-0.4,2c-0.4,0-1.2,0.8-1.2,0.8c0,1.2-0.8,2-1.2,2.8v0.8
	c0,1.2-0.4,2.4-1.2,3.2c-0.4,0.8-0.8,1.6-0.8,2.4c0,0.4-0.4,0.8-0.8,0.8c0,0.4-0.4,0.4-0.8,0.4c0.4,0.8,0.8,2,0,2.8
	c-0.4,1.2-1.2,1.6-2,2.4c-0.8-1.2-1.2-2.4-2-3.6v-1.6c-0.8-0.8-1.6-1.2-2-2s-0.4-1.6-1.2-2.4c0.8-1.2,0.4-2.4,0-3.6
	c0-0.4-0.4-1.2-0.8-1.6c-0.4-0.8-0.4-1.6-0.8-2c-0.8-0.8-1.2-2.4-2.8-2.4c-0.4,0-0.4-0.4-0.8-0.8c-0.4-0.4-0.4-1.2-0.8-1.2
	s-1.2,0-1.6,0.4h-0.4h-0.4c0.4-0.8,0.4-0.8,0.8-1.2c-0.4-0.8-0.8-1.2-0.8-2c0-0.4,0.4-0.8,0.4-2c-1.2,0.8-2.4-0.8-4-0.4
	c0.8,0.8,0.4,1.2,0.4,2H504v-1.6c0-0.8-0.4-1.2-1.2-1.2c-0.8,0-1.6,0.4-2.4,0.4v-0.8c0-0.8-0.4-1.2-1.2-1.2c0,0-0.4,0.4-0.8,0.4
	c-0.8,0-1.6,0.4-2.4,0.8c-0.4,0.4,0,1.2-0.4,2c-0.8-0.4-1.6-0.4-2-0.8c-0.8-0.4-1.2-0.8-1.6-1.2s-0.8-0.8-1.6-0.8H488
	c-0.4,0.8-0.4,1.2-0.8,1.6h-2h-0.4c-1.2-0.4-1.6-0.4-2,0.4c-0.4,0.4-0.4,0.4-0.4,0.8c-0.4,0-0.8-0.4-0.8-0.4
	c-0.4-0.4-0.8-0.8-1.2-0.8c-0.4,0-0.8,0.4-0.8,0.4c-0.4,0.4-0.8,0.4-0.8,0.4h-1.6c0,0.8-0.4,1.2-1.2,1.2c-0.8,0-1.2,0.4-1.2,1.2
	c0.4,0.4,0.4,1.2,0.8,1.6c-0.4,0.4-0.4,1.6-2,1.6v-1.2c0-0.4,0-0.8-0.4-0.8c0-0.4,0-0.8-0.4-0.8c-1.2-0.4-2-0.4-3.2-0.4v1.6
	c-1.2,0-1.2-1.2-2.4-1.2c-0.8,0.4-1.2,0.4-2,1.2c0.4,0.8,0.8,1.6,2,2c0.4,0.4,1.2,0.8,0.8,2c-0.8,0-1.2,0-2-0.4
	c-0.4,0.4-0.8,1.2-1.2,1.6c-2,0-3.2-1.2-4.8-1.6c-0.4-0.4-0.8-1.2-1.2-1.6c-0.8,0-2,0.4-3.2-0.4c0,0-0.4,0-0.4,0.4
	c-0.4,1.2-1.2,0.4-2,0.4v1.6c-2.4,0-2.4,0-3.2,0.4c0.4,0.4,0.8,1.2,0.8,1.6c-0.4,0.4-0.8,0.8-1.6,1.2c-0.4,0-1.2,0.4-2,0.4v2.4
	c-1.6-0.4-2.4,1.6-4.4,1.6c-0.4-0.8-0.8-1.2-1.2-2c0-0.8-0.4-1.6-0.8-2c0.8-1.2,1.2-1.6,2-2.4c1.2,0,2.4,0,3.6,0.4
	c0.4-1.6,0-2.4-0.8-3.6c-0.4-0.4-0.8,0-1.6-0.4c0-0.8,0-1.2,0.4-2c0.4-0.4,1.2-0.8,1.2-1.2c0-0.8,0-1.6,0.4-2c0.4-0.8,0.4-1.2,0-2
	c0-0.4-0.4-0.8-0.4-0.8c-0.4-0.4-0.8-0.8-1.2-0.8c0-1.2,0.8-1.2,1.6-1.2c0-0.8,0-2-0.8-2.8v-0.8c-0.4-1.2,0.4-2.4,0.8-3.2
	c-0.4-0.4-0.8-0.8-0.8-0.8c0.4-0.8,0.8-1.6,1.2-2c-0.4-0.8-0.8-1.2-0.8-2c0-1.2-0.4-2-1.2-2.4c1.2-1.6,0.8-2.8,0.4-4
	c-0.8-1.2-0.4-2,0-3.2c0.4-0.8,1.2-1.6,1.2-3.2c-0.4,0-0.8-0.4-1.2-0.8c0.4-0.8,0.4-1.6,0.4-2.4c-0.4,0-0.8-0.4-1.2-0.8
	c-0.8-0.8-0.8-0.4-0.4-1.6c0.4-1.6,0.4-1.6,0-3.2c-0.4-0.8-0.8-1.6,0-2.4V181c0-0.4,0-0.8-0.4-1.6c-0.4-0.4,0.4-0.8,0-1.6
	s-0.4-1.6-0.4-2.4c0.4-0.8-0.4-1.2-1.2-1.6V171c0.4-1.2-1.2-2-0.4-2.8c-0.8-0.8-0.8-1.6-1.2-2c-0.8-0.8-0.8-1.6-0.4-2.4
	c0,0-0.4-1.6-0.4-2c-1.2-0.8-1.2-2.4-1.2-4c-0.4-0.4-0.4-0.8-0.8-1.2c-1.2-1.2-1.2-2.8-1.2-4.4c0.4-0.4,0-1.2,0-1.2
	c-0.8-0.8-1.6-1.2-2.4-1.6V147c-0.4-0.4-0.8-0.4-1.2-0.8c-0.4,0.4-0.8,0.8-1.6,1.6c-0.4-1.6,0.4-2.4,1.2-3.2
	c-0.4-0.4-0.8-0.8-1.2-1.2c-0.4,0-0.8,0.4-1.2,0.4c-1.2-0.4-2.8-1.2-3.6-2.4c-0.4-0.4-0.8-0.8-1.2-0.8c-0.8,0.4-1.2,0.4-1.2,0
	c-0.8-1.2-1.6-2.4-1.2-4v-0.8c-0.8-0.8-1.2-1.2-2-1.6c-0.4-0.8-1.2-1.2-1.2-2.4l-0.4-0.4c-1.2-0.8-2.4-0.8-3.6-0.8
	c-0.8-2-1.2-3.6-3.2-4.4c-0.4,0-0.4,0-0.8,0.4c-0.4-0.4-1.2-0.4-0.4-1.2v-1.6c0-0.4,0-1.2,0.4-1.6c0.4-0.8,0.4-1.2,0.4-2
	c-0.8-0.8-1.6-1.6-2.8-2c-0.8,0-1.2-0.4-2-0.8c-0.8,0-1.6-0.4-2.4-0.8c-0.4-0.4-0.8-0.4-1.2-0.8c-0.8-0.4-0.8-1.2-0.4-2V113
	c0.4-0.4,0.4-0.8,0-1.2c0-0.8-0.4-1.2-0.4-2c-1.2-0.4-1.6-1.6-2.4-2h-3.2c-0.4-0.8-0.8-1.2-1.2-1.6c0-0.8-0.8-1.2-0.4-2
	s0.4-1.6,0.8-2c0-0.4,0.4-0.4,0.8-0.4v-1.6c0-1.2-0.4-2-1.6-2.8c-0.4-0.4-0.8-0.4-0.8-0.8c-0.8-0.4-1.6-2.4-0.8-2.8
	c0.4-0.8,0.4-1.6,0.4-2.4c-0.4,0-0.4-0.4-0.8-0.8c-1.2-0.4-1.2-0.8-0.8-2c1.2,0,1.2,0,1.6-0.8c-0.4-0.4-0.4-0.8-0.8-1.6
	c-0.4-0.8-0.8-0.4-1.2-0.8v-0.8c0.4,0,0.4,0,0.8-0.4c0.4-0.8-0.8-1.6-0.4-2.4c0.8-0.4,1.6-0.8,2-0.8c0.4-1.2-0.4-2-0.8-3.2
	c0.8-0.8,1.2-1.6,0.4-2.4V75c0.4,0,0.8-0.4,1.2-0.4v-2.8c0.4-1.2,0.4-2.4,0-3.2c0-0.4-0.4-0.8-0.4-1.2c0.8-0.4,1.2-0.4,2-0.8
	c0-1.2-0.4-2,0-3.2c0-0.8-0.8-1.2-1.2-2c-1.6-0.8-1.2-2-1.2-3.2h1.2c0-1.6,0-1.6-1.2-2.4c-0.4,0-0.4-0.4-0.8-0.4
	c-0.4-0.4-0.4-1.2,0-1.6l0.8-0.8c0-0.4-0.4-0.4-0.4-0.8c0-1.2-0.4-2.8-1.6-4c0-0.4,0.4-0.8,0.4-1.2c0.4-0.4,0.4-0.4,0.8-0.4
	c-0.4-2-0.8-2.4-2-2c-0.8,0-0.8-0.4-1.6-0.4c0.8-0.8,1.2-1.2,2-1.6c-0.4-0.8-0.4-1.2-0.8-2c0,0,0-0.4-0.4-0.8
	c0.4-0.8,1.2-0.8,1.2-1.6s0-1.6-0.4-2c-0.4-0.8-1.2-0.8-1.6-0.4c-0.8-0.8-1.2-1.6-2-2h-0.8c-0.8-0.4-1.6-0.8-2.4-1.2
	c-0.4-0.4-0.8-0.4-1.6,0c-0.8-1.6-2-2-3.6-2v-0.8c-0.8-1.2-1.6-2-2-2.8c0-0.8-0.4-1.2-0.8-1.6c-0.4,0-0.8,0.4-0.8,0.4
	c-0.8-1.2-2-0.8-3.2-0.8c-0.4,0-0.8,0-1.6-0.4h-0.8c-0.8,0.8-2,1.2-2.4,2l0.8,0.8c0.4,0.4,0.8,0.8,0.8,1.2c-0.4,0.4-0.8,0.8-1.2,0.8
	v3.2c-0.4,0.4-1.2,0.8-0.4,1.6c0,1.2,0.4,2-0.4,3.2c-0.4,0.4-0.8,1.2-0.8,2c0.4,1.2,0,2.4-0.8,3.2c0.8,0.4,1.2,0.8,1.6,1.2
	c0,0.8,0.4,1.6-0.4,2c0,0.4,0,0.8-0.4,1.2v1.6c0.4,0.8,0.8,2,0,2.8c0,0,0.4,0.4,0.4,0.8c0,0,0.4,0.4,0,0.4c-0.4,1.2,0,2.8-0.4,4
	c-0.8,0.4-1.2,1.2-1.2,2.4c-0.8-0.4-1.6,0-2,1.2c-0.4,0.4-0.8,0.8-1.6,1.2c-0.4,0-1.2,0.4-1.2,1.2s-0.4,1.6-1.2,2.4
	c0,0.4-0.4,0.8-0.4,1.2c0,0.8,0,1.6-0.4,2c-0.8,1.2-0.8,2.4-0.4,3.6c0,1.2-0.4,2.4-1.2,3.2c-0.4,1.2-1.2,2.4-2.8,2.8
	c0,0-0.4,0-0.4,0.4c0.4,0.8,0.8,2,1.6,3.2c-0.8,0.4-1.2,0.8-2,1.6c0.4,0.8,0.8,1.6,0,2.8c-0.4,0-0.4,0.4-0.4,0.4v1.6
	c-1.6-0.4-1.6,1.2-2,1.6c0.4,0.4,0.8,0.8,0.8,1.2c0,1.2,0.4,2.8-0.4,4c-0.4,0.8-0.4,1.2-0.8,2c0.8,0.4,0.4,1.2,0.4,1.6
	c1.2,0.8,0,2,0,2.8c0,0.4-0.8,1.2-1.6,1.6c-0.4,0-1.2,0-1.6,0.4c-0.4,0.8,0.4,1.6-0.4,2.4c0,0.8,0.4,1.6,0.8,2.4
	c-0.8,0-1.6,0.4-2,0.4c0,0.8,0,1.6-0.4,2.4c-0.4,0.4-1.2,0.4-1.6,0.8c0,1.2,0,2,0.4,3.2c-0.8,0.4-1.2,1.6-1.2,2.8
	c0,0.4,0.4,0.8,0,1.2c-0.8,1.2-0.8,3.2-2.4,4c-0.4,0-0.4,0.4-0.4,0.4v2.4c0,1.2,0,2-0.8,2.8c-0.4,0.4-0.8,1.2-0.8,1.6
	c0.8,0.8,0,2,0.4,3.2c-0.4,0.4-0.8,0.8-1.2,1.2c-0.4,0.4-0.8,1.6-0.4,2c0.8,0.8,0,1.6,0.4,2.4c-0.4,0.4-0.8,1.2-1.6,1.6
	c0,0.4,0.4,0.4,0.4,0.8c-0.8,1.2-1.6,2-2.8,2.8c0.4,0.8,0.8,1.6,1.2,2.8c-0.4,0.4-1.2,0.4-1.6,1.2c0,0.4-0.4,0.8-0.4,1.2
	c0,1.2-0.4,2.8-0.8,4c-1.2,0-0.8,1.6-1.6,2v0.8c0.8,0.4,0.8,1.2,0.8,2c-1.6,1.6-2.4,3.2-2.4,5.2c0,0.8-0.4,1.2-0.4,1.6
	c0,0.4-0.4,0.8-0.4,0.8c0,0.8-0.4,1.6-0.8,2c0,0.4-0.4,0.4-0.4,0.4c0.4,1.2-0.4,1.6-1.2,2.4v2.4c-1.2,1.2-1.6,2.4-1.2,3.6
	c0,0.4,0,0.8-0.4,0.8c-0.8,0.8-0.4,1.6-0.4,2.4c0,0.4-0.4,0.4-0.4,0.8c0,0.8-0.8,1.2-0.8,2c-0.4,0.8-0.4,1.6-0.4,2.4
	c-1.2,0.4-0.4,1.6-0.8,2.4c-0.8,0.8-0.4,1.6-1.2,2v0.8c0,1.2-0.4,1.6-0.8,2.4c-0.4,0.8-1.2,2-0.8,2.8c0.8,1.2,0.4,1.6-0.4,2.4
	c-0.4,0.8-0.8,1.2-1.2,2c-0.4,0.4-0.4,0.4-0.4,0.8c-0.4,0.4-0.8,0.8-0.8,1.2s0.4,0.8,0.8,1.2c-0.4,0.8-1.2,1.6-0.8,2.4
	c0,0.4,0.4,0.4,0,0.8c-0.4,0.4,0,1.2,0,1.6c-0.4,0.8-0.8,2-2,2.4c-0.8,0.4-1.6,0-1.6-0.8v-1.6c0.8-1.6,1.2-2.8,2.4-3.6
	c-0.8-1.6-0.4-2.8-0.4-4.4c0-1.2,0.8-2,0.4-3.2c-0.4-0.8-0.4-2,0-2.8c0.4-0.4,0.8-0.8,0.8-1.2c0-1.2,0.4-2.4,0.8-3.2
	s0.8-1.6,0.8-2.4c-0.4-0.4,0-0.8,0-1.2c0.4-0.4,0.4-0.8,0.4-1.6s0.4-1.6,1.2-2.4c0.8-0.4,1.6,0.4,2.4-0.8c-2-1.6-2-3.6-2-6
	c0.8,0,1.2-0.8,1.2-1.6v-2.8c0.4-0.4,0.8-0.8,0.8-1.2c0.4-1.6,0-3.2,1.2-4.4c-0.4-1.2,0.4-1.6,1.2-2v-1.2c0-0.8,0-1.6,0.4-2.4
	c0.8-0.8,1.2-2,1.2-3.2c-0.4-0.8-0.4-2-0.4-3.2c0.4,0,0.8-0.4,1.2-0.4v-3.6c1.6-0.4,1.6-0.8,0.8-2.4c0.4-0.4,0.8-0.8,1.2-0.8
	c0-0.8,0-1.2,0.8-2c0.4-0.4,0.8-1.2,0.8-2.4c0-0.4,0-1.2,0.4-1.6c0.8-0.8,0-1.6,0.8-2s0-1.2,0.4-2c0.8-0.4,0-1.6-0.4-2
	c-0.4-0.8-0.4-1.6,0-2c0.8-0.8,0.4-1.6,0.8-2.4c0.4,0,1.2-0.4,1.2-0.8c0.4-0.8,1.2-1.2,1.6-2c1.2-0.8,1.2-1.6,0.8-3.2
	c0-0.8,0.4-1.2,0.8-2c0-0.4,0.4-0.4,0.8-0.8c0.4-0.8,1.2-1.6,0.4-2.8c-0.4-0.8,0-2,0.8-2.4c0.4-0.8,0.8-1.6,1.2-2.4
	c0-0.8,0.4-1.6,1.2-2c-0.4-0.8-0.8-1.2-0.4-1.6c0.4-0.8,0.4-1.2,0-2s0-1.6,0.4-2.4c0-0.4,0.4-0.4,0.4-0.8c0.8-1.2,0.8-1.2,0-2.4
	c-1.2-0.8-2-2.4-1.6-4c-0.8-0.4-1.6-0.8-2.4-1.6c-0.4,0-2-0.8-2.4-0.8c-0.8,0.4-1.6-0.4-2-0.8c-1.2-0.8-2.4-1.6-4-1.2
	c-1.6,0-3.6,0.8-4.4,2.4c-0.4,0.8-1.2,1.2-1.6,1.6c-1.2,0.8-2,1.6-2.8,2.4c-0.8,1.2-2,2.4-2.8,3.2c-0.4,0.8-0.8,1.6-1.2,2v2.4
	c0,1.2-0.4,2-1.2,2.8c-0.8,0.8-1.2,1.6-1.6,2.8c-0.4,0.8-0.4,1.6-0.8,2.4c-1.2,1.6-1.2,3.2-0.4,4.8c0,0.4,0,0.8-0.4,1.2
	c0,0.8-0.8,1.2-1.2,2.4c-0.4,0.8-0.4,2-0.8,3.2v2.8c0.4,0.4,0,0.8,0,0.8l-0.8,0.8c0.4,0.8,0.4,1.6,0,2.4c-0.4,0.4,0,1.2-0.4,2
	s0.4,1.2,0.4,1.6c0,0.4-0.4,0.4-0.4,0.8c-0.4,0.4,0,0.8,0,1.2c-1.6,0.8-1.6,1.2-0.8,2c0.4,0.8,0.4,1.2,0,1.6
	c-0.4,0.4-0.4,0.4-0.4,0.8c-0.4,0.8-0.4,2-0.4,3.2c-0.4,0.8,0.4,2-0.8,2.8v0.8c0,1.2-0.4,2-0.4,2.8c0,0.4-0.4,0.8-0.8,0.8
	c-0.8,0-1.2,0.4-1.2,1.2s-0.4,2-0.8,2.8h-1.6c-0.8,0-0.8,0.4-0.8,1.2v1.6c0.8,1.6,2-0.4,3.2,0.4c-0.4,0.4-0.8,0.4-1.2,0.4
	c-0.4,0.4-0.4,0.8-0.8,1.2c0.4,0.4,0.8,0.8,0.8,1.6c-0.4,0.4-0.8,0.4-1.2,0.8v2.4v2.4h-1.6c0,0-0.4,0-0.4-0.4
	c-0.8-0.8-0.4-2.4-1.6-3.2v-0.8c-0.4-0.8-0.4-2-0.4-2.8c-0.4-1.2-0.4-2,0-2.8c0-1.2,0-2.4-0.4-3.6c1.2,0,0.4-1.6,1.2-2
	c-0.4-1.2-1.2-2-1.6-2.4c0.8-0.8,0.8-1.6,0-2.4c-0.4-0.4-0.4-0.4-0.4-0.8c0-0.8,0-1.2-0.4-2v-1.2c0.4-0.4,0.8-0.8,1.2-1.2
	c0.4-1.2-0.4-2,0-3.2c0,0,0-0.4-0.4-0.4c-0.4-0.8-0.4-1.2-0.4-1.6c0.8-1.2,1.6-2,2-3.2c0.4-0.4,0.4-0.8,0-1.6s-1.2-1.6-2-2.4
	c-0.8-1.2-0.4-1.6,0.4-2.8c0.4-0.8,0.4-2,0.8-2.8c0-0.4,0-0.4-0.4-0.4c-0.8-0.4-0.4-0.8-0.4-1.2c0.4-1.2,0.4-3.2,0-4
	c-0.4-0.4-0.4-0.8,0-1.2c0-0.8,0-1.6-0.4-2s-0.4-0.8-0.4-1.2c0.8-0.4,1.2-0.8,1.6-1.2v-3.6c-0.4,0-1.2-0.4-1.2-0.8l-1.2-1.2
	c1.2-2.4,1.2-2.4,1.2-4.4v-2.8c-0.4-1.6-0.4-2.8-1.2-4.4c-0.4-0.8-0.8-1.6,0.4-2.4V95c0.8-1.6,1.2-3.2,0.8-4.8
	c-0.8-0.4-1.6-1.2-2.8-2c0,0,0.4-0.4,0.4-0.8c0.4-0.4,0.8-0.8,0.8-1.2c0.4-1.2,0.4-2,0.4-2.8c0-2,0-4-0.4-6c0-0.4,0-0.8-0.4-0.8
	c-0.4-1.2-0.4-2.4,0-3.6c0.8-1.2,0.8-2-0.4-3.2c-0.4-0.8-0.4-1.6,0-2.4c0.4-0.4,0.8-0.8,0.4-1.2c-0.4-0.8-0.8-1.6-0.8-2.4v-0.4
	c-0.8-1.6-2-2.4-1.6-4.4h-0.4c0-0.4-0.4-0.8-0.8-1.2v-3.2c-0.8-1.6-1.6-2.4-2.4-3.6v-2.4c0.4-0.4,0.8-0.8,0.8-1.2
	c-0.8-0.8-1.2-1.6-1.2-2.4c0-0.8-0.4-2-1.2-2.4c-0.8-0.8-1.6-0.8-2.4-0.8c-0.4,0.4-0.8,0.8-1.2,1.2h-4.4c0-2,0-2-1.2-2.8H277
	c-0.4,0.4-0.8,0.4-1.2,0.8c-1.6,1.2-3.6,2.4-6,2c-0.8,0-1.2,0.4-1.6,1.2c0,0.4-0.4,0.8-0.8,0.8c-1.2,0.4-2,1.6-3.6,1.2
	c-0.4,1.2,0.8,1.6,0.8,2.4c-0.4,1.2-1.2,0.8-1.6,0.8c-0.4,0.4-0.4,0.4-0.4,0.8c-0.4,0.4,0,0.8,0,0.8c0,1.6,0.4,2.8,0.4,4.4
	c0.8,0.4,0,1.2,0,1.6c0,0.8-0.8,1.2-1.6,1.2c-0.8,0-1.6,0-2.4,0.4c-1.2,0.4-1.6,1.2-1.2,2c0,0.4,0.4,0.4,0.4,0.8
	c-0.4,0.4-0.4,0.4-0.8,0.4l-0.4-0.4c0,0.8-0.4,1.2-0.4,1.6c-0.4,0.8-0.8,1.2-1.6,0.8c-0.4-0.4-1.6-0.4-2-1.2v-2.4
	c-0.4-0.4-0.8-0.8-1.2-0.8c-0.8,0-1.6-0.8-2.8-1.2c0.8-0.8,1.6-1.2,2.4-1.6v-2.8c-0.4-0.4-0.8-0.8-1.2-0.4c-0.8,0.4-1.2,0.4-1.6-0.4
	c-0.4,0-0.4-0.4-0.4-0.8c0-1.2-1.2-1.6-2-1.2c-0.4,0.4-0.4,0.8-0.4,1.2h-2c-0.8,0.8-1.6,1.2-2.4,2v1.6c-0.8,0.4-1.2,0.8-1.6,1.6
	c-0.4,0.4-0.8,1.2-0.8,2c-1.2,0-2-0.4-2.8-0.8c-0.4-0.4-1.2-0.4-1.6-0.4c-0.4,0-0.8,0.4-0.8,0.8c0,1.2-0.4,2.4,0.4,3.2
	c0,1.2-1.6,1.6-2.4,2.4c-0.8,0-1.2,0.4-1.6,1.2v2c-0.4,0.4-0.8,1.2-1.2,1.6c-0.8,0.4-0.4,1.2-1.2,1.6v0.8c-0.8,0.4-0.8,0.8-1.2,1.6
	V75c0.4,0.4,0.4,1.2,0,1.6s-0.4,0.8-0.4,1.2v2c-0.4,0-0.4,0.4-0.8,0.4c-0.8,1.2-0.8,1.6-0.4,2.8c0,0.4,0.4,0.8,0.4,1.2
	c0.4,0.4,0.4,1.2,0,1.6s-0.4,0.8-0.4,1.6V89c0,0.4,0,1.2-0.4,1.6c-0.8,0.8-0.8,2-0.8,2.8c-0.4,0.8-1.2,1.2-1.6,1.6
	c0,1.2,0.4,2,0.4,3.2c-1.2,0.8-1.6,2-2.4,3.2c-0.4,0.8-0.4,1.2,0,1.6v0.8c-0.4,0.4,0,1.2-0.4,1.6s-0.8,0.8-1.2,1.6
	c0,1.2-0.4,2.8,0.4,4.4c-0.8,0-0.8,0.4-1.6,0.4c0.8,0.4,0.8,0.8,0.8,1.2c0,2.4-0.8,2.8-2.8,2.8H215c0-1.6-1.2-2.8-0.8-4
	c-0.8-0.8-1.2-1.2-1.6-1.6c-0.8-0.4-1.2-1.2-1.2-1.6c-0.4-0.8-1.2-1.2-1.6-1.6c-0.4,0.8-1.2,0.4-1.6,0c-0.8-1.2-1.6-1.6-2.8-1.6
	c-0.4-0.4-0.8-0.8-1.2-0.8c0-0.4-0.4-0.8-0.8-1.2C203,105,203,105,201,105c-0.8-0.4-1.2-0.8-1.6-1.2v-1.2c-0.4-0.8-0.4-1.6-1.6-2
	c-1.2-0.4-2.4-1.2-3.6-1.6c-0.8-0.4-1.6-0.4-2.4-0.4c-0.8-1.2-2-2.4-4-2c-0.4,0-0.8,0-0.8-0.4c-0.4-0.4-0.8-0.4-1.6,0
	c-0.4,0.4-0.8,0.4-1.2,0.4s-0.8-0.4-1.2-0.8c-0.8-0.8-0.8-0.8-2,0l-0.4,0.4h-0.8c-0.8-0.8-2-0.4-2.4-1.6c-0.4-0.4-0.4-0.8-0.8-0.8
	c-2.4,0-4.8-0.4-7.2-1.6c-0.4-0.4-0.8,0-1.2,0c-0.8-1.2-1.6-2.4-2.4-3.2c-0.8-0.8-1.2-1.6-2-2.4c-0.4-0.4-1.2-1.2-2-0.8
	c-0.4,0.4-0.4,0.4-0.8,0c-1.2,0-1.6-1.6-1.2-2.8c0.4-0.8,0-2-0.8-2.4c-0.4,0-0.8,0-0.8-0.4c-0.8-0.4-1.2-0.8-1.2-1.6
	c0-0.4,0-0.4-0.4-0.8c-0.4-0.8-0.8-1.2-0.8-2.4v-1.2c-0.4-0.4-1.2-0.8-1.2-0.8c-0.4-1.2-1.2-2-0.4-3.2c-0.4-0.4-0.8-0.8-0.8-1.6
	c0-0.8-0.8-1.6-1.2-2.4c0.8-1.2-0.4-1.6-0.8-2.8c0.8-0.8,1.2-2,1.6-3.2c1.6-0.4,1.6-0.4,1.6-1.6V57c-1.6,0-0.8-1.2-1.2-2
	c0.4-0.4,0.8-0.4,1.2-0.4c-0.4-0.4-0.8-0.8-0.4-1.2c0-1.6-0.8-2.8-1.6-4c0.8-1.2,0.8-1.2,0.8-2.4c0-0.4,0.4-0.4,0.4-0.8
	c0.4,0,0.8-0.4,1.2-0.4c-0.4-0.8-0.4-1.6-0.8-1.6c-0.8-0.4-1.6-1.2-2.4-0.8c-0.8,0-1.2-0.4-2-0.8V41h0.8c0.4-0.4,0.4-0.8,0.8-1.2
	c-0.4-0.4-1.2-0.8-1.6-1.2c0-0.8,0.4-1.2,0.4-2v-0.4c-0.4,0-0.8,0-1.2-0.4V35c0,0-0.4-0.4-0.4-0.8c0-1.2,0-1.2-1.2-1.2h-0.8
	c-0.4,0-0.8-0.8-0.4-1.6c0,0,0.4-0.4,0.8-0.8c-0.4-0.4-0.8-0.4-0.8-0.4c-1.2,0.4-2.4-0.4-3.2-0.8c-0.4-0.4-0.8-0.4-1.2-0.8
	c-0.8-0.4-2,0-2,1.2v1.6c-0.8-0.4-1.2-0.8-1.6-0.8h-2.4c0,0.4-0.4,0.8-0.8,1.2c-0.8,0-1.2-0.4-2-0.4c0,0.8,0.4,1.6-0.8,2
	c-1.6-1.6-1.6-1.6-4.8-1.6c-0.4,0.4-0.8,0.8-0.8,1.2h-0.8c-1.2-0.4-2.4,0.8-3.2,0.8c-0.4,0-0.8,0.4-0.8,0.8c0,0.8,0,1.6-0.8,2.4
	c0,0.8-0.4,1.2-0.4,2c-0.4,0.4-1.2,0.4-1.6,0.8c-0.4,1.2,0.4,2,1.2,3.2c0.4,0.4,0.4,0.8,0,1.2s-0.8,0.8-1.2,1.2v2.4
	c-0.8,0.4-1.2,0.8-1.6,0.8v1.6c-1.2,1.2-2.4,1.6-4,2V55v-0.4c0,0.4-0.4,0.8-0.4,1.2c-0.4-0.4-0.4-0.8-0.8-0.8s-1.2-0.4-1.2,0
	c-0.8,0.8-2,0.4-3.2,0.4c0,1.2-0.4,1.6-1.6,3.2l-0.4,0.8c1.2,1.6,0.4,2.4-0.4,4c0.4,0,0.4,0,0.4,0.4c0.8,0.8,1.6,2,1.2,3.2
	s-0.4,2,0.4,3.2c0.4,0.4,0.4,0.8,0.4,1.2c0,1.2-0.4,2-0.8,3.2c0,1.2,0,1.6,0.8,2.8c0.4,0,0.4,0.4,0.4,0.8c-0.4,0.4-0.8,0.8-1.2,1.2
	c-0.8,0.8-1.2,2-0.4,3.2c0.4,0.8,0.8,1.6,1.2,2.8v2.8c0,0.8,0.4,2,0.4,2.8c0,0.4,0,1.2,0.4,1.6c0,0.4-0.4,1.2-0.4,2v0.8
	c0.8,0.8,0.8,2,1.2,2.8c0.4,1.2,0.4,2,0,2.8c-0.4,0-0.4,0.8-0.4,0.8c0.4,0.8,0.4,1.6,1.6,1.6c0,0.4,0,0.4-0.4,0.8
	c0,0.4-0.4,1.2-0.4,1.6c0,2,0.4,4.4,0.4,6.4c0.8,0.8,0.4,2,0.4,2.8c-0.8,1.6-0.4,2.8-0.4,4.4c0,0.4,0,1.2,0.4,1.6
	c-0.4,0.4-1.2,1.2-1.6,1.6v1.2c0.8,1.2,0.8,2.4,1.6,3.2c-0.4,0.4-1.2,1.2-2,1.6c0.8,0.4,0.8,1.2,0.8,1.6c-0.8-0.4-1.2-0.8-1.6-0.8
	c-0.8,0.4-0.8,1.2-0.8,1.6c1.2,1.6,2.4,2.8,3.6,4c0,0.8-0.4,1.2,0,2c0.4,0,0.4,0.8,0,1.2c-0.4,0.8,0,2,0.4,2.8s0.4,1.2,0,1.6
	c-0.8,1.2-0.8,2.4-0.8,3.6c0,0.4,0,1.2,0.4,1.6c0.8,0.8,1.2,2,1.2,3.2c-1.2,0.8-1.2,2.4-2.4,2.8c0.8,1.2,2,2.4,2,4
	c-0.8,0.8-1.2,1.2-2,2c0,2.4,0,2.4-0.4,3.2c-0.8-0.4-1.2-1.6-2.4-1.2c0,1.2,0,2,0.8,2.8s0.8,1.6,0.8,2.8c-0.4,0.4-0.4,0.4-0.8,0.4
	c-1.6,1.2-2.4,2.8-1.6,4.8c0,0.4,0.4,0.8,0,1.6c-0.4,0.4,0,1.2-0.8,1.6c-0.4,0.8-1.2,1.2-0.4,2.4c0,1.2,0.4,2.4,0.8,3.6
	c0.4,2,0.4,3.6,0.8,5.6c1.2,1.2,1.2,1.2,0.4,3.2c-0.4,1.6-0.4,3.2-1.6,4.8v0.8c0,2-0.8,3.2-1.2,5.2c-0.8-0.4-1.6-0.8-2,0
	c-0.4,0.4-1.6,0.4-1.6,1.6c1.2,0.4,1.2,0.4,1.6,1.6c-0.4,0-0.8,0-1.2-0.4c-1.2,0-1.2,0-2,0.8c-0.4,0.8-1.2,1.6-1.6,2.4h-1.6
	c-0.4,0.4-0.8,0.4-0.8,0.8v0.4c0,1.6,0,1.6-1.6,1.6c-0.8,0.4-2,1.2-2.8,2c-1.2,1.2-1.6,2.8-3.6,3.2c-0.4,0-0.8,0.8-0.8,1.2
	c0,0.8-0.4,1.2-0.8,0.8c-1.2-0.4-1.6,1.2-2.4,0.8c-0.8,0.8-1.6,1.2-2,2.4c-0.4,0.8-1.2,1.6-1.6,2c-1.2,0.4-2,0.4-2.8,0.8
	c0,0.4-0.4,1.2-0.8,1.6c-0.8,0-1.2,0-2,0.4s0,1.2-0.4,1.6c-0.8,0-1.2,0-1.6,0.8s-0.8,2-2,2.4c-0.8,0.4-1.6,1.2-2,2
	c-0.8,0.4-1.2,1.2-1.6,1.6c-1.2,0.8-2,1.6-3.2,2.8v2c-1.2,0-1.6,1.6-3.2,1.6v1.2c-0.8-0.4-1.6-0.4-2,0.4c-0.8,1.6-2,2.8-2.8,4.4
	c-0.4,0.8-0.8,1.2-1.2,2c0,0.8-0.4,1.6-0.4,2.4c0,0.4,0,0.8-0.4,1.2c-0.8,0.8-1.2,1.6-1.2,2.8v2.8c0,0.8,0,1.6,0.4,2.4
	c0.4,0.4,1.2,1.2,1.2,2c0,0.4,0.8,1.2,0.8,2l0.4,0.4c1.2-0.4,1.6,0.4,2,1.2c0.4,0.8,2,0.8,2.8,1.6c0.4,0.4,1.2,0,1.6,0h0.8
	c0.8,0.8,1.2,0.4,2,0s2-0.8,3.2-0.8c0,0,0-0.4,0.4-0.4c0.4-0.8,0.8-1.6,1.6-2c0.8-0.8,1.2-1.2,2-2c0.4-0.4,0.8-0.4,1.2-0.4
	c0.8-0.4,1.2-1.2,1.6-2s1.2-1.6,0.8-2.4c0-0.4,0.4-0.8,0.4-0.8c1.2-0.4,1.6-1.2,2.4-2c0,0,0.4-0.4,0.8-0.4s0.8-0.4,1.2-0.8
	c2-2,4-4.4,6.4-6c0.4-0.4,0.8-0.4,0.8-0.4c0.4-0.4,0.8-0.4,0.8-0.4c-0.4-1.2,0.4-2,0.8-2.4c0.8-0.4,1.2-0.4,2-0.8
	c0.8-0.4,1.6-1.2,2-1.6c0.8-0.8,1.6-1.6,2.8-1.2c1.2-0.8,1.6-2.8,3.2-3.2c0.8-1.6,2.4-1.6,3.2-2.8c1.6,0.4,2.8,0,3.6-1.2
	c0.4-0.8,1.2-0.8,2-0.8h2c1.6,0.8,1.2,2.8,2.8,4c-0.4,1.2,0,2,0.8,2.8c-0.4,0.4-0.8,1.2-0.8,2c0,0.4,0.4,0.8,0,1.2v1.6
	c0,0.4-0.4,0.8,0,0.8c0.4,0.8,0,2,0.4,2.8c0,1.2-0.4,2-0.4,2.8v2.4c0.4,0.8,0,2,0.8,2.4c0.4,0.4,0.4,0.8,0.4,1.2
	c0,0.8-0.4,1.6,0,2.4c0,0.4,0.4,1.2,0,1.2c-0.4,1.6,0,3.2,0.4,4.4c0.4,1.6,1.2,3.2-0.4,4.4c-0.4,0-0.4,0.4,0,0.4
	c0.4,0.8,0.4,1.6,0,2.4c0,0.4,0.4,0.8,0.8,1.2c0.4,1.6,0.4,3.2,0.4,4.8v3.6c0.8,2,0.8,4.4,0.8,6.8c0,0.8,0,1.6,0.4,2s0.4,0.8,0,1.2
	c-0.4,0.4-0.4,1.2-0.4,2s0,1.6,0.4,2c0.4,0.8-0.8,1.2-0.4,2v0.8c0.8,0.4,0.4,1.2,0.4,2v2.8c0,0.8,0,1.6,0.8,2v1.2
	c-0.8,0.8-0.8,1.6-0.8,2.4c0.4,0.4,0.8,0.8,1.2,1.2c-0.4,1.2-0.8,2.4-0.8,4c0,0.4,0.4,0.8,0.4,1.2c0,0.8,0,1.6,0.4,2
	c0.4,0.8-0.4,1.6-0.4,2.4v0.8c0.8,1.2,0.4,2.8,0.4,4s0,2.4-0.8,3.6c0,0.4,0,1.2,0.4,1.6c0,0.4,0,0.8,0.4,1.2
	c0.4,0.8,0.4,1.2,0.4,1.6c-0.4,0.8-0.4,1.6,0,2c0.8,0.4,0.4,1.6,0,2c0,0.4-0.4,0.4-0.4,0.8c0,1.2-0.4,2.8-0.4,4v22
	c0,0.8,0,1.6-0.4,2s-0.4,0.4-0.4,0.8c0.4,0.4,0.8,0.4,0.8,0.8c-0.8,1.2-1.2,2.8-0.4,4c0,0.4,0.4,1.2,0,1.6c-0.8,0.4,0,1.2,0,1.6
	s0.4,0.4,0.4,0.8c0,2-0.4,4,0.4,6v0.8c-0.4,0.4-0.4,1.2-0.4,1.6v3.2c0,0.8,0,1.6,0.4,2.4s0,2-0.4,2.4c-0.8,0.4-0.8,1.2-0.8,2v11.2
	c1.2,1.2,1.2,1.2,0.4,2.4c0,0.4,0,0.8-0.4,1.2c-0.4,0.8-0.4,1.6-0.4,2.4s0,1.6,0.4,2.4c0.4,2,0,3.6,0,5.6c-0.8,0.4,0,1.2,0,1.6
	c0,0.8,0,1.6-0.4,2v0.4c0.8,0.8,0.4,1.6,0.4,2.4c0,0.4-0.4,0.8-0.4,1.2c0,0.4,0,1.2-0.4,1.6c-0.4,0.8-0.4,2,0,2.8s0.4,1.2,0.4,2v2.8
	c0,0.8,0,1.2-0.4,1.6c-0.4,0-0.4,0.8,0,0.8c0.8,0.8,0.4,1.6,0.4,2.4s0,1.6-0.8,2c0.4,0.4,0.8,1.2,0.8,1.6c-0.8,0.8-1.2,2-1.2,3.6
	v3.2c0,0.8,0,1.2-0.4,1.6s-0.4,1.2-0.4,2c0.4,0.8,0,1.6,0,2c0,3.2,0.4,6,0,9.2s0,6,0,9.2c0,0.8-0.4,1.6-0.8,2
	c-0.8,0.4-0.8,1.2-0.4,1.6c0.4,0.8,0,1.6,0.4,2.8c0,0,0.4,0.4,0.4,0.8v1.6l-1.6,1.6c0,0.8-0.4,1.6,0.4,2.4v0.4
	c-0.4,0.4-0.8,1.2-0.8,1.6s0.4,1.2,0.4,1.6v4c0,1.2,0,2-0.4,3.2c-0.4,0.4-0.4,1.2,0,2c0.8,1.2,0,2-0.4,2.8s-0.8,1.2-0.8,2
	c0,2,0.4,3.6,0.4,5.6c0,1.2-0.8,2.4,0,4c-0.8,0.8-0.4,1.6-0.4,2c-0.4,0.8-0.4,1.6-0.8,2c-0.4,0.8-0.4,1.6-0.4,2.4
	c0.4,1.2,0.4,2,0,2.8c0.4,2.4-0.4,4.8,0.4,6.8c0,0.4,0,0.8-0.4,1.2s-0.8,0.8-0.8,1.2c0,1.6-0.4,3.2-0.4,4.8v1.6
	c0,1.2,0.4,2.4-0.8,3.2v1.2c0,0.8,0.4,2-0.4,2.8v1.6c0.8,1.2,0.4,2.4,0.4,3.2s-0.4,1.2-0.4,2c0,1.2,0.4,2.4-0.4,3.2
	c-0.4,0.4-0.4,0.8-0.4,0.8c0,0.4,0.4,1.2,0,1.2c0.4,0.4,0.4,1.2,0,1.6c-0.4,0.8,0,1.6,0,2.4c-0.4,0.8,0,2,0,2.8c-2,1.2-0.8,2.8,0,4
	c-0.8,0.8-0.8,0.8-0.8,1.6c0,1.2-0.8,2.4,0.4,3.2c-0.8,1.6-0.8,3.2,0,4.8c0,0.8,0.4,1.2,0.4,1.6c0,0.4-0.4,0.8,0,1.2s0.4,1.2,0,1.6
	c-0.4,0.8,0,1.6,0,2.8c-0.4,1.2,0.4,2.4,0.4,4c-0.4,0,0,0.4,0.4,0.8c0.4,0.8,0.8,1.2,0.4,2.4c-0.4,0-0.4,0.4-0.4,0.8v2.8
	c1.2,1.6,2.8,2,4,3.2c-0.8,0.8-0.4,1.6-0.4,2.4v1.6c-1.2,0.8-0.8,1.6-0.8,2.4c0.8,0.8,1.2,1.6,1.6,2.4c1.6-0.4,2.8,0.4,3.6,1.6
	c0,1.6,0.4,2.8,0,4c0,1.2-0.4,2.4-1.6,3.2c-0.4,0-0.8,0.8-0.4,1.2c0.4,0.8,0.4,1.6,0,2.4c-0.4,0.4,0,1.2,0.4,1.2
	c1.2,0,1.2,0.4,1.2,0.8c0.4,0.8,0.4,1.6,0.8,2.4h2c-0.4,0.4-0.8,0.8-1.2,0.8c-0.4,1.6,0.8,3.2,0.8,4.8c0,0.4,0.4,0.4,0.8,0.8
	c0.4,0,0.4,0.4,0.8,0.4c-0.4,0.4-0.8,0.8-1.2,0.8v1.6c0.4,0.8,1.2,1.2,0.4,2c0,0,0.4,0.8,0.8,1.2c0.8,1.2,1.6,2.8,1.6,4.4
	c0,0.4,0.4,0.4,0,0.8c0.4,0.4,0.4,0.8,1.2,0.4l0.4,0.4c0.8,0.8,1.6,0.8,2.4,0.4c0.4-0.4,0.8-0.4,1.2-0.8c0.8,1.2,2,2,2.4,2.8
	c1.6,0.4,2.4-0.4,3.2-0.4c0.4,0,0.4-0.8,0.8-1.2c0.4,0,0.8,0.4,1.2,0.4c0.4,0.8,1.2,1.2,2,0.8c0.4-1.6,2-1.6,3.2-2.4
	c-0.4-1.2-0.8-2-1.2-3.2c0.8-0.8,1.6-1.6,2.4-2.4V635c0.4-0.4,0.8-0.8,0.8-1.2c0.4-1.6,1.2-2.4,2.4-2.4v-2h-0.8c1.2-1.2,2-2,2-3.2
	c0-2,0.4-3.6-1.2-5.2c0.4-0.4,0.8-1.2,1.2-1.6c0.4,0.8,0.4,1.2,0.8,2c0.4,0,0.8,0,1.2-0.4c0.8-0.4,1.6-0.8,2-1.6
	c0-0.8,0.4-1.6,0.8-2.4c0.4-0.4,0.4-0.4,0.4-0.8c0.8-0.8,0.4-2,0.4-3.2c-0.4-0.8-1.2-1.2-2-2c0.4-0.4,0.4-0.8,0.4-1.2
	s-0.4-0.4-0.8-0.8h0.8h0.4c1.2,0.4,1.2,0.4,1.6-0.8c0,0,0.4,0,0.4-0.4c0.8-2,2.8-2.8,4.8-3.6c0.8,0,1.2-0.8,1.2-1.6V601H153
	c0.4-1.2,0.4-2,0.8-2.4c0.4-0.4,0.4-1.2,0.4-1.6c0-0.8,0-1.2-0.4-1.6v-0.8c1.6,1.2,1.6,1.2,2.8,0v-2.8l2.4-2.4v-1.6l1.2-1.2v-2
	c0-0.4,0-1.2,0.4-1.6c0.8-1.2,1.2-2.4,1.2-3.6V577c0.4-0.4,0.4-0.8,0.8-0.8c1.2-0.8,2.4-1.2,2-2.8l0.4-0.4c0.8-0.8,0.8-2,0.8-3.2
	v-1.2c0.4-0.4,0.8-0.8,1.2-1.2c0.8-0.4,0.4-1.2,1.2-2c-0.4-1.2,0.4-2.4,1.2-3.2c0.4-1.2,1.2-2.4,1.6-3.6c0.4-1.6,0.8-2.8,1.2-4.4
	c0.4-0.8,0-1.6,0-2.4s0.4-1.6,0.4-2.4v-5.2c1.6-0.8,2.4-2.4,3.6-3.6v-2.8V537c0.4,0,0.8-0.4,1.2-0.8v-2c0.4,0.4,1.2,0.4,1.6,0.8
	c1.6,0,1.6,0.4,1.2,1.6c-0.4,0.8-0.4,1.2-0.4,1.6c0.8,1.2,0.8,2.4,1.2,3.6c0.8,1.2,0.8,2.4,0,3.6c-0.4,0.4-0.4,0.8-0.4,0.8v1.2
	c0.4,1.2-0.4,2.8,0.8,3.6v0.4c0,1.2,0.4,2.4,0.4,3.6c0,1.2-0.4,2.4-0.4,3.6c0,0.4-0.4,0.8-0.4,0.8c-0.4,0.8-0.4,1.2,0,2
	c0.4,0.4,0.8,1.2,1.6,2c-0.4,0-0.8,0.4-0.8,0.4c0,1.2-0.8,2.4,0,3.6c0.4,0.8-0.4,2,0.8,2.8v0.4c-0.4,3.6,0.4,6.8,0.4,10v2.4
	c0,0.4,0,0.8,0.4,1.6c0.4,0,0.4,0.8,0,1.2v1.2c0,0.8,0.4,1.2,0.4,2c0.4,0.8,0.4,1.6,0,2c-0.4,1.6,0,2.8,0.8,4c0,0.4-0.8,1.2-0.4,2
	c0,1.2-0.8,2.4,0.4,3.6c0.4,0,0.4,0.4,0.4,0.4c0,2,0,3.6,0.4,5.6c0.4,0.4,1.2,1.2,1.6,1.6c0,0.4,0,0.4-0.4,0.4
	c0.8,0.8,1.2,1.2,1.6,1.6v1.6c-0.4,0-1.2,0.4-1.2,0.4c-0.4,0.4-0.4,0.8,0,1.2s0.4,1.2,0,1.6c-0.4,0.8,0,1.2-0.4,2
	c0,0.4,0,0.8-0.4,1.2c0.4,0.4,0.8,0.4,0.8,0.8c0.8,0.8,1.6,1.6,0.4,2.4c0,0.4,0,0.8,0.4,1.2c0.4,0.8,0.4,1.6,0,2.4
	c-0.4,0.8-0.4,1.6,0,2c0,0.4,0.4,1.2,1.2,1.6c0.8,0.4,1.2,1.2,1.2,2.4v1.2c-0.4,0-0.4,0.4-0.8,0.4c0,0.4,0.4,0.8,0.4,0.8
	c0,1.6,0.8,2.4,2.4,2.8h0.8c0.4,0.4,0.8,0.8,0.8,1.2c-0.8,0.8-0.4,1.6-0.4,2c0.4,0.8,0.8,1.2,1.6,1.6c0.4,0.4,1.2,0.4,1.6,0.8
	c0,0.8,0.4,1.2,0.4,2c0,1.2,0.4,2,0.8,3.2c0.4,0.4,0.4,1.2,0,1.6c0,0.4-0.4,0.8-0.4,0.8c-0.4,0.4-0.4,0.8,0,1.2
	c0.4,1.6,1.6,2.4,3.2,2.4c0.8,0,1.2,0,1.6,0.4c0.8,0,1.2,0.8,2,1.2c1.2,0.4,1.6,1.6,1.6,2.8c0,0.4,0.4,0.8,0.8,1.2
	c0.4-0.4,1.2-0.8,1.6-0.8c0.8,0.8,0.8,0.8,0.4,2c0.4,0.4,0.4,0.4,0.8,0.8c1.6,0.8,2.4-0.8,4-0.8c0,0,0.8-0.8,1.2-1.2
	c0.4,0.4,0.8,0.8,1.2,1.6c1.2-0.8,1.6,0.8,2.8,1.2c0.4-0.4,1.2-0.8,1.6-1.2c0.8-0.8,1.2,0.4,2,0c0.4-0.8,1.2-1.6,1.6-2
	c0.4-0.4,0.8-1.2,1.2-0.8c0.8,0,1.6-0.4,2-0.8v-2c-0.4-0.4-0.8-0.8-1.2-1.2c1.6-0.4,2-1.6,2.8-2.4c-0.4-1.2-0.4-2.4-0.4-3.6
	c0-0.8,0.8-1.2,1.6-1.6c0,0,0.4,0,0.4-0.4c0.4-0.4,0.4-0.8,0.8-1.2c0.8-0.8,0-1.6,0.4-2c1.2-0.8,1.2-0.8,2.8-3.6
	c0.4-1.2,1.6-2,1.6-3.6c0.4-1.6,0.4-2.8,0.8-4.4c0.8-0.8,2.4,0,2.8-1.6c0-0.4-0.4-1.2,0-1.6c0.4-0.4,0-1.2,0-1.2
	c-0.8-0.8-1.2-1.6,0-2.4V623v-1.2C240.2,621.3,239.4,620.9,239.4,620.5"/>
<g class="st0">
	<g>
		<g>
			<defs>
				<rect id="SVGID_1_" x="79.2" y="41" width="60.8" height="60.8"/>
			</defs>
			<clipPath id="SVGID_00000103242346390717358370000009406479860802841473_">
				<use xlink:href="#SVGID_1_"  style="overflow:visible;"/>
			</clipPath>
			<path style="clip-path:url(#SVGID_00000103242346390717358370000009406479860802841473_);" d="M109.6,100.8
				c16.2,0,29.4-13.2,29.4-29.4S125.8,42,109.6,42S80.2,55.2,80.2,71.4S93.4,100.8,109.6,100.8"/>
		</g>
	</g>
</g>
<g class="st0">
	<g>
		<g>
			<defs>
				<rect id="SVGID_00000138549221619583107460000003373524715411345584_" x="204.1" y="38.9" width="60.8" height="60.8"/>
			</defs>
			<clipPath id="SVGID_00000029016890746008479440000010333572440672702090_">
				<use xlink:href="#SVGID_00000138549221619583107460000003373524715411345584_"  style="overflow:visible;"/>
			</clipPath>
			<path style="clip-path:url(#SVGID_00000029016890746008479440000010333572440672702090_);" d="M234.5,98.7
				c16.2,0,29.4-13.2,29.4-29.4s-13.2-29.4-29.4-29.4s-29.4,13.2-29.4,29.4S218.2,98.7,234.5,98.7"/>
		</g>
	</g>
</g>
<g class="st0">
	<g>
		<g>
			<defs>
				<rect id="SVGID_00000122684149690669120880000015041218696227395215_" x="298.6" y="62.8" width="60.8" height="60.8"/>
			</defs>
			<clipPath id="SVGID_00000117638122363615770420000015511704567302382478_">
				<use xlink:href="#SVGID_00000122684149690669120880000015041218696227395215_"  style="overflow:visible;"/>
			</clipPath>
			<path style="clip-path:url(#SVGID_00000117638122363615770420000015511704567302382478_);" d="M329,122.6
				c16.2,0,29.4-13.2,29.4-29.4S345.2,63.8,329,63.8S299.6,77,299.6,93.2S312.8,122.6,329,122.6"/>
		</g>
	</g>
</g>
<g class="st0">
	<g>
		<g>
			<defs>
				<rect id="SVGID_00000032635052937446822620000014753952290144472222_" x="407.5" y="55.9" width="60.8" height="60.8"/>
			</defs>
			<clipPath id="SVGID_00000042005956167407121670000017045657097175029641_">
				<use xlink:href="#SVGID_00000032635052937446822620000014753952290144472222_"  style="overflow:visible;"/>
			</clipPath>
			<path style="clip-path:url(#SVGID_00000042005956167407121670000017045657097175029641_);" d="M437.9,115.7
				c16.2,0,29.4-13.2,29.4-29.4s-13.2-29.4-29.4-29.4s-29.4,13.2-29.4,29.4S421.6,115.7,437.9,115.7"/>
		</g>
	</g>
</g>
<line class="st5" x1="20.2" y1="79.3" x2="651.2" y2="79.3"/>
<path class="st6" d="M655.5,79.3L655.5,79.3 M11.4,79.3L11.4,79.3"/>
<path class="st7" d="M128.2,110.5l-5.8,5.7l-5.8-5.6 M122,73.6l0.4,42.6"/>
<path class="st7" d="M238.6,116.7l-6.8,4.4l-4.5-6.7 M240.2,79.3l-8.5,41.8"/>
<path class="st7" d="M323.6,142.7l-7.2,3.8l-4-7.1 M328.1,105.6l-11.7,41"/>
</svg>
