<?xml version="1.0" encoding="utf-8"?>
<!-- Generator: Adobe Illustrator 27.8.0, SVG Export Plug-In . SVG Version: 6.00 Build 0)  -->
<svg version="1.1" id="Calque_1" xmlns="http://www.w3.org/2000/svg" xmlns:xlink="http://www.w3.org/1999/xlink" x="0px" y="0px"
	 viewBox="0 0 3000 700" style="enable-background:new 0 0 3000 700;" xml:space="preserve">
<style type="text/css">
	.st0{fill:none;stroke:#000000;stroke-width:1.836;stroke-miterlimit:10;}
	.st1{fill:none;stroke:#000000;stroke-width:14.69;stroke-linecap:round;stroke-linejoin:round;stroke-miterlimit:10;}
	.st2{fill:none;stroke:#000000;stroke-width:1.836;stroke-linecap:round;stroke-linejoin:round;stroke-miterlimit:10;}
	.st3{fill:none;stroke:#FFFFFF;stroke-width:14.69;stroke-linecap:round;stroke-linejoin:round;stroke-miterlimit:10;}
	
		.st4{fill:none;stroke:#000000;stroke-width:2.5;stroke-linecap:round;stroke-linejoin:round;stroke-miterlimit:10;stroke-dasharray:0,7.571;}
	.st5{fill:none;stroke:#000000;stroke-width:2.5;stroke-linecap:round;stroke-linejoin:round;stroke-miterlimit:10;}
	
		.st6{fill:none;stroke:#000000;stroke-width:2.5;stroke-linecap:round;stroke-linejoin:round;stroke-miterlimit:10;stroke-dasharray:0,6.384;}
	
		.st7{fill:none;stroke:#000000;stroke-width:2.5;stroke-linecap:round;stroke-linejoin:round;stroke-miterlimit:10;stroke-dasharray:0,6.615;}
	
		.st8{fill:none;stroke:#000000;stroke-width:2.5;stroke-linecap:round;stroke-linejoin:round;stroke-miterlimit:10;stroke-dasharray:0,7.418;}
	
		.st9{fill:none;stroke:#000000;stroke-width:2.5;stroke-linecap:round;stroke-linejoin:round;stroke-miterlimit:10;stroke-dasharray:0,6.37;}
	
		.st10{fill:none;stroke:#000000;stroke-width:2.5;stroke-linecap:round;stroke-linejoin:round;stroke-miterlimit:10;stroke-dasharray:0,6.629;}
	
		.st11{fill:none;stroke:#000000;stroke-width:2.5;stroke-linecap:round;stroke-linejoin:round;stroke-miterlimit:10;stroke-dasharray:0,7.529;}
	
		.st12{fill:none;stroke:#000000;stroke-width:2.5;stroke-linecap:round;stroke-linejoin:round;stroke-miterlimit:10;stroke-dasharray:0,7.238;}
	
		.st13{fill:none;stroke:#000000;stroke-width:2.5;stroke-linecap:round;stroke-linejoin:round;stroke-miterlimit:10;stroke-dasharray:0,6.726;}
	
		.st14{fill:none;stroke:#000000;stroke-width:2.5;stroke-linecap:round;stroke-linejoin:round;stroke-miterlimit:10;stroke-dasharray:0,6.807;}
</style>
<g>
	<path class="st0" d="M844,228.2v-40.4l-13.2,8.8 M960,279.6l17.6,5.9l-5.1,19.8 M1005.6,568.3C938.7,506.6,869,410.4,869,363.3
		c0-16.9,13.2-27.9,31.6-37.5c25-13.2,58-28.6,77.1-40.4 M857.9,522.7l16.9-13.2l12.5,14.7 M938.7,454.4
		c5.9,100.6,0,143.2-28.6,143.2c-27.2,0-39.7-41.1-35.3-88.1 M1066.5,313.4l-10.3,17.6l-17.6-9.5 M976.2,227.5
		c21.3-66.1,42.6-119,42.6-154.2c0-10.3-2.9-20.6-8.8-20.6c-5.9,0-9.5,7.3-9.5,20.6c0,58,39.7,142.5,55.8,257.8 M860.9,272.3
		l15.4,13.2l13.2-14.7 M876.3,149.6c-1.5,38.2-1.5,86.7,0,135.9"/>
	<path d="M876.3,159.2c5.1,0,9.5-4.4,9.5-9.5c0-5.1-4.4-9.5-9.5-9.5s-9.5,4.4-9.5,9.5C866.7,154.7,871.2,159.2,876.3,159.2"/>
	<path class="st1" d="M1095.2,211.3c-64.6,87.4-155.7,121.9-204.9,154.2c-18.4,12.5-26.4,25-26.4,43.3
		c0,57.3,130.7,205.7,155.7,205.7c11.8,0,15.4-22,17.6-37.5c3.7-26.4,5.9-59.5,5.9-102.1c0-146.2-68.3-340.1-68.3-395.9
		c0-14,4.4-21.3,10.3-21.3c5.9,0,9.5,5.9,9.5,18.4c0,47.7-49.2,152.8-67.6,222.6c-15.4,59.5-26.4,121.2-26.4,200.5
		c0,33.1,4.4,67.6,9.5,67.6c5.1,0,4.4-44.8,4.4-94c0-68.3-6.6-185.1-0.7-332.7"/>
	<path class="st0" d="M1434.5,494.4c0.7,48.5-16.9,102.8-51.4,102.8c-43.3,0-105-64.6-105-141c0-72,94-89.6,151.3-250.5
		 M1217.9,196.9v-40.4l-13.2,8.8 M1435.3,326.2l-11,17.6l-17.6-10.3 M1342,233.6c16.9-59.5,37.5-112.4,37.5-147.6
		c0-11.8-2.9-20.6-9.5-20.6c-7.3,0-10.3,8.8-10.3,20.6c0,58,47,145.4,64.6,257.8 M1411,213l18.4-7.3l8.8,19.1 M1231.1,553.9
		l16.9-13.2l12.5,14.7 M1309.7,467.2c7.3,99.2-2.9,141-30.1,141c-21.3,0-35.3-30.1-31.6-67.6 M1231.8,244.6l15.4,13.2l13.2-14.7
		 M1247.2,122c-1.5,38.2-1.5,86.7,0,135.9"/>
	<path d="M1247.2,131.5c5.1,0,9.5-4.4,9.5-9.5c0-5.1-4.4-9.5-9.5-9.5s-9.5,4.4-9.5,9.5C1237.7,127.1,1242.1,131.5,1247.2,131.5"/>
	<path class="st1" d="M1426.4,104.3c-43.3,247.5-174.8,250.5-174.8,353.3c0,63.9,46.3,132.2,99.2,132.2c41.9,0,61-44.8,61-117.5
		c0-131.5-77.1-324.6-77.1-380.5c0-14,4.4-21.3,10.3-21.3c5.9,0,9.5,5.9,9.5,18.4c0,47.7-42.6,152.8-57.3,222.6
		c-12.5,59.5-23.5,121.2-23.5,200.5c0,33.1,2.2,67.6,7.3,67.6c5.1,0,4.4-44.8,4.4-94c0-68.3-6.6-229.2-0.7-376.8"/>
	<path class="st0" d="M1566.8,224.5v-40.4l-13.2,8.8 M1772.5,505.1c-6.6,77.9-33.8,100.6-58,100.6c-35.3,0-70.5-52.1-70.5-105
		c0-46.3,18.4-73.4,64.6-137.4 M1689.5,366.3l19.1-2.9l4.4,19.8 M1777.6,334l-11,17.6l-17.6-10.3 M1679.2,239.9
		c16.9-59.5,52.9-110.9,52.9-146.2c0-16.2-2.2-27.2-8.1-27.2s-9.5,11-9.5,27.2c0,58,34.5,145.4,52.1,257.8 M1588.9,267.1l15.4,13.2
		l13.2-14.7 M1602.8,144.5c0.7,38.2,2.2,86.7,1.5,135.9"/>
	<path d="M1602.8,154c5.1,0,9.5-4.4,9.5-9.5c0-5.1-4.4-9.5-9.5-9.5s-9.5,4.4-9.5,9.5C1593.3,149.6,1597.7,154,1602.8,154"/>
	<path class="st1" d="M1774.7,93.1C1765.9,322.9,1616,372.2,1616,500c0,41.9,16.2,97,63.2,97c43.3,0,69-56.6,69-129.3
		c0-109.4-55.8-307-55.8-362.8c0-14,4.4-21.3,6.6-21.3c2.2,0,5.9,5.9,5.9,18.4c0,47.7-55.1,97-66.1,218.1
		c-2.9,33.1-1.5,63.2,1.5,63.2c3.7,0,3.7-27.9,3.7-77.1c0-68.3-2.2-123.4-3.7-174.8"/>
	<path class="st0" d="M2271.3,238.8v-40.4l-13.2,8.8 M2451.3,471.7l16.9-11.8l11.8,15.4 M2529.1,561.3c-0.7,47-20.6,61-36.7,61
		c-23.5,0-35.3-32.3-35.3-75.7c0-32.3,6.6-65.4,11-86.7 M2286.7,471.7l17.6-11.8l11,16.2 M2369,563.5c-3.7,44.8-25,58.8-40.4,58.8
		c-25,0-34.5-32.3-34.5-75.7c0-38.2,5.9-65.4,10.3-86.7 M2402,293.2l-6.6,18.4l18.4,7.3 M2522.5,269c-38.9,1.5-88.9,20.6-127.1,42.6
		 M2518.8,318.9l-10.3,17.6l-17.6-9.5 M2457.9,140.4c5.1-12.5,8.8-27.9,8.8-44.8c0-21.3-8.8-45.5-25-45.5
		c-11.8,0-21.3,12.5-21.3,27.9c0,73.4,68.3,168.9,88.1,258.5 M2328.6,279.2l-14,13.2l-14.7-13.2 M2305.8,157.3
		c5.1,40.4,8.8,86.7,8.8,135.1"/>
	<path d="M2305.8,166.9c5.1,0,9.5-4.4,9.5-9.5c0-5.1-4.4-9.5-9.5-9.5c-5.1,0-9.5,4.4-9.5,9.5
		C2296.3,162.5,2300.7,166.9,2305.8,166.9"/>
	<path class="st1" d="M2342.5,148.5c9.5,74.9,11.8,148.4,10.3,229.9c-1.5,80.8-3.7,130-8.1,164.5c-4.4,36.7-10.3,47-14,47
		c-5.1,0-7.3-13.2-7.3-40.4c0.7-42.6,13.2-141.8,44.1-219.6c22-51.4,74.2-177.7,74.2-218.1c0-16.9-5.1-33.8-17.6-33.8
		c-11,0-19.1,12.5-19.1,33.1c0,52.9,32.3,94,66.1,198.3c32.3,98.4,33.8,193.2,33.8,229.9c0,33.8-5.1,52.9-10.3,52.9
		c-6.6,0-10.3-19.1-10.3-45.5c0-34.5,14.7-103.6,30.1-146.9c11-33.1,26.4-66.8,26.4-84.5c0-11-5.9-19.8-21.3-19.8
		c-54.4,0-150.6,62.4-182.2,82.3c-16.2,9.5-41.1,25-57.3,25c-11,0-16.2-6.6-16.2-14c0-6.6,5.1-13.2,14-14.7"/>
	<path class="st0" d="M2682.1,238.1v-40.4l-13.2,8.8 M2867.2,139.7c5.1-15.4,7.3-30.1,7.3-44.8c0-24.2-11.8-44.1-27.9-44.1
		c-11.8,0-21.3,10.3-21.3,26.4c0,63.9,54.4,138.1,73.4,199.8 M2689.5,365.9l10.3,16.9l16.9-11 M2948.7,431.3
		c3.7-14.7,5.1-28.6,5.1-42.6c0-55.8-40.4-99.2-116.8-99.2c-70.5,0-131.5,47-137.4,93.3 M2862.8,487.1l17.6-9.5l10.3,16.2
		 M2938.4,560.6c-0.7,47-19.1,61-35.3,61c-21.3,0-36.7-30.1-36.7-66.8c0-22,7.3-56.6,14-77.1 M2695.3,495.2l17.6-11.8l11,16.2
		 M2778.3,562.8c-3.7,44.8-25,58.8-40.4,58.8c-23.5,0-33.1-32.3-33.1-63.9c0-25.7,3.7-52.9,8.1-74.2 M2909.1,259.4l-10.3,17.6
		l-17.6-9.5 M2737.9,278.5l-14,13.2l-14.7-13.2 M2715.2,156.6c5.1,40.4,8.8,86.7,8.8,135.1"/>
	<path d="M2715.2,166.1c5.1,0,9.5-4.4,9.5-9.5c0-5.1-4.4-9.5-9.5-9.5c-5.1,0-9.5,4.4-9.5,9.5C2705.6,161.7,2710,166.1,2715.2,166.1"
		/>
	<path class="st1" d="M2751.9,147.8c9.5,74.9,11.8,148.4,10.3,229.9c-1.5,80.8-3.7,130-8.1,164.5c-4.4,36.7-8.8,47-12.5,47
		c-3.7,0-5.9-13.2-5.9-40.4c0.7-42.6,10.3-141.8,41.1-219.6c22-51.4,74.2-177.7,74.2-221.8c0-13.2-5.1-30.1-17.6-30.1
		c-11,0-19.1,12.5-19.1,33.1c0,52.9,32.3,94,66.1,198.3c32.3,98.4,33.8,193.2,33.8,229.9c0,33.8-5.1,52.9-10.3,52.9
		c-6.6,0-10.3-19.1-10.3-33.8c0-55.1,33.8-110.2,33.8-159.4c0-59.5-38.2-84.5-91.1-84.5c-56.6,0-119,42.6-117.5,102.8
		c0,9.5,2.2,19.8,8.1,25.7"/>
	<path class="st2" d="M235.5,448.8H212l12.5-14c5.1-5.9,9.5-11,9.5-16.9c0-6.6-4.4-9.5-10.3-9.5c-5.1,0-9.5,2.9-11,8.1 M72.5,344.5
		v-40.4l-13.2,8.8 M298.7,358.4l15.4,12.5l-11.8,16.2 M151.8,406.2c39.7-13.2,122.7-30.8,162.3-35.3 M226,235l-11.8,16.2l-16.2-11
		 M51.9,567C82,420.9,132,237.2,176.8,108c11.8,34.5,28.6,99.9,37.5,143.2"/>
	<path d="M151.8,415.5c5.1,0,9.5-4.4,9.5-9.5c0-5.1-4.4-9.5-9.5-9.5c-5.1,0-9.5,4.4-9.5,9.5C142.3,411.1,146.7,415.5,151.8,415.5
		 M51.9,576.4c5.1,0,9.5-4.4,9.5-9.5c0-5.1-4.4-9.5-9.5-9.5s-9.5,4.4-9.5,9.5C42.4,572,46.8,576.4,51.9,576.4"/>
	<path class="st3" d="M208.4,98.9C251,256.8,284,415.5,301.7,572.7 M126.8,380.2c44.8-14.7,101.4-26.4,146.2-31.6 M82,573.4
		c33.1-157.9,74.2-315.8,126.3-474.5"/>
	<path class="st4" d="M271.9,555.5c-37-35.3-81.7-82.2-111.8-118.2"/>
	<path class="st5" d="M157.7,434.3L157.7,434.3 M277.4,560.7L277.4,560.7"/>
	<line class="st6" x1="156.7" y1="447.1" x2="157.4" y2="437.5"/>
	<line class="st7" x1="164.3" y1="434.1" x2="174.2" y2="433.7"/>
	<path class="st5" d="M177.5,433.6L177.5,433.6 M157.7,434.3L157.7,434.3 M156.2,453.4L156.2,453.4"/>
	<path class="st0" d="M547.1,667.5v-40.4l-13.2,8.8 M713.1,108.6V68.2L699.8,77 M444.2,428.1h-23.5l12.5-14c5.1-5.9,9.5-11,9.5-16.9
		c0-6.6-4.4-9.5-10.3-9.5c-5.1,0-9.5,2.9-11,8.1 M480.2,243.7v-40.4l-13.2,8.8 M709.4,163.7l-13.2,14.7l-15.4-12.5 M594.1,201.9
		c9.5-62.4,35.3-130.7,60.2-130.7c16.9,0,34.5,29.4,41.9,107.2 M497.1,508.9l16.9-13.2l12.5,14.7 M581.6,544.9
		c0.7,41.1-17.6,58-31.6,58c-31.6,0-40.4-60.2-36-107.2 M495.6,423c-19.8-12.5-25-28.6-25-41.9c0-41.9,47.7-64.6,132.9-64.6
		 M590.4,301l13.2,15.4l-14,13.2 M503.7,276.8l14.7,14l14-14.7 M516.2,170.3c0,38.2,0,77.1,2.2,119.7 M718.9,379.6
		c5.1-32.3-50.7-39.7-98.4-39.7c-56.6,0-123.4,6.6-123.4,40.4c0,9.5,5.1,16.9,13.2,22"/>
	<path d="M495.6,432.5c5.1,0,9.5-4.4,9.5-9.5c0-5.1-4.4-9.5-9.5-9.5c-5.1,0-9.5,4.4-9.5,9.5C486.1,428.1,490.5,432.5,495.6,432.5
		 M516.2,179.8c5.1,0,9.5-4.4,9.5-9.5c0-5.1-4.4-9.5-9.5-9.5s-9.5,4.4-9.5,9.5C506.7,175.4,511.1,179.8,516.2,179.8"/>
	<path class="st1" d="M644,547.8c-1.5,25.7,3.7,45.5,8.8,45.5c3.7,0,9.5-2.2,14-41.1c5.1-47,14-129.3,12.5-243.9
		c-1.5-118.3-17.6-232.1-53.6-232.1c-32.3,0-52.9,84.5-66.1,172.6c-16.2,108.7-19.1,224.8-19.1,254.1c0,36.7,4.4,67.6,9.5,67.6
		c5.1,0,4.4-44.8,4.4-94c0-68.3-6.6-170.4-0.7-318 M718.9,379.6c5.1-32.3-50.7-39.7-98.4-39.7c-56.6,0-123.4,6.6-123.4,40.4
		c0,9.5,5.1,16.9,13.2,22"/>
	<path class="st8" d="M618.7,533.6c-32.2-24.3-79-64.9-108.3-95.7"/>
	<path class="st5" d="M507.9,435.2L507.9,435.2 M624.7,538.1L624.7,538.1"/>
	<line class="st9" x1="507.4" y1="448" x2="507.8" y2="438.4"/>
	<line class="st10" x1="514.5" y1="434.7" x2="524.4" y2="434"/>
	<path class="st5" d="M527.7,433.8L527.7,433.8 M507.9,435.2L507.9,435.2 M507.2,454.3L507.2,454.3"/>
	<path class="st0" d="M2045.6,455.9h-23.5l12.5-14c5.1-5.9,9.5-11,9.5-16.9c0-6.6-4.4-9.5-10.3-9.5c-5.1,0-9.5,2.9-11,8.1
		 M1903.9,344.2v-40.4l-13.2,8.8 M2057.4,234.8l-11.8,16.2l-16.2-11 M1883.3,566.8c30.1-146.2,80.1-329.8,124.9-459.1
		c11.8,34.5,28.6,99.9,37.5,143.2 M1983.2,385.4l-11,16.2l16.9,11.8 M2075.8,385.4c-34.5,2.2-64.6,6.6-103.6,16.2"/>
	<path d="M1883.3,576.3c5.1,0,9.5-4.4,9.5-9.5s-4.4-9.5-9.5-9.5c-5.1,0-9.5,4.4-9.5,9.5S1878.2,576.3,1883.3,576.3 M2075.8,394.9
		c5.1,0,9.5-4.4,9.5-9.5c0-5.1-4.4-9.5-9.5-9.5s-9.5,4.4-9.5,9.5C2066.2,390.5,2070.6,394.9,2075.8,394.9"/>
	<path class="st3" d="M2039,98.9c42.6,157.9,75.7,316.6,93.3,473.7 M1953.1,376.6c44.8-14,102.8-19.8,144-22.8 M1912.7,573.4
		c33.1-157.9,74.2-315.8,126.3-474.5"/>
	<path class="st11" d="M2153.1,564.1c22.1-66.4,35.6-119.8,35.8-157.3"/>
	<path class="st12" d="M2188.7,395.8c-1.6-29.4-13.2-47-38.1-48.5"/>
	<path class="st13" d="M2140.3,347.5c-5.3,0.5-10.4,1.6-16.5,3.2"/>
	<path class="st5" d="M2120.6,351.6L2120.6,351.6 M2147,347.2L2147,347.2 M2188.9,403L2188.9,403 M2150.7,571.2L2150.7,571.2"/>
	<line class="st14" x1="2128.9" y1="340.8" x2="2122.6" y2="348.9"/>
	<line class="st7" x1="2125.7" y1="355.8" x2="2133.4" y2="362"/>
	<path class="st5" d="M2136,364.1L2136,364.1 M2120.6,351.6L2120.6,351.6 M2133.1,335.4L2133.1,335.4"/>
</g>
</svg>
