<?xml version="1.0" encoding="utf-8"?>
<!-- Generator: Adobe Illustrator 27.8.0, SVG Export Plug-In . SVG Version: 6.00 Build 0)  -->
<svg version="1.1"
	 id="svg1" xmlns:svg="http://www.w3.org/2000/svg" xmlns:inkscape="http://www.inkscape.org/namespaces/inkscape" xmlns:sodipodi="http://sodipodi.sourceforge.net/DTD/sodipodi-0.dtd" inkscape:version="1.3 (0e150ed, 2023-07-21)" sodipodi:docname="anrt_logo.svg"
	 xmlns="http://www.w3.org/2000/svg" xmlns:xlink="http://www.w3.org/1999/xlink" x="0px" y="0px" viewBox="0 0 400 158"
	 style="enable-background:new 0 0 400 158;" xml:space="preserve">
<sodipodi:namedview  bordercolor="#000000" borderopacity="0.25" id="namedview1" inkscape:current-layer="svg1" inkscape:cx="166.64337" inkscape:cy="102.21939" inkscape:deskcolor="#d1d1d1" inkscape:pagecheckerboard="0" inkscape:pageopacity="0.0" inkscape:showpageshadow="2" inkscape:window-height="882" inkscape:window-maximized="0" inkscape:window-width="1512" inkscape:window-x="0" inkscape:window-y="38" inkscape:zoom="1.7462441" pagecolor="#ffffff">
	</sodipodi:namedview>
<g id="g2" transform="matrix(2.2942293,0,0,2.2942293,-30.819451,-23.788406)">
	<g>
		<path id="path1" d="M21.3,66.3v-2.1h-1.8v-3.3h-3.2v3.3h-1.5v2.1h1.5V72c0,1.5,0.9,2.4,3.1,2.4h1.9v-2.3h-0.9c-0.6,0-1-0.2-1-0.9
			v-4.9H21.3z M65.9,64.1v5.5c0,1.7-0.7,2.5-1.9,2.5c-1,0-1.5-0.6-1.5-1.8v-6.2h-3.2v6.8c0,2.8,1.4,3.7,3.3,3.7
			c1.8,0,2.7-0.9,3.3-1.7H66v1.4h3.1V64.1H65.9z M78,74.4l3.7-10.3h-3.4l-2.2,7.3L74,64.1h-3.4l3.6,10.3H78z M85.2,74.4h3.4l1.8-6.8
			l1.7,6.8h3.4l3-10.3h-3L94.2,69c-0.3,1.3-0.5,2.3-0.5,2.8h0c0-0.5-0.2-1.4-0.5-2.8L92,64.1h-3.3L87.3,69c-0.3,1.3-0.4,2.3-0.5,2.8
			h0c0-0.5-0.1-1.4-0.5-2.8l-1.2-4.9h-3L85.2,74.4z M98.9,74.4h3.4l2.3-3.5l2.2,3.5h3.6l-3.8-5.4l3.4-4.9h-3.4l-1.9,3.1l-1.8-3.1
			h-3.6l3.4,4.9L98.9,74.4z M110.8,64.1l3.7,8.8c0.4,1,0.5,1.3,0.5,1.6c0,1-0.7,1.3-1.4,1.3H112v2.5h1.6c1.9,0,3.4-0.5,4.1-2.5
			l4.4-11.8h-3.4l-2.2,7l-2.3-7H110.8z M131.7,64.1h-8.5v2.4h4.9l-4.9,5.6v2.3h8.5V72h-4.9l4.9-5.6V64.1z"/>
	</g>
	<g>
		<path id="path3" d="M15.5,58.3h3.2v-4.9c0-1.8,0.7-2.5,2.3-2.5h1.3v-3h-0.9c-1.1,0-2.1,0.6-2.8,1.8h0V48h-3.1L15.5,58.3z
			 M63.6,58.5c3,0,4.6-1.4,4.6-3.3c0-1.8-0.9-2.7-3.2-3.1l-1.8-0.3c-0.9-0.2-1.3-0.5-1.3-1s0.5-0.9,1.4-0.9c0.9,0,1.4,0.4,1.5,1H68
			c-0.1-1.8-1.8-3.1-4.6-3.1c-2.8,0-4.6,1.3-4.6,3.4c0,1.7,1.3,2.6,3,2.9l1.9,0.3c0.9,0.1,1.3,0.4,1.3,1c0,0.6-0.4,0.9-1.4,0.9
			c-1,0-1.6-0.3-1.7-1h-3.2C59,56.7,60.2,58.5,63.6,58.5"/>
	</g>
	<g>
		<path id="path5" d="M22,31.7c-1.8,0-2.7,0.9-3.3,1.7h-0.1v-1.4h-3.1v10.3h3.2v-5.5c0-1.7,0.7-2.5,2-2.5c1,0,1.5,0.6,1.5,1.8v6.2
			h3.2v-6.8C25.4,32.6,24,31.7,22,31.7 M64.5,42.4c3.4,0,5.4-2.4,5.4-5.4c0-3-2.1-5.4-5.4-5.4c-3.3,0-5.4,2.4-5.4,5.4
			C59,40.1,61.1,42.4,64.5,42.4 M64.5,40.2c-1.4,0-2.2-1.3-2.2-3.1c0-1.8,0.7-3.1,2.2-3.1c1.4,0,2.2,1.3,2.2,3.1
			C66.6,38.9,65.9,40.2,64.5,40.2 M71.9,45.9h3.2V41h0.1c0.8,1.1,2,1.5,3.3,1.5c2.7,0,4.5-2,4.5-5.4c0-3.4-1.8-5.5-4.5-5.5
			c-1.4,0-2.6,0.5-3.4,1.5H75v-1.3h-3.1L71.9,45.9z M75,37.2c0-2.1,1-3.2,2.4-3.2c1.4,0,2.4,1.1,2.4,3.2c0,2.1-0.9,3.2-2.4,3.2
			C76,40.4,75,39.3,75,37.2 M92.5,45.9h3.2v-14h-3.1v1.4h-0.1c-0.8-1.1-2.1-1.6-3.4-1.6c-2.6,0-4.5,2.1-4.5,5.5
			c0,3.3,1.9,5.4,4.5,5.4c1.4,0,2.6-0.5,3.3-1.5h0.1L92.5,45.9z M90.3,40.2c-1.4,0-2.4-1.1-2.4-3.2c0-2.1,1-3.2,2.4-3.2
			c1.4,0,2.4,1.1,2.4,3.2C92.7,39.1,91.7,40.2,90.3,40.2"/>
	</g>
	<g>
		<path id="path7" d="M24.6,23.8v-4.8c0-2.5-1.7-3.6-4.5-3.6c-2.8,0-4.6,1.5-4.7,3.5h3.1c0.1-0.8,0.6-1.4,1.6-1.4
			c1,0,1.3,0.4,1.3,1.2v0.9l-3.1,0.5C16,20.5,15,21.7,15,23.4c0,1.9,1.4,2.9,3.3,2.9c1.9,0,2.7-0.9,3.1-1.6h0.1v-0.1
			c0,0.3,0,1,0.2,1.4h3.2v-0.1C24.7,25.6,24.6,24.7,24.6,23.8 M21.4,22.3c0,1.2-0.7,1.9-2,1.9c-0.9,0-1.4-0.4-1.4-1.1
			c0-0.6,0.5-1.1,1.5-1.3l1.8-0.3V22.3z M59.4,26h3.1v-1.5h0.1c0.8,1.3,2.1,1.7,3.4,1.7c2.7,0,4.6-2.1,4.6-5.4
			c0-3.2-1.9-5.3-4.5-5.3c-1.3,0-2.5,0.5-3.3,1.6h0v-5.5h-3.2V26z M62.5,20.9c0-2.1,1-3.2,2.4-3.2c1.4,0,2.3,1.1,2.3,3.2
			c0,2.1-0.9,3.2-2.3,3.2C63.5,24.1,62.5,23,62.5,20.9 M77.4,26.3c2.8,0,4.4-1.2,5-4h-3.2c-0.2,1.1-0.8,1.6-1.8,1.6
			c-1.3,0-2.1-1.2-2.1-3c0-1.8,0.8-3,2.1-3c1,0,1.6,0.6,1.7,1.7h3.2c-0.4-2.7-2.1-4.1-5-4.1c-3.1,0-5.2,2.2-5.2,5.4
			C72.2,24.1,74.3,26.3,77.4,26.3 M88.4,26.3c1.4,0,2.6-0.5,3.4-1.6h0.1V26h3.1V11.7h-3.2V17h-0.1c-0.8-1-2-1.5-3.3-1.5
			c-2.8,0-4.5,2.1-4.5,5.3C83.9,24.1,85.6,26.3,88.4,26.3 M89.5,24.1c-1.4,0-2.3-1.1-2.3-3.2c0-2.1,0.9-3.2,2.3-3.2
			c1.4,0,2.4,1.1,2.4,3.2C91.9,23,90.9,24.1,89.5,24.1 M102.4,24.2c-1.2,0-2-0.7-2.2-2.4h7.3c0-3.8-1.9-6.2-5.2-6.2
			c-3.4,0-5.3,2.5-5.3,5.4c0,2.9,1.9,5.4,5.3,5.4c2.6,0,4.6-1.2,5.1-3.2h-3.2C104,23.8,103.4,24.2,102.4,24.2 M102.3,17.7
			c1.3,0,1.9,1,2,2.2h-4C100.5,18.4,101.3,17.7,102.3,17.7 M114.4,13.9h1.2v-2.2h-1.9c-2.6,0-3.5,1-3.5,2.5v1.6h-1.6v2.1h1.6V26h3.2
			v-8.1h2.2v-2.1h-2.2v-1C113.4,14.1,113.8,13.9,114.4,13.9 M124.5,15.8v1.5c-0.6-1-1.7-1.7-3.3-1.7c-2.6,0-4.4,2-4.4,5.1
			c0,3.2,1.8,5.2,4.4,5.2c1.6,0,2.7-0.7,3.3-1.8v1.4c0,1.9-1,2.5-2.2,2.5c-1,0-1.8-0.5-2.1-1.2H117c0.5,1.8,2.4,3.4,5.2,3.4
			c3,0,5.4-1.5,5.4-4.9v-9.5L124.5,15.8z M122.3,23.5c-1.5,0-2.3-1.2-2.3-2.8c0-1.6,0.8-2.8,2.3-2.8c1.5,0,2.2,1.2,2.2,2.8
			C124.5,22.3,123.8,23.5,122.3,23.5 M136.6,15.5c-1.8,0-2.7,0.9-3.3,1.7h-0.1c0.1-0.7,0.1-1.2,0.1-1.8v-3.7h-3.2V26h3.2v-5.5
			c0-1.7,0.7-2.5,2-2.5c1,0,1.5,0.6,1.5,1.8V26h3.2v-6.8C140,16.5,138.6,15.5,136.6,15.5 M142.3,14.5h3.2v-2.9h-3.2V14.5z M142.3,26
			h3.2V15.8h-3.2V26z M148.1,14.5h3.2v-2.9h-3.2V14.5z M147.3,30c2.3,0,3.9-1.2,3.9-3.3V15.8h-3.2V26c0,1.2-0.4,1.6-1.7,1.6h-0.7V30
			H147.3z M160.2,26h3.4l-3.7-6.4l3.5-3.9h-3.6l-3,3.5v-7.6h-3.1V26h3.1v-2.9l1.1-1.3L160.2,26z M165,26h3.2V11.7H165V26z M170.7,26
			h3.2v-5.9c0-1.4,0.8-2,1.7-2c0.9,0,1.4,0.6,1.4,1.7V26h3.2v-5.9c0-1.6,0.9-2,1.7-2c0.9,0,1.4,0.5,1.4,1.7V26h3.2v-6.8
			c0-2.7-1.4-3.7-3.3-3.7c-1.5,0-2.5,0.6-3.3,1.8h-0.1c-0.3-0.9-1.2-1.8-2.8-1.8s-2.5,0.7-3.3,1.7h-0.1v-1.5h-3.1L170.7,26z"/>
	</g>
</g>
</svg>
