<?xml version="1.0" encoding="utf-8"?>
<!-- Generator: Adobe Illustrator 27.8.0, SVG Export Plug-In . SVG Version: 6.00 Build 0)  -->
<svg version="1.1" id="Calque_1" xmlns="http://www.w3.org/2000/svg" xmlns:xlink="http://www.w3.org/1999/xlink" x="0px" y="0px"
	 viewBox="0 0 520 520" style="enable-background:new 0 0 520 520;" xml:space="preserve">
<style type="text/css">
	.st0{fill:#FFFFFF;stroke:#FFFFFF;stroke-width:10;}
</style>
<rect y="0" width="520" height="520"/>
<g>
	<g>
		<path class="st0" d="M288.8,283.6c4.4,3.3,10.6,2.8,14.6-1.1c4.4-4.4,4.4-11.5,0-15.9c-8.1-8.2-84.9-4.4-119.6-2.1
			s-64.7,1.7-78.3,2.2c0.2-0.7,0.4-1.3,0.5-2c0.9-6.1-3.3-11.8-9.5-12.7c-10.3-1.5-23.4-1.2-28.2,8.5c-2.3,4.7-3.1,12.3,6.4,21.8
			c4.7,4.7,12.7,6.6,28,6.6c12.3,0,51.3-0.7,82.9-2C214.2,285.7,281.1,281.3,288.8,283.6 M443.1,263.3
			c-146.8-15.2-201.7-107.9-199.8-144c0.5-9,3.7-9,5.1-9c6.2,0,11.2-5,11.2-11.2s-5-11.2-11.2-11.2c-15.8,0-26.7,11.9-27.6,30.2
			c-2.2,42.9,47.1,127.6,167.6,158.3c-102.6,33-147.5,94-157.1,125.5c-1.9,6.2-3.7,15.1,2.1,20.9c3.4,3.4,7.7,5.3,12.2,5.3
			c0.6,0,1.2,0,1.8-0.1c9.3-1,15.3-9.3,16.9-11.8c3.4-5.2,1.9-12-3.3-15.4c-1.4-0.9-2.9-1.4-4.4-1.7c14.2-28.3,63.4-90,187.5-113.6
			c5.5-1,9.4-6,9.1-11.5C452.9,268.4,448.7,263.9,443.1,263.3"/>
	</g>
</g>
</svg>
