<?xml version="1.0" encoding="UTF-8" standalone="no"?>
<svg
   width="137"
   height="158"
   viewBox="0 0 137 158"
   fill="none"
   version="1.1"
   id="svg1"
   sodipodi:docname="villa_albertine_logo.svg"
   inkscape:version="1.3 (0e150ed, 2023-07-21)"
   xmlns:inkscape="http://www.inkscape.org/namespaces/inkscape"
   xmlns:sodipodi="http://sodipodi.sourceforge.net/DTD/sodipodi-0.dtd"
   xmlns="http://www.w3.org/2000/svg"
   xmlns:svg="http://www.w3.org/2000/svg">
  <defs
     id="defs1">
    <clipPath
       clipPathUnits="userSpaceOnUse"
       id="clipPath2">
      <path
         d="M 0,0 H 153.052 V 68.147 H 0 Z"
         id="path2" />
    </clipPath>
    <clipPath
       clipPathUnits="userSpaceOnUse"
       id="clipPath4">
      <path
         d="M 0,0 H 153.052 V 68.147 H 0 Z"
         id="path4" />
    </clipPath>
    <clipPath
       clipPathUnits="userSpaceOnUse"
       id="clipPath6">
      <path
         d="M 0,0 H 153.052 V 68.147 H 0 Z"
         id="path6" />
    </clipPath>
    <clipPath
       clipPathUnits="userSpaceOnUse"
       id="clipPath8">
      <path
         d="M 0,0 H 153.052 V 68.147 H 0 Z"
         id="path8" />
    </clipPath>
    <clipPath
       clipPathUnits="userSpaceOnUse"
       id="clipPath2-0">
      <path
         d="M 0,0 H 153.052 V 68.147 H 0 Z"
         id="path2-2" />
    </clipPath>
    <clipPath
       clipPathUnits="userSpaceOnUse"
       id="clipPath4-3">
      <path
         d="M 0,0 H 153.052 V 68.147 H 0 Z"
         id="path4-9" />
    </clipPath>
    <clipPath
       clipPathUnits="userSpaceOnUse"
       id="clipPath6-9">
      <path
         d="M 0,0 H 153.052 V 68.147 H 0 Z"
         id="path6-7" />
    </clipPath>
    <clipPath
       clipPathUnits="userSpaceOnUse"
       id="clipPath8-0">
      <path
         d="M 0,0 H 153.052 V 68.147 H 0 Z"
         id="path8-3" />
    </clipPath>
  </defs>
  <sodipodi:namedview
     id="namedview1"
     pagecolor="#ffffff"
     bordercolor="#000000"
     borderopacity="0.25"
     inkscape:showpageshadow="2"
     inkscape:pageopacity="0.0"
     inkscape:pagecheckerboard="0"
     inkscape:deskcolor="#d1d1d1"
     inkscape:zoom="2.848942"
     inkscape:cx="56.1612"
     inkscape:cy="80.380718"
     inkscape:window-width="1416"
     inkscape:window-height="765"
     inkscape:window-x="0"
     inkscape:window-y="38"
     inkscape:window-maximized="0"
     inkscape:current-layer="svg1" />
  <path
     d="M 132.97922,73.861638 H 72.206808 L 68.714163,65.303857 H 79.675824 L 100.95394,11.927373 H 89.938691 L 68.606668,64.892403 47.516215,11.927373 H 36.527722 L 61.164567,73.861638 H 4.448776 v 9.901793 h 60.692077 l 3.385236,8.557777 H 57.859995 L 36.473974,146.32853 h 11.015409 l 6.26,-15.63477 h 22.003902 l -0.107491,-9.38 H 57.430101 L 68.687331,92.842319 89.99236,146.32853 H 100.9271 L 76.075684,83.763431 h 56.903536 z"
     fill="#010000"
     id="path1"
     style="fill:#000000;fill-opacity:1;stroke-width:0.844544" />
</svg>
