<?xml version="1.0" standalone="no"?>
<!DOCTYPE svg PUBLIC "-//W3C//DTD SVG 1.1//EN" "http://www.w3.org/Graphics/SVG/1.1/DTD/svg11.dtd" >
<svg xmlns="http://www.w3.org/2000/svg">
<metadata></metadata>
<defs>
<font id="profilebold" horiz-adv-x="524" >
<font-face units-per-em="2048" ascent="1638" descent="-410" />
<missing-glyph horiz-adv-x="430" />
<glyph horiz-adv-x="2048" />
<glyph horiz-adv-x="2048" />
<glyph unicode="&#xd;" horiz-adv-x="2048" />
<glyph unicode=" "  horiz-adv-x="430" />
<glyph unicode="&#x09;" horiz-adv-x="430" />
<glyph unicode="&#xa0;" horiz-adv-x="430" />
<glyph unicode="!" d="M117 147q0 69 48.5 117.5t117.5 48.5t116 -48.5t47 -117.5t-47 -117t-116 -48t-117.5 48t-48.5 117zM123 1233h317l-57 -823h-203z" />
<glyph unicode="&#x22;" horiz-adv-x="802" d="M92 743v490h270l-79 -490h-191zM469 743v490h268l-78 -490h-190z" />
<glyph unicode="#" horiz-adv-x="1251" d="M72 287v153l192 25v330h-182v153l180 25l21 260h192v-264h297l25 264h186v-264h197v-154l-197 -22v-330h186v-156l-184 -22l-24 -285h-185v287h-299l-24 -287h-189v287h-192zM475 463h301v332h-301v-332z" />
<glyph unicode="$" horiz-adv-x="948" d="M72 61l88 232q160 -76 272 -76q87 0 134.5 30.5t47.5 92.5q0 52 -33 81t-108 58l-156 62q-115 45 -177 124.5t-62 215.5q0 137 85.5 231.5t219.5 126.5v158h209v-148q112 -10 250 -69l-90 -224q-44 21 -71.5 32t-72 22.5t-84.5 11.5q-80 0 -129 -30.5t-49 -90.5 q0 -51 29.5 -76.5t93.5 -50.5l160 -63q120 -47 188 -126t68 -190q0 -145 -79 -252t-214 -145v-176h-209v160q-161 9 -311 79z" />
<glyph unicode="%" horiz-adv-x="1847" d="M51 905q0 151 102.5 251.5t254.5 100.5q153 0 254.5 -100t101.5 -252q0 -151 -102 -252.5t-254 -101.5q-151 0 -254 102t-103 252zM264 905q0 -63 40.5 -103t103.5 -40q64 0 103.5 40t39.5 103q0 65 -39.5 104.5t-103.5 39.5q-63 0 -103.5 -40t-40.5 -104zM473 57 l725 1223l186 -106l-725 -1223zM1083 328q0 150 102 251t253 101q152 0 254 -100.5t102 -251.5t-102 -252t-254 -101q-151 0 -253 101t-102 252zM1294 328q0 -63 40.5 -103.5t103.5 -40.5q64 0 104.5 40.5t40.5 103.5q0 64 -40 103.5t-105 39.5q-63 0 -103.5 -39.5 t-40.5 -103.5z" />
<glyph unicode="&#x26;" horiz-adv-x="1370" d="M102 295q0 101 46 175t131 144q-136 136 -136 308q0 155 98.5 247.5t256.5 92.5q126 0 208 -79.5t82 -205.5q0 -77 -26 -138t-66 -103t-108 -93l268 -192q45 128 51 321h385v-190h-215q-6 -123 -57 -244l268 -193l-127 -182l-264 193q-165 -183 -424 -183 q-169 0 -270 83.5t-101 238.5zM334 346q0 -78 48 -125t130 -47q135 0 227 92l-278 207q-7 5 -23.5 16.5t-23.5 16.5q-80 -80 -80 -160zM352 936q0 -105 107 -201q64 52 95.5 101t31.5 120q0 56 -30 88.5t-83 32.5q-55 0 -88 -35t-33 -106z" />
<glyph unicode="'" horiz-adv-x="425" d="M92 743v490h270l-79 -490h-191z" />
<glyph unicode="(" horiz-adv-x="585" d="M106 526q0 165 27.5 314.5t77.5 271t102 212.5t119 181l180 -100q-51 -86 -82 -144t-68.5 -145.5t-58 -168t-35 -189.5t-14.5 -232t14.5 -232t35 -189t58 -168.5t68.5 -146t82 -144.5l-180 -99q-67 89 -119 180t-102 212.5t-77.5 271.5t-27.5 315z" />
<glyph unicode=")" horiz-adv-x="585" d="M-27 -354q51 87 82 144.5t68.5 146t58 168.5t35 189t14.5 232t-14.5 232t-35 189.5t-58 168t-68.5 145.5t-82 144l181 100q67 -90 119 -181t101.5 -212.5t77 -271t27.5 -314.5t-27.5 -315t-77 -271.5t-102 -212.5t-118.5 -180z" />
<glyph unicode="*" horiz-adv-x="940" d="M12 823l68 207l299 -115l2 3l-19 315h218l-21 -318l2 -2l299 115l68 -209l-314 -74l-2 -2l207 -251l-176 -130l-172 275h-4l-172 -272l-176 127l207 253l-2 3z" />
<glyph unicode="+" horiz-adv-x="960" d="M53 485v201h328v328h199v-328h329v-201h-329v-327h-199v327h-328z" />
<glyph unicode="," d="M96 147q0 67 48 115.5t116 48.5q73 0 120.5 -49t47.5 -133q0 -158 -61 -263t-189 -200l-80 86q123 107 144 230q-62 8 -104 55t-42 110z" />
<glyph unicode="-" horiz-adv-x="716" d="M82 496v204h553v-204h-553z" />
<glyph unicode="." d="M96 147q0 68 48.5 116t117.5 48t117.5 -48t48.5 -116t-48.5 -116.5t-117.5 -48.5t-117.5 48.5t-48.5 116.5z" />
<glyph unicode="/" horiz-adv-x="800" d="M-66 -322l644 1778l225 -82l-645 -1777z" />
<glyph unicode="0" horiz-adv-x="1060" d="M90 522q0 88 15 167t49 149.5t84.5 121t125 80t166.5 29.5q114 0 201 -44.5t138 -122t76.5 -173.5t25.5 -207t-25.5 -207t-76.5 -173.5t-138 -122t-201 -44.5q-92 0 -166.5 29.5t-125 80t-84.5 121t-49 149.5t-15 167zM352 522q0 -151 44.5 -233t133.5 -82q90 0 134.5 82 t44.5 233q0 152 -44.5 234t-134.5 82q-89 0 -133.5 -82.5t-44.5 -233.5z" />
<glyph unicode="1" horiz-adv-x="645" d="M37 989l471 76v-1065h-260v829l-180 -24z" />
<glyph unicode="2" horiz-adv-x="917" d="M63 936q152 133 357 133q166 0 266 -93t100 -257q0 -172 -165 -322l-179 -159v-2h422v-236h-796v158l325 301q68 63 97.5 107t29.5 110q0 71 -41.5 114.5t-111.5 43.5q-99 0 -189 -70z" />
<glyph unicode="3" horiz-adv-x="847" d="M47 944q142 125 332 125q166 0 259 -81.5t93 -235.5q0 -106 -60.5 -190.5t-156.5 -129.5v-2q125 -32 195.5 -117t70.5 -207q0 -186 -123 -304.5t-329 -118.5q-127 0 -265 41l58 239q122 -39 217 -39q87 0 135.5 43t48.5 117q0 110 -95 161.5t-296 51.5v182q180 9 263 63 t83 158q0 63 -39 100.5t-102 37.5q-55 0 -91 -14.5t-87 -49.5z" />
<glyph unicode="4" horiz-adv-x="1114" d="M55 113v176l568 755h231v-725h231v-206h-231v-398l-256 -30v428h-543zM295 319h303v412h-2z" />
<glyph unicode="5" horiz-adv-x="882" d="M92 -121q44 7 80 14t84.5 20t86.5 28.5t77.5 39t65.5 52t42.5 67.5t16.5 84q0 104 -80 154.5t-252 50.5h-121l39 655h643v-233h-428l-14 -242q39 2 80 2q190 0 294.5 -92t104.5 -268q0 -473 -680 -553z" />
<glyph unicode="6" horiz-adv-x="960" d="M102 469q0 191 55.5 341t155 246.5t229 152t287.5 71.5l33 -203q-452 -58 -504 -397l2 -2q9 7 26.5 16.5t72.5 26t112 16.5q153 0 235.5 -96t82.5 -254q0 -188 -107.5 -300t-292.5 -112q-100 0 -176 39t-121.5 108t-67.5 156t-22 191zM358 461q0 -145 36.5 -209 t115.5 -64q67 0 100 43t33 119q0 94 -34 139.5t-111 45.5q-37 0 -72 -12t-52 -24l-16 -12v-26z" />
<glyph unicode="7" horiz-adv-x="917" d="M53 811v233h813v-188l-594 -1198l-215 106l521 1047h-525z" />
<glyph unicode="8" horiz-adv-x="940" d="M86 301q0 179 197 328q-81 63 -125.5 132.5t-44.5 170.5q0 144 104 234.5t248 90.5q154 0 252 -80t98 -219q0 -157 -168 -292q44 -31 77 -60.5t64.5 -70t48.5 -92t17 -111.5q0 -152 -104 -254.5t-277 -102.5q-188 0 -287.5 84t-99.5 242zM317 328q0 -72 44 -111t116 -39 q68 0 108 41.5t40 102.5q0 36 -14 67.5t-42.5 58.5t-54.5 46t-65 43q-64 -47 -98 -94.5t-34 -114.5zM342 932q0 -51 35.5 -90t103.5 -84q117 86 117 176q0 60 -35 94.5t-96 34.5q-58 0 -91.5 -36t-33.5 -95z" />
<glyph unicode="9" horiz-adv-x="962" d="M78 666q0 186 114 294.5t293 108.5q191 0 286 -134.5t95 -365.5q0 -389 -180.5 -608t-535.5 -303l-70 199q87 20 170 58t159.5 96t128.5 144t64 187l-2 2q-9 -6 -24.5 -15.5t-67 -25.5t-105.5 -16q-148 0 -236.5 107.5t-88.5 271.5zM315 680q0 -88 37.5 -137t114.5 -49 q38 0 73 11t50 21l16 11v36q0 140 -33.5 210.5t-113.5 70.5q-64 0 -104 -47t-40 -127z" />
<glyph unicode=":" d="M96 147q0 68 48.5 116t117.5 48t117.5 -48t48.5 -116t-48.5 -116.5t-117.5 -48.5t-117.5 48.5t-48.5 116.5zM96 823q0 68 48.5 117t117.5 49t117.5 -49t48.5 -117t-48.5 -117t-117.5 -49t-117.5 49t-48.5 117z" />
<glyph unicode=";" d="M96 147q0 67 48 115.5t116 48.5q73 0 120.5 -49t47.5 -133q0 -158 -61 -263t-189 -200l-80 86q123 107 144 230q-62 8 -104 55t-42 110zM96 823q0 68 48.5 117t117.5 49t117.5 -49t48.5 -117t-48.5 -117t-117.5 -49t-117.5 49t-48.5 117z" />
<glyph unicode="&#x3c;" horiz-adv-x="960" d="M49 586l715 434l108 -178l-434 -254v-2l434 -254l-108 -180z" />
<glyph unicode="=" horiz-adv-x="960" d="M53 319v201h856v-201h-856zM53 649v201h856v-201h-856z" />
<glyph unicode="&#x3e;" horiz-adv-x="960" d="M88 330l436 254v2l-436 254l111 180l714 -434l-714 -434z" />
<glyph unicode="?" horiz-adv-x="724" d="M37 1133q57 53 143 88.5t180 35.5q151 0 245.5 -77.5t94.5 -216.5q0 -64 -19 -116t-49 -84.5t-66.5 -59t-73 -46.5t-66.5 -40t-49 -45.5t-19 -57.5q0 -20 7 -40t15 -30l7 -10l-190 -51q-7 8 -18 22.5t-29.5 58t-18.5 85.5q0 50 23 90t58 64t75.5 47.5t75.5 42.5t58 48 t23 64q0 58 -36.5 90.5t-100.5 32.5q-85 0 -172 -61zM143 147q0 69 47.5 116.5t116.5 47.5t118.5 -47.5t49.5 -116.5t-49.5 -117t-118.5 -48t-116.5 48t-47.5 117z" />
<glyph unicode="@" horiz-adv-x="1753" d="M84 283q0 167 56 302.5t152.5 222.5t223 133t270.5 46q196 0 300 -100t104 -269v-364l33 -240l-250 -32l-17 106h-2q-36 -33 -63 -53.5t-76.5 -40t-101.5 -19.5q-115 0 -183.5 68t-68.5 188q0 132 90 202.5t248 86.5l135 15v63q0 81 -44 129.5t-134 48.5 q-205 0 -332 -127.5t-127 -353.5q0 -255 134 -399t405 -144q291 0 453.5 169.5t162.5 461.5q0 241 -207 494l170 129q67 -76 118 -160.5t89.5 -208t38.5 -252.5q0 -196 -61 -352.5t-171 -259t-261.5 -157t-333.5 -54.5q-231 0 -397 78t-259.5 241.5t-93.5 401.5zM713 266 q0 -45 26.5 -74.5t69.5 -29.5q70 0 125 47v178l-88 -10q-133 -17 -133 -111z" />
<glyph unicode="A" horiz-adv-x="1122" d="M25 0l409 1233h281l393 -1200l-264 -68l-105 377h-344l-94 -342h-276zM444 520h250l-123 451z" />
<glyph unicode="B" horiz-adv-x="1060" d="M141 0v1223q174 22 346 22q439 0 439 -284q0 -109 -60.5 -174.5t-169.5 -106.5v-2q145 -15 230.5 -91.5t85.5 -201.5q0 -188 -147.5 -286.5t-422.5 -98.5h-301zM406 219h120q96 0 151.5 41.5t55.5 118.5q0 86 -63.5 125t-190.5 39h-73v-324zM406 729q241 0 241 170 q0 143 -178 143l-63 -4v-309z" />
<glyph unicode="C" horiz-adv-x="1091" d="M76 596q0 157 47 282.5t130 208t196.5 126.5t248.5 44q108 0 186 -18.5t169 -58.5l-101 -232q-68 34 -120.5 50t-129.5 16q-67 0 -127.5 -24.5t-108.5 -71t-76 -122t-28 -169.5q0 -210 84 -307t259 -97q69 0 128.5 18.5t131.5 53.5l92 -217q-109 -57 -203.5 -80 t-220.5 -23q-120 0 -221.5 40.5t-176.5 117t-117 195.5t-42 268z" />
<glyph unicode="D" horiz-adv-x="1243" d="M141 0v1223q182 22 383 22q145 0 262 -34t202.5 -101t132 -173t46.5 -245q0 -329 -198 -510.5t-537 -181.5h-291zM418 246h71q187 0 291.5 107t104.5 319q0 171 -99 258.5t-266 87.5l-102 -4v-768z" />
<glyph unicode="E" horiz-adv-x="899" d="M141 0v1233h658v-232h-385v-266h342v-221h-342v-283h415v-231h-688z" />
<glyph unicode="F" horiz-adv-x="843" d="M141 0v1233h658v-232h-385v-290h342v-228h-342v-483h-273z" />
<glyph unicode="G" horiz-adv-x="1210" d="M76 598q0 198 85 348.5t234.5 230.5t341.5 80q199 0 369 -75l-90 -234q-77 35 -139 51.5t-144 16.5q-164 0 -266 -101t-102 -282q0 -207 88 -306.5t274 -99.5q22 0 48 2.5t41 5.5l15 3v387h273v-580q-20 -8 -57 -19.5t-156.5 -31t-245.5 -19.5q-254 0 -411.5 169 t-157.5 454z" />
<glyph unicode="H" horiz-adv-x="1255" d="M141 0v1233h277v-496h422v496h274v-1233h-274v514h-422v-514h-277z" />
<glyph unicode="I" horiz-adv-x="559" d="M141 0v1233h277v-1233h-277z" />
<glyph unicode="J" horiz-adv-x="598" d="M-47 -121q84 41 130.5 81.5t71.5 108t25 171.5v993h275v-981q0 -155 -44 -267t-128 -187t-220 -132z" />
<glyph unicode="K" horiz-adv-x="1210" d="M141 0v1233h277v-1233h-277zM424 621l432 612h295l-422 -569l463 -568l-240 -145z" />
<glyph unicode="L" horiz-adv-x="866" d="M141 0v1233h277v-1002h430v-231h-707z" />
<glyph unicode="M" horiz-adv-x="1579" d="M113 0l90 1233h297l288 -871h3l290 871h299l84 -1227l-262 -16l-24 813h-2l-271 -803h-262l-258 799h-2l-33 -799h-237z" />
<glyph unicode="N" horiz-adv-x="1232" d="M141 0v1233h221l490 -750h2l-10 750h248v-1217l-203 -39l-506 779h-2l8 -756h-248z" />
<glyph unicode="O" horiz-adv-x="1325" d="M76 618q0 99 18 188t62 172.5t109.5 144.5t168 97.5t230.5 36.5q129 0 231 -36.5t167 -97t108 -144t61 -172.5t18 -189q0 -97 -18.5 -186.5t-62.5 -174t-109.5 -146t-167 -99t-227.5 -37.5q-106 0 -195 25.5t-152.5 72t-110.5 106.5t-75 133.5t-41.5 149t-13.5 156.5z M365 618q0 -196 75 -303.5t224 -107.5q148 0 223.5 108t75.5 303q0 196 -73.5 301t-225.5 105q-150 0 -224.5 -106t-74.5 -300z" />
<glyph unicode="P" horiz-adv-x="970" d="M141 0v1221q162 24 334 24q218 0 335.5 -89t117.5 -257q0 -135 -69 -239t-181.5 -157.5t-247.5 -53.5h-18v-449h-271zM412 651h18q101 0 168.5 58t67.5 161q0 172 -189 172l-65 -4v-387z" />
<glyph unicode="Q" horiz-adv-x="1325" d="M76 618q0 99 18 188t62 172.5t109.5 144.5t168 97.5t230.5 36.5q129 0 231 -36.5t167 -97t108 -144t61 -172.5t18 -189q0 -97 -18.5 -186.5t-62.5 -174t-109.5 -146t-167 -99t-227.5 -37.5q-106 0 -195 25.5t-152.5 72t-110.5 106.5t-75 133.5t-41.5 149t-13.5 156.5z M365 618q0 -196 75 -303.5t224 -107.5q148 0 223.5 108t75.5 303q0 196 -73.5 301t-225.5 105q-150 0 -224.5 -106t-74.5 -300zM635 -274l24 213l672 -45l-26 -224z" />
<glyph unicode="R" horiz-adv-x="1060" d="M141 0v1221q174 24 334 24q218 0 334.5 -85t116.5 -255q0 -197 -189 -315l305 -518l-247 -103l-289 525q-34 -5 -76 -5h-18v-489h-271zM412 666h16q103 0 171.5 52.5t68.5 158.5q0 88 -54 127.5t-141 39.5l-61 -4v-374z" />
<glyph unicode="S" horiz-adv-x="948" d="M72 59l88 232q152 -76 272 -76q180 0 180 123q0 51 -31 78t-108 61l-156 68q-115 49 -177 127t-62 213q0 114 61.5 200t158.5 129t212 43q94 0 167 -17.5t165 -55.5l-90 -226q-44 21 -71.5 32t-72 22.5t-84.5 11.5q-80 0 -129 -30.5t-49 -90.5q0 -27 8.5 -46.5t29 -34.5 t36.5 -23.5t49 -22.5l160 -67q256 -106 256 -318q0 -180 -119 -298t-311 -118q-205 0 -383 84z" />
<glyph unicode="T" horiz-adv-x="968" d="M14 1001v232h940v-232h-331v-1001h-277v1001h-332z" />
<glyph unicode="U" horiz-adv-x="1261" d="M137 514v719h279v-711q0 -153 53 -218.5t168 -65.5q107 0 163 70t56 194v731h268v-725q0 -251 -129.5 -394t-357.5 -143q-500 0 -500 543z" />
<glyph unicode="V" horiz-adv-x="1101" d="M18 1200l269 70l256 -912h2l250 875h278l-389 -1233h-285z" />
<glyph unicode="W" horiz-adv-x="1646" d="M37 1210l266 50l148 -838h2l233 811h283l229 -811h2l139 811h260l-266 -1233h-270l-246 840h-2l-250 -840h-266z" />
<glyph unicode="X" horiz-adv-x="1159" d="M-2 0l422 625l-381 526l240 131l303 -440h2l239 391h303l-393 -586l412 -563l-242 -131l-332 477h-2l-268 -430h-303z" />
<glyph unicode="Y" horiz-adv-x="1026" d="M4 1171l250 109l246 -530h2l229 483h291l-389 -727v-506h-275v502z" />
<glyph unicode="Z" horiz-adv-x="1130" d="M70 0v190l602 811v3h-549v229h897v-189l-586 -815v-2h633v-227h-997z" />
<glyph unicode="[" horiz-adv-x="581" d="M137 -420v1893h432v-175h-192v-1544h192v-174h-432z" />
<glyph unicode="\" horiz-adv-x="800" d="M-2 1374l225 82l643 -1778l-223 -81z" />
<glyph unicode="]" horiz-adv-x="581" d="M12 -246h195v1544h-195v175h434v-1893h-434v174z" />
<glyph unicode="^" horiz-adv-x="878" d="M39 748l401 512l402 -512l-164 -127l-240 282h-2l-235 -282z" />
<glyph unicode="_" horiz-adv-x="960" d="M53 -61h856v-201h-856v201z" />
<glyph unicode="`" horiz-adv-x="1015" d="M197 1303l114 174l391 -273l-90 -139z" />
<glyph unicode="a" horiz-adv-x="929" d="M72 231q0 132 89 202.5t247 86.5l135 15v65q0 166 -164 166q-85 0 -182 -53l-95 176q80 52 156.5 78t179.5 26q175 0 268 -88.5t93 -245.5v-405l32 -240l-249 -32l-13 106h-2q-37 -33 -65 -53.5t-77 -40t-101 -19.5q-115 0 -183.5 68t-68.5 188zM324 266q0 -46 25.5 -75 t70.5 -29q68 0 123 47v178l-88 -10q-131 -16 -131 -111z" />
<glyph unicode="b" horiz-adv-x="1024" d="M94 1368l293 33v-490h2q103 82 223 82q165 0 253.5 -114.5t88.5 -329.5q0 -256 -134 -411.5t-371 -155.5q-181 0 -322 45v1101zM387 215q50 -12 94 -12q102 0 158.5 79t56.5 210q0 138 -41 205t-135 67q-78 0 -133 -49v-500z" />
<glyph unicode="c" horiz-adv-x="860" d="M72 481q0 129 41 229.5t111 161t155.5 91t181.5 30.5q131 0 246 -45l-78 -227q-91 41 -168 41q-100 0 -162.5 -69.5t-62.5 -196.5q0 -142 57.5 -212.5t155.5 -70.5q35 0 66 6t50.5 12.5t57.5 22.5l78 -213q-145 -66 -285 -66q-215 0 -329.5 135t-114.5 371z" />
<glyph unicode="d" horiz-adv-x="1032" d="M72 451q0 254 131 390t348 136q23 0 45.5 -2t33.5 -4l11 -2v159l-33 240l293 33v-1149l33 -240l-248 -30l-14 100h-2q-2 -2 -17 -15t-26.5 -22t-34.5 -23.5t-44.5 -23.5t-52 -16t-61.5 -7q-117 0 -200.5 63.5t-122.5 169t-39 243.5zM330 489q0 -146 44.5 -214t141.5 -68 q77 0 125 43v495q-35 17 -98 17q-92 0 -152.5 -77.5t-60.5 -195.5z" />
<glyph unicode="e" horiz-adv-x="931" d="M72 500q0 220 119.5 355.5t312.5 135.5q79 0 140.5 -21.5t102 -59t67 -91.5t37.5 -115t11 -133v-114h-536q12 -254 245 -254q44 0 83.5 8t62.5 16.5t71 28.5l80 -199q-86 -43 -160 -62.5t-169 -19.5q-237 0 -352 136t-115 389zM330 614h305q0 78 -34.5 123t-104.5 45 q-72 0 -114 -47.5t-52 -120.5z" />
<glyph unicode="f" horiz-adv-x="692" d="M16 764v172l150 35v71q0 162 105 261.5t268 99.5q70 0 168 -27l-62 -221q-54 16 -86 16q-63 0 -99 -35.5t-36 -105.5v-61h246v-205h-246v-764h-258v764h-150z" />
<glyph unicode="g" horiz-adv-x="1009" d="M59 -176q0 45 12.5 84t30.5 62.5t35.5 41t30.5 24.5l12 7q-74 57 -74 156q0 36 13 68.5t31 53.5t36.5 37t31.5 24l13 7q-66 45 -101.5 116.5t-35.5 156.5q0 141 96.5 237t268.5 96q116 0 198 -45l316 43v-182h-187q33 -65 33 -149q0 -141 -94.5 -237.5t-265.5 -96.5 q-49 0 -101 10q-36 -27 -36 -72q0 -57 75 -57h303q261 0 261 -213q0 -61 -20.5 -121.5t-65 -117.5t-107.5 -100.5t-155 -70t-201 -26.5q-172 0 -262.5 67t-90.5 197zM270 -115q0 -127 168 -127q133 0 217 54.5t84 124.5q0 29 -22 41t-66 12h-245q-48 0 -91 6 q-5 -4 -12.5 -12.5t-20 -37.5t-12.5 -61zM328 659q0 -71 35.5 -108t95.5 -37q57 0 92 37.5t35 107.5t-34.5 108t-92.5 38q-59 0 -95 -38.5t-36 -107.5z" />
<glyph unicode="h" horiz-adv-x="1069" d="M94 1368l293 33v-498h2q19 17 45.5 34.5t85.5 36.5t123 19q135 0 217 -79.5t82 -235.5v-678h-260v614q0 150 -137 150q-85 0 -158 -66v-698h-260v1128z" />
<glyph unicode="i" d="M100 1241q0 67 49 115.5t117 48.5t117 -48.5t49 -115.5q0 -69 -49 -117.5t-117 -48.5t-117 48.5t-49 117.5zM102 956l293 33v-989h-260v717z" />
<glyph unicode="j" d="M-78 -256q78 57 121.5 105t69.5 120.5t26 173.5v574l-33 239l293 33v-870q0 -139 -41.5 -244.5t-113.5 -177t-187 -137.5zM104 1241q0 67 49 115.5t117 48.5t117 -48.5t49 -115.5q0 -69 -49 -117.5t-117 -48.5t-117 48.5t-49 117.5z" />
<glyph unicode="k" horiz-adv-x="1050" d="M94 1368l293 33v-1401h-260v1128zM391 498l322 471h282l-309 -439l354 -491l-278 -78z" />
<glyph unicode="l" horiz-adv-x="512" d="M94 1368l293 33v-1401h-260v1130z" />
<glyph unicode="m" horiz-adv-x="1630" d="M98 956l250 33l12 -106h2q47 47 121.5 78.5t163.5 31.5q173 0 254 -127h2q124 127 301 127q135 0 217 -79t82 -236v-678h-258v614q0 152 -137 152q-47 0 -91 -21t-73 -51q4 -32 4 -61v-633h-260v614q0 78 -33 115t-102 37q-94 0 -162 -68v-698h-260v717z" />
<glyph unicode="n" horiz-adv-x="1073" d="M98 956l250 33l12 -106h2q48 48 120.5 79t162.5 31q134 0 218.5 -79t84.5 -236v-678h-260v614q0 78 -33 115t-102 37q-92 0 -162 -70v-696h-260v717z" />
<glyph unicode="o" horiz-adv-x="1015" d="M72 487q0 225 114 364.5t322 139.5q112 0 197 -37t136.5 -105.5t77 -159t25.5 -202.5q0 -226 -114.5 -368t-321.5 -142q-112 0 -197 38t-136.5 107.5t-77 161t-25.5 203.5zM330 489q0 -284 178 -284t178 280q0 279 -178 279q-88 0 -133 -65t-45 -210z" />
<glyph unicode="p" horiz-adv-x="1028" d="M98 956l250 33l12 -98h2q1 1 5 4q120 98 243 98q177 0 261.5 -123t84.5 -340q0 -254 -126.5 -396t-354.5 -142q-49 0 -84 10v-403l-260 -33v1151zM391 227q37 -16 92 -16q105 0 159 73.5t54 202.5q0 145 -37 212t-137 67q-65 0 -131 -51v-488z" />
<glyph unicode="q" horiz-adv-x="1021" d="M72 461q0 254 136.5 390t373.5 136q176 0 313 -45v-1343l-258 -33v485h-2q-93 -74 -203 -74q-171 0 -265.5 132.5t-94.5 351.5zM326 500q0 -156 43.5 -224.5t132.5 -68.5q76 0 135 47v504q-45 10 -96 10q-39 0 -76 -15t-69 -45.5t-51 -84t-19 -123.5z" />
<glyph unicode="r" horiz-adv-x="677" d="M98 956l250 33l17 -137h2q105 141 290 141v-237q-93 0 -154 -21.5t-112 -77.5v-657h-260v717z" />
<glyph unicode="s" horiz-adv-x="823" d="M63 37l68 213q54 -23 76.5 -31.5t67 -19.5t83.5 -11q131 0 131 82q0 34 -16.5 52t-58.5 36l-152 64q-188 77 -188 264q0 145 106 226t266 81q151 0 285 -57l-80 -209q-45 18 -67.5 26.5t-61 17.5t-73.5 9q-125 0 -125 -75q0 -34 20.5 -52t56.5 -32l158 -64 q189 -75 189 -246q0 -142 -104.5 -238t-270.5 -96q-181 0 -310 60z" />
<glyph unicode="t" horiz-adv-x="761" d="M16 764v172l150 35v168l258 30v-200h266v-205h-266v-395q0 -94 26 -128t91 -34q12 0 24 1.5t19.5 3t20 6t16.5 6t19.5 8.5t18.5 8l70 -193q-70 -38 -128 -54t-148 -16q-141 0 -214 86.5t-73 235.5v465h-150z" />
<glyph unicode="u" horiz-adv-x="1077" d="M98 956l293 33v-635q0 -78 32.5 -114.5t100.5 -36.5q95 0 164 69v445l-33 239l293 33v-735l33 -240l-250 -32l-14 104h-2q-115 -111 -283 -111q-132 0 -216.5 80.5t-84.5 235.5v426z" />
<glyph unicode="v" horiz-adv-x="968" d="M16 940l260 59l195 -682h2l223 652h252l-358 -959l-258 -28z" />
<glyph unicode="w" horiz-adv-x="1421" d="M20 948l234 53l135 -636h2l180 604h234l178 -604h2l160 604h244l-279 -957l-240 -26l-188 624h-2l-184 -600l-242 -24z" />
<glyph unicode="x" horiz-adv-x="954" d="M2 0l344 492l-299 401l219 121l211 -318h2l170 273h275l-320 -455l322 -436l-219 -123l-236 352h-2l-193 -307h-274z" />
<glyph unicode="y" horiz-adv-x="968" d="M-80 -219q137 21 258 90t170 166l-338 903l254 64l219 -660h2l205 625h252l-299 -842q-51 -146 -116.5 -247t-151.5 -164t-181.5 -97t-226.5 -53z" />
<glyph unicode="z" horiz-adv-x="897" d="M68 0v168l419 592v2h-385v207h717v-162l-407 -596v-2h426v-209h-770z" />
<glyph unicode="{" horiz-adv-x="598" d="M63 438v176q51 0 90.5 22.5t39.5 72.5v477q0 74 25 130.5t73 92.5t108 57.5t138 32.5l41 -178q-86 -17 -115 -52.5t-29 -119.5v-430q0 -68 -42 -118t-101 -73v-2q58 -23 100.5 -74t42.5 -120v-428q0 -85 29.5 -121t114.5 -51l-41 -181q-344 47 -344 316v477 q0 50 -39.5 72t-90.5 22z" />
<glyph unicode="|" horiz-adv-x="548" d="M158 -420v1890h235v-1890h-235z" />
<glyph unicode="}" horiz-adv-x="598" d="M20 -268q84 15 113 51.5t29 120.5v430q0 66 42 115.5t101 74.5v2q-57 23 -100 75t-43 120v428q0 84 -29 119.5t-113 52.5l39 180q79 -11 139.5 -33t108.5 -58.5t73.5 -93t25.5 -130.5v-477q0 -50 39 -72.5t90 -22.5v-176q-51 0 -90 -22t-39 -72v-477q0 -74 -25.5 -130.5 t-73.5 -92.5t-108.5 -57.5t-139.5 -32.5z" />
<glyph unicode="~" horiz-adv-x="960" d="M35 543q27 44 51.5 74.5t60.5 59t83.5 42.5t107.5 14q56 0 158.5 -45t148.5 -45q54 0 88.5 23t71.5 67l123 -104q-29 -45 -53.5 -74.5t-60.5 -59t-83 -43.5t-106 -14q-56 0 -160 46t-150 46q-37 0 -69 -15t-48.5 -31t-41.5 -46z" />
<glyph unicode="&#xa1;" d="M78 821q0 68 48 117t116 49q69 0 117.5 -49t48.5 -117q0 -69 -48.5 -117.5t-117.5 -48.5t-116.5 48.5t-47.5 117.5zM86 -264l55 823h205l55 -823h-315z" />
<glyph unicode="&#xa2;" horiz-adv-x="856" d="M72 481q0 205 96 329.5t250 164.5v158h207v-142q78 -8 180 -45l-78 -225q-91 41 -166 41q-101 0 -163 -68.5t-62 -195.5q0 -143 58 -214t157 -71q50 0 87 10t89 33l72 -211q-79 -39 -168 -57v-166h-205v160q-174 26 -264 157t-90 342z" />
<glyph unicode="&#xa3;" horiz-adv-x="937" d="M92 487v193h133q-39 133 -39 215q0 163 112.5 258.5t285.5 95.5q157 0 299 -65l-95 -217q-42 20 -58 27t-49 14.5t-71 7.5q-82 0 -123 -39t-41 -129q0 -64 33 -168h289v-193h-238q11 -32 11 -61q0 -110 -90 -203v-2h432v-221h-736v166q54 33 84 60.5t50 72.5t20 107 q0 23 -12 81h-197z" />
<glyph unicode="&#xa4;" horiz-adv-x="1038" d="M31 401v158h127q-2 18 -2 55q0 9 1 27.5t1 26.5h-127v157h153q57 207 218 317.5t374 110.5q108 0 201 -28l-59 -236q-65 21 -132 21q-103 0 -184 -47t-121 -138h385v-157h-432q-2 -16 -2 -52q0 -39 2 -57h432v-158h-387q77 -174 295 -174q64 0 127 19l51 -232 q-122 -34 -243 -34q-194 0 -336 106.5t-193 314.5h-149z" />
<glyph unicode="&#xa5;" horiz-adv-x="1026" d="M18 1165l240 113l256 -524h2l227 479h279l-346 -647h274v-193h-311v-393h-264v393h-312v193h267z" />
<glyph unicode="&#xa6;" horiz-adv-x="548" d="M158 307h235v-727h-235v727zM158 743v727h235v-727h-235z" />
<glyph unicode="&#xa7;" horiz-adv-x="800" d="M104 602q0 116 80 203q-78 61 -78 174q0 128 95 204.5t237 76.5q77 0 135.5 -13t126.5 -41l-69 -186q-111 47 -185 47q-114 0 -114 -70q0 -32 17 -47t52 -28l144 -58q168 -68 168 -225q0 -111 -80 -205q80 -62 80 -172q0 -131 -96 -210t-242 -79q-141 0 -264 54l69 186 q120 -49 187 -49q56 0 87 20t31 58q0 32 -15.5 49t-53.5 31l-142 55q-170 65 -170 225zM272 659q0 -41 22.5 -65t65.5 -41l158 -61q27 46 27 90q0 42 -22 66t-66 40l-156 62q-29 -42 -29 -91z" />
<glyph unicode="&#xa8;" horiz-adv-x="1015" d="M164 1225q0 61 45 106t106 45t105.5 -44.5t44.5 -106.5q0 -61 -44.5 -105.5t-105.5 -44.5q-62 0 -106.5 44.5t-44.5 105.5zM551 1225q0 62 44 106.5t105 44.5q62 0 107 -45t45 -106t-45 -105.5t-107 -44.5q-61 0 -105 44t-44 106z" />
<glyph unicode="&#xa9;" horiz-adv-x="1443" d="M74 616q0 184 79.5 329t228 227.5t341.5 82.5q296 0 471.5 -176.5t175.5 -462.5q0 -280 -178 -459.5t-469 -179.5q-197 0 -345 81t-226 225.5t-78 332.5zM229 616q0 -214 136.5 -351.5t357.5 -137.5q230 0 360.5 134t130.5 355q0 214 -135 351t-356 137 q-231 0 -362.5 -134t-131.5 -354zM371 616q0 180 102.5 282.5t269.5 102.5q111 0 218 -49l-68 -155q-73 39 -145 39q-76 0 -130.5 -53t-54.5 -150q0 -111 44.5 -162t135.5 -51q28 0 58 7.5t47.5 14.5t50.5 23l64 -150q-71 -35 -128 -49t-135 -14q-148 0 -238.5 96.5 t-90.5 267.5z" />
<glyph unicode="&#xaa;" horiz-adv-x="665" d="M84 326v172h512v-172h-512zM86 754q0 85 60.5 134.5t160.5 57.5l84 6v43q0 99 -102 99q-53 0 -121 -35l-64 127q107 69 228 69q119 0 181 -62.5t62 -168.5v-250l27 -158l-182 -26l-12 69h-2q-6 -8 -17.5 -20t-51 -32.5t-83.5 -20.5q-75 0 -121.5 45t-46.5 123zM264 778 q0 -28 17 -44.5t43 -16.5q16 0 33 6t25 12l9 6v111l-49 -6q-78 -11 -78 -68z" />
<glyph unicode="&#xab;" horiz-adv-x="897" d="M43 610l250 416l160 -86l-156 -330l156 -329l-160 -91zM432 610l250 416l162 -86l-156 -330l156 -329l-162 -91z" />
<glyph unicode="&#xac;" horiz-adv-x="960" d="M53 485v201h856v-405h-192v204h-664z" />
<glyph unicode="&#xad;" horiz-adv-x="716" d="M82 496v204h553v-204h-553z" />
<glyph unicode="&#xae;" horiz-adv-x="1443" d="M74 616q0 184 79.5 329t228 227.5t341.5 82.5q296 0 471.5 -176.5t175.5 -462.5q0 -280 -178 -459.5t-469 -179.5q-197 0 -345 81t-226 225.5t-78 332.5zM229 616q0 -214 136.5 -351.5t357.5 -137.5q230 0 360.5 134t130.5 355q0 214 -135 351t-356 137 q-231 0 -362.5 -134t-131.5 -354zM489 268v713q107 12 199 12q281 0 281 -205q0 -103 -95 -174l168 -292l-165 -70l-156 295q-14 -2 -39 -2h-10v-277h-183zM672 662h8q50 0 82.5 27t32.5 81q0 88 -101 88l-22 -2v-194z" />
<glyph unicode="&#xaf;" horiz-adv-x="1015" d="M176 1100v188h664v-188h-664z" />
<glyph unicode="&#xb0;" horiz-adv-x="757" d="M61 942q0 133 92 223t226 90t225.5 -90t91.5 -223t-91.5 -224t-225.5 -91t-226 91t-92 224zM258 942q0 -53 34 -88t87 -35q52 0 85.5 35t33.5 88q0 54 -33 86.5t-86 32.5q-54 0 -87.5 -32.5t-33.5 -86.5z" />
<glyph unicode="&#xb1;" horiz-adv-x="960" d="M53 45v201h852v-201h-852zM53 670v198h326v328h199v-328h327v-198h-327v-326h-199v326h-326z" />
<glyph unicode="&#xb2;" horiz-adv-x="696" d="M59 1155q112 94 254 94q111 0 181.5 -64.5t70.5 -172.5q0 -80 -29.5 -136.5t-78.5 -109.5l-133 -148v-2h270v-184h-533v135l228 267q31 37 47 68t16 71q0 39 -26.5 65.5t-67.5 26.5q-50 0 -113 -47z" />
<glyph unicode="&#xb3;" horiz-adv-x="669" d="M63 465l64 166q68 -35 133 -35q42 0 69 21t27 57q0 56 -44.5 75t-166.5 19v131q109 4 148 24.5t39 71.5q0 32 -21 53t-55 21q-44 0 -104 -37l-84 129q98 88 227 88q105 0 167 -53t62 -154q0 -132 -123 -186v-2q65 -13 108.5 -61.5t43.5 -126.5q0 -113 -77 -181.5 t-218 -68.5q-102 0 -195 49z" />
<glyph unicode="&#xb4;" horiz-adv-x="1015" d="M315 1194l392 272l114 -176l-415 -235z" />
<glyph unicode="&#xb6;" horiz-adv-x="1361" d="M63 854q0 174 119.5 276.5t366.5 102.5h203v-1518l-260 -32v757q-119 2 -215.5 50.5t-155 143.5t-58.5 220zM887 0v1233h416v-207h-164v-1026h-252z" />
<glyph unicode="&#xb7;" d="M96 598q0 68 48.5 117t117.5 49t117.5 -49t48.5 -117t-48.5 -117t-117.5 -49t-117.5 49t-48.5 117z" />
<glyph unicode="&#xb8;" horiz-adv-x="1015" d="M367 -109q61 35 141 35q72 0 113 -40t41 -109q0 -37 -13 -70t-34.5 -56t-47 -42.5t-51 -31t-47 -19.5t-34.5 -12l-13 -3l-39 103q5 2 12.5 4.5t27 12.5t34.5 20.5t27 27.5t12 35q0 51 -50 51q-9 0 -19 -2t-15 -4l-6 -2z" />
<glyph unicode="&#xb9;" horiz-adv-x="561" d="M41 1188l365 59v-815h-205v631l-135 -19z" />
<glyph unicode="&#xba;" horiz-adv-x="727" d="M72 922q0 147 77.5 239t215.5 92q145 0 217.5 -90.5t72.5 -240.5q0 -149 -77 -241.5t-213 -92.5q-145 0 -219 92t-74 242zM82 326v172h563v-172h-563zM258 920q0 -168 107 -168q104 0 104 170q0 168 -104 168q-107 0 -107 -170z" />
<glyph unicode="&#xbb;" horiz-adv-x="897" d="M53 281l156 329l-156 330l162 86l250 -416l-250 -420zM444 281l156 329l-156 330l162 86l250 -416l-250 -420z" />
<glyph unicode="&#xbc;" horiz-adv-x="1681" d="M41 1188l365 59v-815h-205v631l-135 -19zM332 57l727 1223l186 -106l-725 -1223zM995 229v131l301 441h189v-412h100v-160h-100v-229h-189v229h-301zM1163 389h133v199h-2z" />
<glyph unicode="&#xbd;" horiz-adv-x="1740" d="M41 1188l365 59v-815h-205v631l-135 -19zM332 57l727 1223l186 -106l-725 -1223zM1108 723q112 94 254 94q111 0 182.5 -64.5t71.5 -172.5q0 -55 -19.5 -106t-39 -77t-52.5 -63l-131 -148v-2h268v-184h-532v135l227 266q32 37 48 68.5t16 71.5q0 39 -26.5 65.5 t-67.5 26.5q-50 0 -113 -47z" />
<glyph unicode="&#xbe;" horiz-adv-x="1761" d="M63 465l64 166q68 -35 133 -35q42 0 69 21t27 57q0 56 -44.5 75t-166.5 19v131q109 4 148 24.5t39 71.5q0 32 -21 53t-55 21q-44 0 -104 -37l-84 129q98 88 227 88q105 0 167 -53t62 -154q0 -132 -123 -186v-2q65 -13 108.5 -61.5t43.5 -126.5q0 -113 -77 -181.5 t-218 -68.5q-102 0 -195 49zM414 57l727 1223l186 -106l-727 -1223zM1077 229v131l299 441h191v-412h100v-160h-100v-229h-191v229h-299zM1245 389h131v199h-2z" />
<glyph unicode="&#xbf;" horiz-adv-x="724" d="M33 6q0 64 19 115.5t49 84.5t66.5 59t73 46t66.5 40t49 46t19 58q0 20 -7.5 40t-15.5 30l-8 10l193 51q7 -8 18 -22.5t29 -58t18 -85.5q0 -59 -32.5 -104t-79 -72t-92.5 -51t-78.5 -56.5t-32.5 -73.5q0 -58 37.5 -91t101.5 -33q82 0 172 63l96 -168q-58 -52 -144 -87.5 t-179 -35.5q-150 0 -244 77.5t-94 217.5zM258 821q0 69 49.5 117.5t118.5 48.5q68 0 116 -48.5t48 -117.5t-48 -117.5t-116 -48.5q-69 0 -118.5 48.5t-49.5 117.5z" />
<glyph unicode="&#xc0;" horiz-adv-x="1122" d="M25 0l409 1233h281l393 -1200l-264 -68l-105 377h-344l-94 -342h-276zM250 1554l115 175l391 -273l-90 -139zM444 520h250l-123 451h-2z" />
<glyph unicode="&#xc1;" horiz-adv-x="1122" d="M25 0l409 1233h281l393 -1200l-264 -68l-105 377h-344l-94 -342h-276zM369 1446l391 272l114 -176l-415 -235zM444 520h250l-123 451h-2z" />
<glyph unicode="&#xc2;" horiz-adv-x="1122" d="M25 0l409 1233h281l393 -1200l-264 -68l-105 377h-344l-94 -342h-276zM221 1425l340 275l340 -275l-100 -127l-240 164l-239 -164zM444 520h250l-123 451h-2z" />
<glyph unicode="&#xc3;" horiz-adv-x="1122" d="M25 0l409 1233h281l393 -1200l-264 -68l-105 377h-344l-94 -342h-276zM207 1415q2 8 7.5 21t25 45.5t44.5 58t68.5 46t93.5 20.5q47 0 130 -41t110 -41q22 0 41 7t31 17t21 20.5t13 17.5l3 7l120 -67q-2 -8 -7 -21t-25 -45.5t-44.5 -58t-68 -46t-94.5 -20.5 q-46 0 -128.5 40t-111.5 40q-22 0 -41 -7t-30.5 -17.5t-19.5 -20.5t-11 -17l-4 -7zM444 520h250l-123 451h-2z" />
<glyph unicode="&#xc4;" horiz-adv-x="1122" d="M25 0l409 1233h281l393 -1200l-264 -68l-105 377h-344l-94 -342h-276zM217 1477q0 61 45 106t107 45q61 0 105 -44.5t44 -106.5t-44 -106t-105 -44q-62 0 -107 44.5t-45 105.5zM444 520h250l-123 451h-2zM604 1477q0 62 44.5 106.5t105.5 44.5q62 0 106.5 -45t44.5 -106 t-44.5 -105.5t-106.5 -44.5t-106 44.5t-44 105.5z" />
<glyph unicode="&#xc5;" horiz-adv-x="1122" d="M25 0l409 1233h281l393 -1200l-264 -68l-105 377h-344l-94 -342h-276zM360 1509q0 84 57.5 141.5t143.5 57.5t143.5 -57.5t57.5 -141.5t-57.5 -141t-143.5 -57t-143.5 57t-57.5 141zM444 520h250l-123 451h-2zM487 1509q0 -33 20.5 -54t53.5 -21t53.5 21t20.5 54 q0 31 -20.5 52.5t-53.5 21.5t-53.5 -21.5t-20.5 -52.5z" />
<glyph unicode="&#xc6;" horiz-adv-x="1572" d="M-27 0l768 1233h732v-232h-386v-266h343v-221h-343v-283h416v-231h-682v342h-360l-205 -342h-283zM565 520h256v432z" />
<glyph unicode="&#xc7;" horiz-adv-x="1091" d="M76 596q0 157 47 282.5t130 208t196.5 126.5t248.5 44q108 0 186 -18.5t169 -58.5l-101 -232q-68 34 -120.5 50t-129.5 16q-67 0 -127.5 -24.5t-108.5 -71t-76 -122t-28 -169.5q0 -210 84 -307t259 -97q69 0 128.5 18.5t131.5 53.5l92 -217q-109 -57 -203.5 -80 t-220.5 -23q-120 0 -221.5 40.5t-176.5 117t-117 195.5t-42 268zM459 -109q61 35 141 35q72 0 113 -40t41 -109q0 -37 -13 -70t-34.5 -56t-47 -42.5t-51 -31t-47 -19.5t-34.5 -12l-13 -3l-39 103q5 2 12.5 4.5t27 12.5t34.5 20.5t27 27.5t12 35q0 51 -49 51q-9 0 -19 -2 t-16 -4l-6 -2z" />
<glyph unicode="&#xc8;" horiz-adv-x="899" d="M141 0v1233h658v-232h-385v-266h342v-221h-342v-283h415v-231h-688zM156 1554l114 175l392 -273l-91 -139z" />
<glyph unicode="&#xc9;" horiz-adv-x="899" d="M141 0v1233h658v-232h-385v-266h342v-221h-342v-283h415v-231h-688zM274 1446l392 272l114 -176l-415 -235z" />
<glyph unicode="&#xca;" horiz-adv-x="899" d="M127 1425l340 275l340 -275l-100 -127l-240 164l-240 -164zM141 0v1233h658v-232h-385v-266h342v-221h-342v-283h415v-231h-688z" />
<glyph unicode="&#xcb;" horiz-adv-x="899" d="M123 1477q0 61 44.5 106t106.5 45q61 0 105.5 -44.5t44.5 -106.5q0 -61 -44 -105.5t-106 -44.5t-106.5 44.5t-44.5 105.5zM141 0v1233h658v-232h-385v-266h342v-221h-342v-283h415v-231h-688zM510 1477q0 62 44 106.5t105 44.5q62 0 107 -45t45 -106t-45 -105.5 t-107 -44.5q-61 0 -105 44t-44 106z" />
<glyph unicode="&#xcc;" horiz-adv-x="559" d="M-31 1554l115 175l391 -273l-90 -139zM141 0v1233h277v-1233h-277z" />
<glyph unicode="&#xcd;" horiz-adv-x="559" d="M88 1446l391 272l115 -176l-416 -235zM141 0v1233h277v-1233h-277z" />
<glyph unicode="&#xce;" horiz-adv-x="559" d="M-59 1425l340 275l340 -275l-101 -127l-239 164l-240 -164zM141 0v1233h277v-1233h-277z" />
<glyph unicode="&#xcf;" horiz-adv-x="559" d="M-63 1477q0 61 44.5 106t106.5 45q61 0 105.5 -44.5t44.5 -106.5q0 -61 -44 -105.5t-106 -44.5t-106.5 44.5t-44.5 105.5zM141 0v1233h277v-1233h-277zM324 1477q0 62 44 106.5t105 44.5q62 0 107 -45t45 -106t-45 -105.5t-107 -44.5q-61 0 -105 44t-44 106z" />
<glyph unicode="&#xd0;" horiz-adv-x="1306" d="M51 641v107h154v475q182 22 383 22q145 0 262 -34t202.5 -101t132 -173t46.5 -245q0 -329 -198 -510.5t-537 -181.5h-291v641h-154zM481 246h72q186 0 290.5 107t104.5 319q0 171 -99 258.5t-265 87.5l-103 -4v-266h183v-107h-183v-395z" />
<glyph unicode="&#xd1;" horiz-adv-x="1232" d="M141 0v1233h221l490 -750h2l-10 750h248v-1217l-203 -39l-506 779h-2l8 -756h-248zM262 1415q2 8 7.5 21t25.5 45.5t44.5 58t68.5 46t94 20.5q47 0 129.5 -41t109.5 -41q22 0 41 7t31 17t21 20.5t12 17.5l4 7l121 -67q-2 -8 -7 -21t-25 -45.5t-45 -58t-68.5 -46 t-94.5 -20.5q-46 0 -128 40t-111 40q-35 0 -61.5 -17.5t-36.5 -34.5l-9 -17z" />
<glyph unicode="&#xd2;" horiz-adv-x="1325" d="M76 618q0 99 18 188t62 172.5t109.5 144.5t168 97.5t230.5 36.5q129 0 231 -36.5t167 -97t108 -144t61 -172.5t18 -189q0 -97 -18.5 -186.5t-62.5 -174t-109.5 -146t-167 -99t-227.5 -37.5q-106 0 -195 25.5t-152.5 72t-110.5 106.5t-75 133.5t-41.5 149t-13.5 156.5z M352 1554l115 175l391 -273l-90 -139zM365 618q0 -196 75 -303.5t224 -107.5q148 0 223.5 108t75.5 303q0 196 -73.5 301t-225.5 105q-150 0 -224.5 -106t-74.5 -300z" />
<glyph unicode="&#xd3;" horiz-adv-x="1325" d="M76 618q0 99 18 188t62 172.5t109.5 144.5t168 97.5t230.5 36.5q129 0 231 -36.5t167 -97t108 -144t61 -172.5t18 -189q0 -97 -18.5 -186.5t-62.5 -174t-109.5 -146t-167 -99t-227.5 -37.5q-106 0 -195 25.5t-152.5 72t-110.5 106.5t-75 133.5t-41.5 149t-13.5 156.5z M365 618q0 -196 75 -303.5t224 -107.5q148 0 223.5 108t75.5 303q0 196 -73.5 301t-225.5 105q-150 0 -224.5 -106t-74.5 -300zM471 1446l391 272l115 -176l-416 -235z" />
<glyph unicode="&#xd4;" horiz-adv-x="1325" d="M76 618q0 99 18 188t62 172.5t109.5 144.5t168 97.5t230.5 36.5q129 0 231 -36.5t167 -97t108 -144t61 -172.5t18 -189q0 -97 -18.5 -186.5t-62.5 -174t-109.5 -146t-167 -99t-227.5 -37.5q-106 0 -195 25.5t-152.5 72t-110.5 106.5t-75 133.5t-41.5 149t-13.5 156.5z M324 1425l340 275l340 -275l-101 -127l-239 164l-240 -164zM365 618q0 -196 75 -303.5t224 -107.5q148 0 223.5 108t75.5 303q0 196 -73.5 301t-225.5 105q-150 0 -224.5 -106t-74.5 -300z" />
<glyph unicode="&#xd5;" horiz-adv-x="1325" d="M76 618q0 99 18 188t62 172.5t109.5 144.5t168 97.5t230.5 36.5q129 0 231 -36.5t167 -97t108 -144t61 -172.5t18 -189q0 -97 -18.5 -186.5t-62.5 -174t-109.5 -146t-167 -99t-227.5 -37.5q-106 0 -195 25.5t-152.5 72t-110.5 106.5t-75 133.5t-41.5 149t-13.5 156.5z M309 1415q2 8 7.5 21t25.5 45.5t44.5 58t68.5 46t94 20.5q47 0 129.5 -41t109.5 -41q22 0 41 7t31 17t21 20.5t13 17.5l3 7l121 -67q-2 -8 -7 -21t-25 -45.5t-45 -58t-68.5 -46t-94.5 -20.5q-46 0 -128 40t-111 40q-35 0 -61.5 -17.5t-35.5 -34.5l-10 -17zM365 618 q0 -196 75 -303.5t224 -107.5q148 0 223.5 108t75.5 303q0 196 -73.5 301t-225.5 105q-150 0 -224.5 -106t-74.5 -300z" />
<glyph unicode="&#xd6;" horiz-adv-x="1325" d="M76 618q0 99 18 188t62 172.5t109.5 144.5t168 97.5t230.5 36.5q129 0 231 -36.5t167 -97t108 -144t61 -172.5t18 -189q0 -97 -18.5 -186.5t-62.5 -174t-109.5 -146t-167 -99t-227.5 -37.5q-106 0 -195 25.5t-152.5 72t-110.5 106.5t-75 133.5t-41.5 149t-13.5 156.5z M319 1477q0 61 45 106t107 45q61 0 105.5 -44.5t44.5 -106.5q0 -61 -44.5 -105.5t-105.5 -44.5q-62 0 -107 44.5t-45 105.5zM365 618q0 -196 75 -303.5t224 -107.5q148 0 223.5 108t75.5 303q0 196 -73.5 301t-225.5 105q-150 0 -224.5 -106t-74.5 -300zM707 1477 q0 62 44 106.5t105 44.5q62 0 107 -45t45 -106t-45 -105.5t-107 -44.5q-61 0 -105 44t-44 106z" />
<glyph unicode="&#xd7;" horiz-adv-x="960" d="M109 352l231 234l-231 231l141 141l231 -231l232 231l141 -141l-231 -231l231 -234l-141 -141l-232 231l-231 -231z" />
<glyph unicode="&#xd8;" horiz-adv-x="1325" d="M76 618q0 99 18 188t62 172.5t109.5 144.5t168 97.5t230.5 36.5q149 0 258 -47l86 154l88 -51l-84 -150q123 -84 180 -228.5t57 -316.5q0 -97 -18.5 -186.5t-62.5 -174t-109.5 -146t-167 -99t-227.5 -37.5q-162 0 -283 62l-96 -168l-88 51l96 170q-111 88 -164 227 t-53 301zM365 618q0 -186 69 -286l363 665q-55 27 -133 27q-150 0 -224.5 -106t-74.5 -300zM506 252q62 -45 158 -45q148 0 223.5 108t75.5 303q0 212 -86 314z" />
<glyph unicode="&#xd9;" horiz-adv-x="1261" d="M137 514v719h279v-711q0 -153 53 -218.5t168 -65.5q107 0 163 70t56 194v731h268v-725q0 -251 -129.5 -394t-357.5 -143q-500 0 -500 543zM319 1554l115 175l391 -273l-90 -139z" />
<glyph unicode="&#xda;" horiz-adv-x="1261" d="M137 514v719h279v-711q0 -153 53 -218.5t168 -65.5q107 0 163 70t56 194v731h268v-725q0 -251 -129.5 -394t-357.5 -143q-500 0 -500 543zM438 1446l391 272l115 -176l-416 -235z" />
<glyph unicode="&#xdb;" horiz-adv-x="1261" d="M137 514v719h279v-711q0 -153 53 -218.5t168 -65.5q107 0 163 70t56 194v731h268v-725q0 -251 -129.5 -394t-357.5 -143q-500 0 -500 543zM291 1425l340 275l340 -275l-101 -127l-239 164l-240 -164z" />
<glyph unicode="&#xdc;" horiz-adv-x="1261" d="M137 514v719h279v-711q0 -153 53 -218.5t168 -65.5q107 0 163 70t56 194v731h268v-725q0 -251 -129.5 -394t-357.5 -143q-500 0 -500 543zM287 1477q0 61 44.5 106t106.5 45q61 0 105.5 -44.5t44.5 -106.5q0 -61 -44 -105.5t-106 -44.5t-106.5 44.5t-44.5 105.5z M674 1477q0 62 44 106.5t105 44.5q62 0 107 -45t45 -106t-45 -105.5t-107 -44.5q-61 0 -105 44t-44 106z" />
<glyph unicode="&#xdd;" horiz-adv-x="1026" d="M4 1171l250 109l246 -530h2l229 483h291l-389 -727v-506h-275v502zM322 1446l391 272l114 -176l-415 -235z" />
<glyph unicode="&#xde;" horiz-adv-x="985" d="M141 0v1233h271v-191q36 5 73 5q218 0 330.5 -86.5t112.5 -258.5q0 -107 -39.5 -193t-107.5 -140.5t-156.5 -83.5t-188.5 -29h-24v-256h-271zM412 457h18q102 0 169 57t67 160q0 91 -52.5 134.5t-140.5 43.5q-16 0 -31 -1.5t-22 -2.5l-8 -2v-389z" />
<glyph unicode="&#xdf;" horiz-adv-x="1277" d="M16 764v172l150 35v45q0 172 122 280.5t308 108.5q180 0 276.5 -99t96.5 -262q0 -50 -14.5 -91.5t-35 -68.5t-41 -51.5t-35 -54t-14.5 -63.5q0 -63 82 -97l142 -61q188 -81 188 -250q0 -142 -102.5 -236t-270.5 -94q-177 0 -311 58l68 211q48 -20 76 -30.5t71 -20 t82 -9.5q129 0 129 80q0 33 -18.5 54.5t-59.5 39.5l-147 64q-84 36 -131 95.5t-47 158.5q0 48 13.5 87.5t33 66.5t38.5 53t32.5 61t13.5 78q0 68 -34 110t-99 42q-73 0 -113.5 -48.5t-40.5 -142.5v-985h-258v764h-150z" />
<glyph unicode="&#xe0;" horiz-adv-x="929" d="M72 231q0 132 89 202.5t247 86.5l135 15v65q0 166 -164 166q-85 0 -182 -53l-95 176q80 52 156.5 78t179.5 26q175 0 268 -88.5t93 -245.5v-405l32 -240l-249 -32l-13 106h-2q-37 -33 -65 -53.5t-77 -40t-101 -19.5q-115 0 -183.5 68t-68.5 188zM154 1303l114 174 l391 -273l-90 -139zM324 266q0 -46 25.5 -75t70.5 -29q68 0 123 47v178l-88 -10q-131 -16 -131 -111z" />
<glyph unicode="&#xe1;" horiz-adv-x="929" d="M72 231q0 132 89 202.5t247 86.5l135 15v65q0 166 -164 166q-85 0 -182 -53l-95 176q80 52 156.5 78t179.5 26q175 0 268 -88.5t93 -245.5v-405l32 -240l-249 -32l-13 106h-2q-37 -33 -65 -53.5t-77 -40t-101 -19.5q-115 0 -183.5 68t-68.5 188zM272 1194l392 272 l114 -176l-416 -235zM324 266q0 -46 25.5 -75t70.5 -29q68 0 123 47v178l-88 -10q-131 -16 -131 -111z" />
<glyph unicode="&#xe2;" horiz-adv-x="929" d="M72 231q0 132 89 202.5t247 86.5l135 15v65q0 166 -164 166q-85 0 -182 -53l-95 176q80 52 156.5 78t179.5 26q175 0 268 -88.5t93 -245.5v-405l32 -240l-249 -32l-13 106h-2q-37 -33 -65 -53.5t-77 -40t-101 -19.5q-115 0 -183.5 68t-68.5 188zM125 1174l340 274 l340 -274l-100 -127l-240 163l-240 -163zM324 266q0 -46 25.5 -75t70.5 -29q68 0 123 47v178l-88 -10q-131 -16 -131 -111z" />
<glyph unicode="&#xe3;" horiz-adv-x="929" d="M72 231q0 132 89 202.5t247 86.5l135 15v65q0 166 -164 166q-85 0 -182 -53l-95 176q80 52 156.5 78t179.5 26q175 0 268 -88.5t93 -245.5v-405l32 -240l-249 -32l-13 106h-2q-37 -33 -65 -53.5t-77 -40t-101 -19.5q-115 0 -183.5 68t-68.5 188zM111 1163q2 8 7.5 21 t25 45.5t44.5 58t68.5 46t93.5 20.5q47 0 130 -41t110 -41q22 0 41 7t31 17t20.5 20.5t11.5 17.5l4 7l121 -67q-2 -8 -7 -21t-25 -45.5t-44.5 -58t-68 -46t-94.5 -20.5q-46 0 -128.5 40t-111.5 40q-35 0 -61.5 -17.5t-36.5 -34.5l-9 -17zM324 266q0 -46 25.5 -75t70.5 -29 q68 0 123 47v178l-88 -10q-131 -16 -131 -111z" />
<glyph unicode="&#xe4;" horiz-adv-x="929" d="M72 231q0 132 89 202.5t247 86.5l135 15v65q0 166 -164 166q-85 0 -182 -53l-95 176q80 52 156.5 78t179.5 26q175 0 268 -88.5t93 -245.5v-405l32 -240l-249 -32l-13 106h-2q-37 -33 -65 -53.5t-77 -40t-101 -19.5q-115 0 -183.5 68t-68.5 188zM121 1225q0 61 44.5 106 t106.5 45q61 0 105.5 -44.5t44.5 -106.5q0 -61 -44 -105.5t-106 -44.5t-106.5 44.5t-44.5 105.5zM324 266q0 -46 25.5 -75t70.5 -29q68 0 123 47v178l-88 -10q-131 -16 -131 -111zM508 1225q0 62 44 106.5t105 44.5q62 0 107 -45t45 -106t-45 -105.5t-107 -44.5 q-61 0 -105 44t-44 106z" />
<glyph unicode="&#xe5;" horiz-adv-x="929" d="M72 231q0 132 89 202.5t247 86.5l135 15v65q0 166 -164 166q-85 0 -182 -53l-95 176q80 52 156.5 78t179.5 26q175 0 268 -88.5t93 -245.5v-405l32 -240l-249 -32l-13 106h-2q-37 -33 -65 -53.5t-77 -40t-101 -19.5q-115 0 -183.5 68t-68.5 188zM264 1257 q0 84 57.5 141.5t143.5 57.5t143.5 -57.5t57.5 -141.5t-57.5 -141t-143.5 -57t-143.5 57t-57.5 141zM324 266q0 -46 25.5 -75t70.5 -29q68 0 123 47v178l-88 -10q-131 -16 -131 -111zM391 1257q0 -33 20.5 -54t53.5 -21t53.5 21t20.5 54q0 31 -20.5 52.5t-53.5 21.5 t-53.5 -21.5t-20.5 -52.5z" />
<glyph unicode="&#xe6;" horiz-adv-x="1382" d="M72 233q0 253 338 287l135 15v65q0 166 -168 166q-79 0 -180 -55l-93 178q75 51 153 77.5t181 26.5q88 0 152 -38.5t100 -98.5h2q37 57 108.5 96t162.5 39q93 0 162 -32t108.5 -90t58.5 -130.5t19 -160.5v-121h-539q12 -254 250 -254q43 0 83.5 8.5t63.5 17t68 27.5 l80 -199q-85 -43 -160 -62.5t-170 -19.5q-231 0 -340 152h-2q-105 -152 -313 -152q-119 0 -189.5 69.5t-70.5 188.5zM322 268q0 -46 26.5 -76t71.5 -30q91 0 166 65q-30 87 -35 162l-94 -10q-135 -13 -135 -111zM776 614h307q0 72 -34 120t-107 48q-68 0 -111 -44.5 t-55 -123.5z" />
<glyph unicode="&#xe7;" horiz-adv-x="860" d="M72 481q0 129 41 229.5t111 161t155.5 91t181.5 30.5q131 0 246 -45l-78 -227q-91 41 -168 41q-100 0 -162.5 -69.5t-62.5 -196.5q0 -142 57.5 -212.5t155.5 -70.5q35 0 66 6t50.5 12.5t57.5 22.5l78 -213q-145 -66 -285 -66q-215 0 -329.5 135t-114.5 371zM315 -109 q62 35 142 35q72 0 112.5 -40t40.5 -109q0 -37 -13 -70t-34.5 -56t-46.5 -42.5t-50.5 -31t-47 -19.5t-34.5 -12l-13 -3l-39 103q5 2 12.5 4.5t26.5 12.5t34 20.5t27 27.5t12 35q0 51 -49 51q-9 0 -19 -2t-16 -4l-6 -2z" />
<glyph unicode="&#xe8;" horiz-adv-x="931" d="M72 500q0 220 119.5 355.5t312.5 135.5q79 0 140.5 -21.5t102 -59t67 -91.5t37.5 -115t11 -133v-114h-536q12 -254 245 -254q44 0 83.5 8t62.5 16.5t71 28.5l80 -199q-86 -43 -160 -62.5t-169 -19.5q-237 0 -352 136t-115 389zM156 1303l114 174l392 -273l-91 -139z M330 614h305q0 78 -34.5 123t-104.5 45q-72 0 -114 -47.5t-52 -120.5z" />
<glyph unicode="&#xe9;" horiz-adv-x="931" d="M72 500q0 220 119.5 355.5t312.5 135.5q79 0 140.5 -21.5t102 -59t67 -91.5t37.5 -115t11 -133v-114h-536q12 -254 245 -254q44 0 83.5 8t62.5 16.5t71 28.5l80 -199q-86 -43 -160 -62.5t-169 -19.5q-237 0 -352 136t-115 389zM274 1194l392 272l114 -176l-415 -235z M330 614h305q0 78 -34.5 123t-104.5 45q-72 0 -114 -47.5t-52 -120.5z" />
<glyph unicode="&#xea;" horiz-adv-x="931" d="M72 500q0 220 119.5 355.5t312.5 135.5q79 0 140.5 -21.5t102 -59t67 -91.5t37.5 -115t11 -133v-114h-536q12 -254 245 -254q44 0 83.5 8t62.5 16.5t71 28.5l80 -199q-86 -43 -160 -62.5t-169 -19.5q-237 0 -352 136t-115 389zM127 1174l340 274l340 -274l-100 -127 l-240 163l-240 -163zM330 614h305q0 78 -34.5 123t-104.5 45q-72 0 -114 -47.5t-52 -120.5z" />
<glyph unicode="&#xeb;" horiz-adv-x="931" d="M72 500q0 220 119.5 355.5t312.5 135.5q79 0 140.5 -21.5t102 -59t67 -91.5t37.5 -115t11 -133v-114h-536q12 -254 245 -254q44 0 83.5 8t62.5 16.5t71 28.5l80 -199q-86 -43 -160 -62.5t-169 -19.5q-237 0 -352 136t-115 389zM123 1225q0 61 44.5 106t106.5 45 q61 0 105.5 -44.5t44.5 -106.5q0 -61 -44 -105.5t-106 -44.5t-106.5 44.5t-44.5 105.5zM330 614h305q0 78 -34.5 123t-104.5 45q-72 0 -114 -47.5t-52 -120.5zM510 1225q0 62 44 106.5t105 44.5q62 0 107 -45t45 -106t-45 -105.5t-107 -44.5q-61 0 -105 44t-44 106z" />
<glyph unicode="&#xec;" d="M-49 1303l115 174l391 -273l-90 -139zM102 956l293 33v-989h-260v717z" />
<glyph unicode="&#xed;" d="M70 1194l391 272l114 -176l-415 -235zM102 956l293 33v-989h-260v717z" />
<glyph unicode="&#xee;" d="M-78 1174l340 274l340 -274l-100 -127l-240 163l-239 -163zM102 956l293 33v-989h-260v717z" />
<glyph unicode="&#xef;" d="M-82 1225q0 61 45 106t107 45q61 0 105 -44.5t44 -106.5t-44 -106t-105 -44q-62 0 -107 44.5t-45 105.5zM102 956l293 33v-989h-260v717zM305 1225q0 62 44.5 106.5t105.5 44.5t106 -45t45 -106t-44.5 -105.5t-106.5 -44.5q-61 0 -105.5 44.5t-44.5 105.5z" />
<glyph unicode="&#xf0;" horiz-adv-x="1036" d="M72 481q0 249 116 375.5t308 126.5q36 0 68 -6.5t46 -12.5l15 -6l2 3q-34 90 -121 157l-125 -98l-66 82l91 74q-102 45 -248 59l18 170q241 -12 399 -92l142 114l65 -84l-112 -90q136 -108 200 -285t64 -442q0 -258 -112.5 -404.5t-332.5 -146.5q-193 0 -305 130 t-112 376zM328 514q0 -305 184 -305q166 0 166 278q0 71 -5 140t-9 102l-5 33q-41 26 -127 26q-93 0 -148.5 -71t-55.5 -203z" />
<glyph unicode="&#xf1;" horiz-adv-x="1073" d="M98 956l250 33l12 -106h2q48 48 120.5 79t162.5 31q134 0 218.5 -79t84.5 -236v-678h-260v614q0 78 -33 115t-102 37q-92 0 -162 -70v-696h-260v717zM182 1163q2 8 7.5 21t25.5 45.5t44.5 58t68.5 46t94 20.5q47 0 130 -41t110 -41q22 0 41 7t31 17t20.5 20.5t11.5 17.5 l4 7l121 -67q-2 -8 -7 -21t-25 -45.5t-45 -58t-68.5 -46t-94.5 -20.5q-46 0 -128 40t-111 40q-35 0 -61.5 -17.5t-36.5 -34.5l-9 -17z" />
<glyph unicode="&#xf2;" horiz-adv-x="1015" d="M72 487q0 225 114 364.5t322 139.5q112 0 197 -37t136.5 -105.5t77 -159t25.5 -202.5q0 -226 -114.5 -368t-321.5 -142q-112 0 -197 38t-136.5 107.5t-77 161t-25.5 203.5zM197 1303l114 174l391 -273l-90 -139zM330 489q0 -284 178 -284t178 280q0 279 -178 279 q-88 0 -133 -65t-45 -210z" />
<glyph unicode="&#xf3;" horiz-adv-x="1015" d="M72 487q0 225 114 364.5t322 139.5q112 0 197 -37t136.5 -105.5t77 -159t25.5 -202.5q0 -226 -114.5 -368t-321.5 -142q-112 0 -197 38t-136.5 107.5t-77 161t-25.5 203.5zM315 1194l392 272l114 -176l-415 -235zM330 489q0 -284 178 -284t178 280q0 279 -178 279 q-88 0 -133 -65t-45 -210z" />
<glyph unicode="&#xf4;" horiz-adv-x="1015" d="M72 487q0 225 114 364.5t322 139.5q112 0 197 -37t136.5 -105.5t77 -159t25.5 -202.5q0 -226 -114.5 -368t-321.5 -142q-112 0 -197 38t-136.5 107.5t-77 161t-25.5 203.5zM168 1174l340 274l340 -274l-100 -127l-240 163l-240 -163zM330 489q0 -284 178 -284t178 280 q0 279 -178 279q-88 0 -133 -65t-45 -210z" />
<glyph unicode="&#xf5;" horiz-adv-x="1015" d="M72 487q0 225 114 364.5t322 139.5q112 0 197 -37t136.5 -105.5t77 -159t25.5 -202.5q0 -226 -114.5 -368t-321.5 -142q-112 0 -197 38t-136.5 107.5t-77 161t-25.5 203.5zM154 1163q2 8 7.5 21t25 45.5t44.5 58t68.5 46t93.5 20.5q47 0 130 -41t110 -41q22 0 41 7t31 17 t20.5 20.5t12.5 17.5l3 7l121 -67q-2 -8 -7 -21t-25 -45.5t-44.5 -58t-68 -46t-94.5 -20.5q-46 0 -128.5 40t-111.5 40q-35 0 -61.5 -17.5t-35.5 -34.5l-10 -17zM330 489q0 -284 178 -284t178 280q0 279 -178 279q-88 0 -133 -65t-45 -210z" />
<glyph unicode="&#xf6;" horiz-adv-x="1015" d="M72 487q0 225 114 364.5t322 139.5q112 0 197 -37t136.5 -105.5t77 -159t25.5 -202.5q0 -226 -114.5 -368t-321.5 -142q-112 0 -197 38t-136.5 107.5t-77 161t-25.5 203.5zM164 1225q0 61 45 106t106 45t105.5 -44.5t44.5 -106.5q0 -61 -44.5 -105.5t-105.5 -44.5 q-62 0 -106.5 44.5t-44.5 105.5zM330 489q0 -284 178 -284t178 280q0 279 -178 279q-88 0 -133 -65t-45 -210zM551 1225q0 62 44 106.5t105 44.5q62 0 107 -45t45 -106t-45 -105.5t-107 -44.5q-61 0 -105 44t-44 106z" />
<glyph unicode="&#xf7;" horiz-adv-x="960" d="M53 485v201h856v-201h-856zM332 248q0 62 43 104.5t104 42.5q62 0 106 -43t44 -104q0 -62 -44.5 -107t-105.5 -45t-104 45t-43 107zM332 922q0 62 43 106.5t104 44.5t105.5 -44.5t44.5 -106.5q0 -61 -44 -104.5t-106 -43.5q-61 0 -104 43t-43 105z" />
<glyph unicode="&#xf8;" horiz-adv-x="1015" d="M72 487q0 147 48.5 260t148.5 179.5t239 66.5q107 0 192 -37l86 156l91 -51l-89 -158q156 -126 156 -416q0 -226 -114.5 -368t-321.5 -142q-124 0 -209 43l-92 -163l-90 53l96 170q-141 129 -141 407zM330 489q0 -94 26 -161l226 422q-31 16 -74 16q-88 0 -133 -66 t-45 -211zM420 229q38 -24 88 -24q178 0 178 280q0 120 -33 185z" />
<glyph unicode="&#xf9;" horiz-adv-x="1077" d="M98 956l293 33v-635q0 -78 32.5 -114.5t100.5 -36.5q95 0 164 69v445l-33 239l293 33v-735l33 -240l-250 -32l-14 104h-2q-115 -111 -283 -111q-132 0 -216.5 80.5t-84.5 235.5v426zM227 1303l115 174l391 -273l-90 -139z" />
<glyph unicode="&#xfa;" horiz-adv-x="1077" d="M98 956l293 33v-635q0 -78 32.5 -114.5t100.5 -36.5q95 0 164 69v445l-33 239l293 33v-735l33 -240l-250 -32l-14 104h-2q-115 -111 -283 -111q-132 0 -216.5 80.5t-84.5 235.5v426zM346 1194l391 272l115 -176l-416 -235z" />
<glyph unicode="&#xfb;" horiz-adv-x="1077" d="M98 956l293 33v-635q0 -78 32.5 -114.5t100.5 -36.5q95 0 164 69v445l-33 239l293 33v-735l33 -240l-250 -32l-14 104h-2q-115 -111 -283 -111q-132 0 -216.5 80.5t-84.5 235.5v426zM199 1174l340 274l340 -274l-101 -127l-239 163l-240 -163z" />
<glyph unicode="&#xfc;" horiz-adv-x="1077" d="M98 956l293 33v-635q0 -78 32.5 -114.5t100.5 -36.5q95 0 164 69v445l-33 239l293 33v-735l33 -240l-250 -32l-14 104h-2q-115 -111 -283 -111q-132 0 -216.5 80.5t-84.5 235.5v426zM195 1225q0 61 44.5 106t106.5 45q61 0 105.5 -44.5t44.5 -106.5q0 -61 -44 -105.5 t-106 -44.5t-106.5 44.5t-44.5 105.5zM582 1225q0 62 44 106.5t105 44.5q62 0 107 -45t45 -106t-45 -105.5t-107 -44.5q-61 0 -105 44t-44 106z" />
<glyph unicode="&#xfd;" horiz-adv-x="968" d="M-80 -219q137 21 258 90t170 166l-338 903l254 64l219 -660h2l205 625h252l-299 -842q-51 -146 -116.5 -247t-151.5 -164t-181.5 -97t-226.5 -53zM291 1194l391 272l115 -176l-416 -235z" />
<glyph unicode="&#xfe;" horiz-adv-x="1032" d="M98 1368l293 33v-488h2q3 3 9.5 8.5t27.5 19t44.5 23.5t59 18.5t72.5 8.5q178 0 266.5 -119t88.5 -333q0 -254 -129 -400.5t-357 -146.5q-20 0 -41 2.5t-32 5.5l-11 2v-405l-260 -29v1560zM391 227q37 -16 92 -16q106 0 162.5 73t56.5 201q0 143 -38.5 211t-139.5 68 q-36 0 -69 -12t-49 -24l-15 -11v-490z" />
<glyph unicode="&#xff;" horiz-adv-x="968" d="M-80 -219q137 21 258 90t170 166l-338 903l254 64l219 -660h2l205 625h252l-299 -842q-51 -146 -116.5 -247t-151.5 -164t-181.5 -97t-226.5 -53zM139 1225q0 61 45 106t107 45q61 0 105 -44.5t44 -106.5t-44 -106t-105 -44q-62 0 -107 44.5t-45 105.5zM526 1225 q0 62 44.5 106.5t105.5 44.5q62 0 106.5 -45t44.5 -106t-44.5 -105.5t-106.5 -44.5t-106 44.5t-44 105.5z" />
<glyph unicode="&#x152;" horiz-adv-x="1591" d="M76 618q0 99 18 188t62 172.5t109.5 144.5t168 97.5t230.5 36.5q109 0 188 -24h641v-232h-387v-266h344v-221h-344v-283h418v-231h-678q-80 -25 -182 -25q-106 0 -195 25.5t-152.5 72t-110.5 106.5t-75 133.5t-41.5 149t-13.5 156.5zM365 618q0 -196 75 -303.5 t224 -107.5q110 0 174 67v689q-64 61 -174 61q-150 0 -224.5 -106t-74.5 -300z" />
<glyph unicode="&#x153;" horiz-adv-x="1533" d="M72 487q0 147 48 259.5t147.5 178.5t238.5 66q111 0 189 -49t120 -133h2q42 82 118.5 132t178.5 50q96 0 166 -34t108.5 -93.5t56 -129.5t17.5 -154v-123h-538q12 -254 247 -254q64 0 107 12t111 41l81 -199q-92 -43 -163 -62.5t-162 -19.5q-248 0 -336 181h-2 q-45 -81 -122.5 -130t-178.5 -49q-112 0 -196.5 38t-136 107.5t-76.5 160.5t-25 204zM330 489q0 -284 178 -284t178 280q0 279 -178 279q-88 0 -133 -65t-45 -210zM928 614h307q0 76 -35.5 122t-107.5 46q-68 0 -109.5 -47t-54.5 -121z" />
<glyph unicode="&#x178;" horiz-adv-x="1026" d="M4 1171l250 109l246 -530h2l229 483h291l-389 -727v-506h-275v502zM170 1477q0 61 45 106t107 45q61 0 105 -44.5t44 -106.5t-44 -106t-105 -44q-62 0 -107 44.5t-45 105.5zM557 1477q0 62 44.5 106.5t105.5 44.5t106 -45t45 -106t-44.5 -105.5t-106.5 -44.5 q-61 0 -105.5 44.5t-44.5 105.5z" />
<glyph unicode="&#x2c6;" horiz-adv-x="1015" d="M168 1174l340 274l340 -274l-100 -127l-240 163l-240 -163z" />
<glyph unicode="&#x2dc;" horiz-adv-x="1015" d="M154 1163q2 8 7.5 21t25 45.5t44.5 58t68.5 46t93.5 20.5q47 0 130 -41t110 -41q22 0 41 7t31 17t20.5 20.5t12.5 17.5l3 7l121 -67q-2 -8 -7 -21t-25 -45.5t-44.5 -58t-68 -46t-94.5 -20.5q-46 0 -128.5 40t-111.5 40q-35 0 -61.5 -17.5t-35.5 -34.5l-10 -17z" />
<glyph unicode="&#x2000;" horiz-adv-x="864" />
<glyph unicode="&#x2001;" horiz-adv-x="1729" />
<glyph unicode="&#x2002;" horiz-adv-x="864" />
<glyph unicode="&#x2003;" horiz-adv-x="1729" />
<glyph unicode="&#x2004;" horiz-adv-x="576" />
<glyph unicode="&#x2005;" horiz-adv-x="432" />
<glyph unicode="&#x2006;" horiz-adv-x="288" />
<glyph unicode="&#x2007;" horiz-adv-x="288" />
<glyph unicode="&#x2008;" horiz-adv-x="216" />
<glyph unicode="&#x2009;" horiz-adv-x="345" />
<glyph unicode="&#x200a;" horiz-adv-x="96" />
<glyph unicode="&#x2010;" horiz-adv-x="716" d="M82 496v204h553v-204h-553z" />
<glyph unicode="&#x2011;" horiz-adv-x="716" d="M82 496v204h553v-204h-553z" />
<glyph unicode="&#x2012;" horiz-adv-x="716" d="M82 496v204h553v-204h-553z" />
<glyph unicode="&#x2013;" horiz-adv-x="960" d="M53 485v201h856v-201h-856z" />
<glyph unicode="&#x2014;" horiz-adv-x="1378" d="M53 485v201h1274v-201h-1274z" />
<glyph unicode="&#x2018;" d="M96 817q0 108 30 193t82.5 147t137.5 123l80 -86q-122 -103 -143 -229q61 -7 103 -54.5t42 -109.5q0 -68 -48.5 -117t-115.5 -49q-72 0 -120 49.5t-48 132.5z" />
<glyph unicode="&#x2019;" d="M96 1108q0 68 48 116t116 48q73 0 120.5 -49t47.5 -133q0 -158 -60.5 -263t-189.5 -198l-80 84q123 104 144 229q-61 8 -103.5 56t-42.5 110z" />
<glyph unicode="&#x201a;" d="M96 147q0 67 48 115.5t116 48.5q73 0 120.5 -49t47.5 -133q0 -158 -61 -263t-189 -200l-80 86q123 107 144 230q-62 8 -104 55t-42 110z" />
<glyph unicode="&#x201c;" horiz-adv-x="944" d="M96 817q0 108 30 193t82.5 147t137.5 123l80 -86q-122 -103 -143 -229q61 -7 103 -54.5t42 -109.5q0 -68 -48.5 -117t-115.5 -49q-72 0 -120 49.5t-48 132.5zM516 817q0 158 61.5 264t190.5 199l78 -86q-123 -104 -144 -229q61 -7 103.5 -54.5t42.5 -109.5 q0 -68 -48.5 -117t-115.5 -49q-71 0 -119.5 50t-48.5 132z" />
<glyph unicode="&#x201d;" horiz-adv-x="944" d="M96 1108q0 68 48 116t116 48q73 0 120.5 -49t47.5 -133q0 -158 -60.5 -263t-189.5 -198l-80 84q123 104 144 229q-61 8 -103.5 56t-42.5 110zM516 1108q0 67 49 115.5t117 48.5q71 0 118.5 -49t47.5 -133q0 -158 -60.5 -263t-189.5 -198l-78 84q123 107 144 229 q-62 8 -105 55.5t-43 110.5z" />
<glyph unicode="&#x201e;" horiz-adv-x="944" d="M96 147q0 67 48 115.5t116 48.5q73 0 120.5 -49t47.5 -133q0 -158 -60.5 -263t-189.5 -200l-80 86q122 104 144 230q-61 8 -103.5 55.5t-42.5 109.5zM516 147q0 67 49 115.5t117 48.5q71 0 118.5 -49t47.5 -133q0 -158 -60.5 -263t-189.5 -200l-78 86q123 107 144 230 q-62 8 -105 55t-43 110z" />
<glyph unicode="&#x2022;" horiz-adv-x="854" d="M96 600q0 137 97 233.5t235 96.5q137 0 234.5 -97t97.5 -233q0 -138 -97.5 -236t-234.5 -98q-138 0 -235 98t-97 236z" />
<glyph unicode="&#x2026;" horiz-adv-x="1574" d="M96 147q0 68 48.5 116t117.5 48t117.5 -48t48.5 -116t-48.5 -116.5t-117.5 -48.5t-117.5 48.5t-48.5 116.5zM623 147q0 68 48 116t115 48q69 0 117.5 -48t48.5 -116t-48.5 -116.5t-117.5 -48.5q-67 0 -115 48.5t-48 116.5zM1147 147q0 67 49 115.5t117 48.5 q69 0 117.5 -48t48.5 -116t-48.5 -116.5t-117.5 -48.5q-68 0 -117 49t-49 116z" />
<glyph unicode="&#x202f;" horiz-adv-x="345" />
<glyph unicode="&#x2039;" horiz-adv-x="507" d="M43 610l250 416l160 -86l-156 -330l156 -329l-160 -91z" />
<glyph unicode="&#x203a;" horiz-adv-x="507" d="M53 281l156 329l-156 330l162 86l250 -416l-250 -420z" />
<glyph unicode="&#x205f;" horiz-adv-x="432" />
<glyph unicode="&#x2122;" horiz-adv-x="1574" d="M14 1073v160h594v-160h-196v-579h-201v579h-197zM682 494l55 739h201l166 -494h2l143 494h224l53 -739l-174 -9l-23 455h-2l-127 -446h-182l-154 448h-2l-20 -448h-160z" />
<glyph unicode="&#xe000;" horiz-adv-x="1013" d="M0 0v1014h1014v-1014h-1014z" />
<glyph unicode="&#xfb01;" horiz-adv-x="1243" d="M16 764v172l150 35v71q0 162 105 261.5t268 99.5q70 0 168 -27l-62 -221q-54 16 -86 16q-63 0 -99 -35.5t-36 -105.5v-61h246v-205h-246v-764h-258v764h-150zM819 1241q0 67 49 115.5t117 48.5t117 -48.5t49 -115.5q0 -69 -49 -117.5t-117 -48.5t-117 48.5t-49 117.5z M821 956l293 33v-989h-260v717z" />
<glyph unicode="&#xfb02;" horiz-adv-x="1230" d="M16 764v172l150 35v71q0 162 105 261.5t268 99.5q70 0 168 -27l-62 -221q-54 16 -86 16q-63 0 -99 -35.5t-36 -105.5v-61h246v-205h-246v-764h-258v764h-150zM813 1368l293 33v-1401h-260v1130z" />
</font>
</defs>
</svg>
